<?xml version="1.0" standalone="no"?>
<!DOCTYPE svg PUBLIC "-//W3C//DTD SVG 20010904//EN"
 "http://www.w3.org/TR/2001/REC-SVG-20010904/DTD/svg10.dtd">
<svg version="1.0" xmlns="http://www.w3.org/2000/svg"
 width="307.000000pt" height="337.000000pt" viewBox="0 0 307.000000 337.000000"
 preserveAspectRatio="xMidYMid meet">
<metadata>
Created by potrace 1.16, written by Peter Selinger 2001-2019
</metadata>
<g transform="translate(0.000000,337.000000) scale(0.100000,-0.100000)"
fill="#000000" stroke="none">
<path fill="#000000" stroke="none" d="M1280 3130 c-31 -31 -30 -72 3 -107 27
-31 71 -30 102 2 30 30 32 64 4 99 -26 33 -79 36 -109 6z"/>
<path fill="#000000" stroke="none" d="M1880 3020 c-12 -12 -20 -33 -20 -55 0
-69 76 -100 125 -50 30 30 32 64 4 99 -26 33 -79 36 -109 6z"/>
<path fill="#000000" stroke="none" d="M1304 2906 c-55 -55 -50 -76 76 -350
61 -132 110 -242 110 -245 0 -3 -87 81 -193 187 -125 125 -203 195 -222 200
-97 27 -177 -76 -130 -167 17 -35 26 -39 305 -142 l225 -84 -270 -5 c-303 -6
-313 -8 -342 -78 -19 -46 -5 -101 34 -131 50 -40 90 -30 336 84 125 57 234
105 244 107 17 3 18 -16 23 -277 4 -207 8 -286 18 -303 14 -25 68 -52 103 -52
51 0 109 61 109 115 0 14 -48 131 -106 258 -58 128 -108 239 -111 247 -3 8 81
-71 188 -177 122 -120 204 -194 222 -198 41 -11 91 2 116 29 31 32 38 94 16
135 -19 38 -26 42 -310 146 -115 43 -218 85 -227 93 -16 14 -18 40 -18 284 0
296 -3 314 -60 343 -50 26 -97 20 -136 -19z"/>
<path fill="#000000" stroke="none" d="M1730 2848 c-32 -22 -42 -43 -128 -273
-51 -137 -90 -255 -88 -262 4 -10 66 -13 282 -13 l276 0 34 34 c29 29 34 41
34 79 0 54 -26 91 -75 107 -45 15 -53 12 -320 -111 -119 -54 -220 -99 -223
-99 -4 0 77 84 180 188 103 103 192 200 198 217 25 67 -23 142 -96 152 -30 4
-47 -1 -74 -19z"/>
<path fill="#000000" stroke="none" d="M779 2781 c-16 -16 -29 -39 -29 -51 0
-28 52 -80 80 -80 28 0 80 52 80 80 0 28 -52 80 -80 80 -12 0 -35 -13 -51 -29z"/>
<path fill="#000000" stroke="none" d="M2231 2523 c-53 -44 -24 -133 43 -133
64 0 100 54 72 109 -24 45 -76 55 -115 24z"/>
<path fill="#000000" stroke="none" d="M1290 2085 l-195 -195 0 -50 c0 -40 5
-55 25 -75 49 -48 124 -49 168 -3 19 21 207 506 199 514 -1 2 -90 -84 -197
-191z"/>
<path fill="#000000" stroke="none" d="M669 2181 c-16 -16 -29 -39 -29 -51 0
-12 13 -35 29 -51 16 -16 39 -29 51 -29 28 0 80 52 80 80 0 12 -13 35 -29 51
-16 16 -39 29 -51 29 -12 0 -35 -13 -51 -29z"/>
<path fill="#000000" stroke="none" d="M2115 1915 c-30 -30 -32 -64 -4 -99 35
-44 110 -32 130 21 28 75 -69 136 -126 78z"/>
<path fill="#000000" stroke="none" d="M1010 1678 c-27 -30 -26 -73 5 -103 30
-30 64 -32 99 -4 33 26 36 79 6 109 -27 27 -83 27 -110 -2z"/>
<path fill="#000000" stroke="none" d="M1611 1564 c-28 -35 -26 -69 4 -99 30
-30 64 -32 99 -4 33 26 36 79 6 109 -30 30 -83 27 -109 -6z"/>
<path fill="#000000" stroke="none" d="M620 785 l0 -375 45 0 45 0 0 375 0
375 -45 0 -45 0 0 -375z"/>
<path fill="#000000" stroke="none" d="M2780 785 l0 -375 45 0 45 0 0 375 0
375 -45 0 -45 0 0 -375z"/>
<path fill="#000000" stroke="none" d="M2240 884 c-60 -21 -65 -27 -50 -63 14
-36 12 -35 65 -16 62 22 137 19 164 -6 28 -26 36 -49 61 -159 10 -49 26 -103
35 -119 l16 -31 -631 0 -630 0 0 201 0 201 -107 -3 c-99 -4 -113 -7 -163 -35
-80 -45 -114 -103 -119 -205 -7 -163 72 -238 252 -239 57 0 57 0 57 -30 0 -92
-91 -146 -195 -116 -27 8 -59 17 -71 21 -16 5 -23 0 -34 -22 -8 -15 -16 -31
-18 -35 -8 -15 111 -48 177 -48 131 0 221 76 221 187 l0 43 675 0 675 0 0 39
c0 22 -9 55 -20 74 -11 18 -31 84 -45 145 -26 121 -40 155 -77 190 -47 43
-153 55 -238 26z"/>
<path fill="#ffffff" stroke="none" d="M1190 650 l0 -160 -65 0 c-97 0 -139
26 -156 97 -29 123 47 223 168 223 l53 0 0 -160z"/>
<path fill="#000000" stroke="none" d="M267 806 c-54 -15 -103 -56 -123 -103
-27 -62 -12 -158 31 -193 16 -14 14 -15 -26 -25 -40 -10 -44 -14 -47 -44 l-3
-34 53 7 c29 4 100 14 158 22 58 7 120 14 138 14 31 0 32 2 32 40 0 46 5 45
-120 29 -82 -10 -84 -10 -108 15 -32 32 -41 109 -18 154 22 43 80 61 143 43
51 -13 58 -9 68 31 6 23 3 29 -16 36 -46 18 -114 21 -162 8z"/>
<path fill="#000000" stroke="none" d="M2300 311 c-24 -46 0 -91 49 -91 35 0
51 17 51 55 0 40 -16 55 -57 55 -22 0 -36 -6 -43 -19z"/>
</g>
</svg>
