<?xml version="1.0" standalone="no"?>
<!DOCTYPE svg PUBLIC "-//W3C//DTD SVG 20010904//EN"
 "http://www.w3.org/TR/2001/REC-SVG-20010904/DTD/svg10.dtd">
<svg version="1.0" xmlns="http://www.w3.org/2000/svg"
 width="882.000000pt" height="615.000000pt" viewBox="0 0 882.000000 615.000000"
 preserveAspectRatio="xMidYMid meet">
<metadata>
Created by potrace 1.16, written by Peter Selinger 2001-2019
</metadata>
<g transform="translate(0.000000,615.000000) scale(0.100000,-0.100000)"
fill="#000000" stroke="none">
<path fill="#000000" stroke="none" d="M2760 5953 c-97 -98 -473 -484 -836
-858 -362 -374 -819 -844 -1014 -1045 -809 -830 -890 -915 -888 -927 3 -10
476 -514 913 -973 61 -64 252 -268 425 -455 405 -436 611 -657 1404 -1500 99
-104 182 -191 185 -193 7 -2 439 431 1151 1153 196 198 499 505 675 682 l319
323 1833 0 c1458 0 1835 3 1838 12 15 44 48 553 49 748 1 258 -6 294 -92 463
-75 147 -210 271 -337 309 -16 5 -74 13 -129 18 -54 4 -103 13 -109 19 -14 14
8 42 329 402 155 174 289 330 298 347 30 58 11 156 -34 179 -19 10 -129 13
-457 13 l-432 0 -23 -29 c-13 -15 -135 -154 -271 -307 -264 -296 -357 -390
-357 -358 0 42 30 416 41 504 6 52 9 115 7 140 l-3 45 -394 3 c-217 1 -398 -1
-403 -6 -8 -8 -33 -267 -44 -461 -6 -112 -9 -127 -30 -148 l-23 -23 -612 0
-612 0 -131 127 c-72 70 -132 130 -134 135 -2 4 63 9 144 10 l148 3 23 145
c13 80 26 188 29 240 l6 95 -53 58 -54 57 -271 6 -271 7 -6 -69 c-4 -38 -9
-106 -13 -152 l-7 -84 -53 53 c-32 32 -54 62 -54 75 0 12 -21 48 -46 80 -41
54 -49 59 -83 59 -37 0 -57 18 -666 615 -345 338 -637 620 -649 627 -12 7 -28
12 -36 13 -8 0 -94 -80 -190 -177z"/>
<path fill="#ffffff" stroke="none" d="M3034 5889 c37 -39 66 -75 64 -79 -7
-20 -203 -250 -213 -250 -12 0 -235 67 -240 72 -5 5 305 328 315 328 4 0 38
-32 74 -71z"/>
<path fill="#ffffff" stroke="none" d="M3191 5695 c33 -12 75 -46 163 -133
157 -155 174 -196 115 -282 -31 -44 -31 -46 -26 -142 l5 -97 -106 -130 c-59
-71 -111 -130 -117 -131 -5 0 -62 53 -127 117 l-117 117 -51 -24 c-27 -13 -52
-21 -55 -18 -3 3 -10 45 -15 94 -6 49 -12 101 -15 116 -3 21 6 40 37 79 40 51
40 52 34 114 l-6 61 63 81 c84 106 159 193 168 193 3 0 26 -7 50 -15z"/>
<path fill="#ffffff" stroke="none" d="M2440 5386 c0 -13 3 -36 6 -52 4 -25
-7 -43 -86 -139 -51 -60 -96 -114 -100 -119 -11 -11 -92 54 -88 71 4 15 248
263 260 263 4 0 8 -11 8 -24z"/>
<path fill="#ffffff" stroke="none" d="M2562 5190 c29 -10 84 -27 121 -36 81
-20 83 -23 92 -155 l7 -94 -144 -105 c-78 -58 -173 -131 -210 -162 -111 -96
-122 -87 -143 112 -14 131 -14 161 -3 193 14 42 196 267 215 267 7 0 36 -9 65
-20z"/>
<path fill="#ffffff" stroke="none" d="M4008 4859 c-12 -4 -60 -7 -105 -8 -81
-1 -83 0 -83 23 0 13 -3 37 -6 53 -5 25 0 37 27 68 l34 38 78 -84 c74 -79 78
-84 55 -90z"/>
<path fill="#ffffff" stroke="none" d="M3644 4939 c38 -10 73 -22 77 -26 12
-12 42 -356 36 -410 -4 -35 -20 -61 -103 -162 -114 -139 -89 -132 -269 -76
l-113 36 -4 50 c-3 56 -1 59 89 109 71 39 68 56 -37 187 l-41 51 61 78 c34 42
86 105 117 139 53 61 56 63 86 53 18 -6 63 -18 101 -29z"/>
<path fill="#ffffff" stroke="none" d="M1951 4839 l39 -31 93 10 c50 6 95 7
98 4 4 -4 13 -68 22 -142 l16 -135 -27 -37 c-79 -110 -74 -96 -66 -178 7 -86
19 -62 -119 -227 l-68 -82 -62 48 c-92 72 -95 73 -197 65 -51 -4 -90 -3 -90 2
0 5 -7 68 -15 139 -21 184 -20 187 20 235 19 23 35 51 35 61 0 19 256 298 274
299 4 0 26 -14 47 -31z"/>
<path fill="#ffffff" stroke="none" d="M3023 4798 c38 -40 76 -83 85 -96 14
-21 13 -25 -13 -52 -16 -17 -31 -28 -33 -25 -3 3 -28 -12 -56 -32 -76 -55
-165 -117 -183 -128 -24 -15 -42 -28 -64 -47 -10 -10 -23 -18 -28 -18 -5 0
-11 -3 -13 -8 -1 -4 -23 -23 -48 -42 -25 -18 -52 -40 -60 -47 -8 -7 -46 -36
-85 -64 l-70 -50 -32 38 c-18 21 -33 43 -33 48 0 6 -13 26 -30 45 -16 19 -29
43 -30 52 0 21 39 88 51 88 5 0 42 31 81 68 40 37 98 88 128 112 30 25 57 48
60 51 18 22 264 179 282 179 13 0 47 -26 91 -72z"/>
<path fill="#ffffff" stroke="none" d="M4950 4821 l75 -6 3 -31 c5 -49 -35
-276 -50 -285 -29 -19 -339 -2 -361 20 -10 10 5 280 17 300 8 12 181 13 316 2z"/>
<path fill="#ffffff" stroke="none" d="M4255 4781 c9 -16 -17 -295 -29 -308
-7 -8 -73 -12 -201 -15 l-190 -3 -7 150 c-4 82 -4 153 1 158 5 5 82 12 172 16
244 12 247 12 254 2z"/>
<path fill="#ffffff" stroke="none" d="M4584 4305 l136 -144 -56 -66 -56 -65
-181 2 -182 3 -6 55 c-4 30 -9 81 -13 113 l-6 57 84 0 c64 0 87 4 97 16 7 9
15 51 17 99 3 61 8 82 17 79 6 -3 73 -70 149 -149z"/>
<path fill="#ffffff" stroke="none" d="M7008 4411 c11 -6 11 -32 3 -137 -6
-71 -18 -232 -26 -359 -8 -126 -24 -320 -35 -430 -17 -176 -60 -665 -60 -687
0 -4 297 -8 659 -8 l659 0 6 58 c8 65 -7 154 -30 190 -36 55 -49 57 -554 62
l-465 5 -3 52 c-2 29 4 119 12 201 9 82 16 167 16 190 0 40 11 53 360 444 199
222 371 409 383 415 16 10 81 12 242 10 189 -2 220 -4 223 -18 2 -14 -127
-162 -634 -726 -90 -100 -164 -184 -164 -187 0 -3 133 -6 295 -6 313 0 364 -5
455 -48 70 -33 168 -130 203 -202 49 -101 60 -170 53 -310 -17 -314 -32 -490
-42 -500 -7 -7 -708 -9 -2279 -8 l-2269 3 -8 32 c-5 18 -27 48 -53 71 -25 22
-45 48 -45 58 0 11 16 43 36 72 46 69 67 120 94 226 20 79 21 107 18 319 -3
215 13 505 30 567 l7 25 174 3 c125 2 177 -1 188 -10 16 -13 14 -62 -13 -358
-20 -225 -44 -539 -44 -582 l0 -38 113 0 114 0 12 138 c35 396 42 489 51 617
5 77 10 154 10 172 0 59 13 63 199 63 141 0 171 -3 182 -16 11 -13 9 -59 -9
-267 -13 -139 -22 -277 -22 -307 0 -30 -4 -82 -9 -115 -5 -33 -13 -111 -16
-172 l-7 -113 105 0 c74 0 108 4 115 13 6 7 18 105 27 218 51 636 61 741 76
750 8 5 89 9 181 9 206 0 195 11 179 -169 -5 -69 -13 -180 -16 -246 -4 -66
-15 -218 -26 -339 -10 -120 -19 -222 -19 -227 0 -6 52 -8 123 -7 l122 3 7 135
c5 74 17 232 29 350 11 118 25 273 30 344 5 71 14 135 20 143 10 11 47 13 188
11 l176 -3 3 -60 c2 -32 -4 -136 -12 -230 -14 -150 -46 -589 -50 -670 l-1 -30
112 -3 c133 -3 116 -29 132 208 6 91 22 284 36 430 24 265 45 523 66 805 8
110 15 155 26 168 14 15 37 17 182 17 91 0 172 -4 179 -9z"/>
<path fill="#ffffff" stroke="none" d="M1492 4220 c14 -121 15 -163 6 -190
-10 -32 -93 -143 -176 -234 -40 -45 -14 -46 -212 12 l-95 28 -8 54 -7 54 92
96 c324 333 332 341 358 338 24 -3 25 -5 42 -158z"/>
<path fill="#ffffff" stroke="none" d="M3185 4300 c12 -90 -27 -117 -127 -89
-21 5 -38 13 -38 18 0 17 130 121 151 121 4 0 10 -23 14 -50z"/>
<path fill="#ffffff" stroke="none" d="M3824 4300 c57 -62 93 -73 207 -66 112
8 103 18 115 -121 l7 -83 -107 0 -106 0 0 -109 c0 -59 -5 -122 -11 -139 -10
-31 -11 -31 -35 -15 -14 9 -49 48 -79 87 -52 70 -148 167 -214 218 l-34 26 99
120 c54 67 104 121 110 121 6 1 27 -17 48 -39z"/>
<path fill="#ffffff" stroke="none" d="M2275 4135 c119 -38 111 -34 94 -49 -8
-7 -54 -26 -104 -41 -49 -15 -134 -49 -187 -76 -54 -27 -98 -46 -98 -43 0 17
186 234 199 234 9 0 52 -12 96 -25z"/>
<path fill="#ffffff" stroke="none" d="M3255 4090 c3 -5 18 -10 33 -10 31 0
97 -22 150 -49 34 -18 57 -34 107 -79 28 -25 85 -99 85 -110 0 -6 7 -12 15
-16 8 -3 15 -12 15 -19 0 -8 11 -41 25 -73 14 -33 30 -68 34 -79 15 -34 31
-101 31 -128 0 -14 5 -29 10 -32 6 -4 8 -11 4 -16 -3 -5 0 -35 7 -67 13 -66
14 -276 0 -342 -24 -120 -69 -207 -146 -286 -35 -35 -70 -64 -79 -64 -9 0 -16
-4 -16 -8 0 -4 -21 -19 -47 -32 -53 -26 -59 -28 -103 -37 -16 -3 -30 -8 -30
-12 0 -4 -16 -8 -35 -9 -20 -2 -46 -7 -59 -12 -13 -5 -26 -7 -28 -4 -3 2 -36
0 -74 -6 -38 -6 -100 -13 -139 -16 -38 -3 -77 -7 -84 -10 -8 -3 -60 -7 -115
-10 -55 -3 -111 -10 -124 -15 -13 -5 -28 -7 -33 -4 -4 3 -31 3 -60 -1 l-51 -7
4 -56 c5 -65 37 -140 75 -175 24 -23 33 -25 102 -22 77 3 156 12 201 22 14 3
50 8 80 10 30 3 62 7 70 10 8 4 33 8 54 10 22 2 47 6 55 10 9 4 27 9 41 10 27
4 58 10 245 48 66 14 138 28 159 31 21 3 50 8 63 11 35 9 50 -10 58 -74 18
-141 22 -391 6 -419 -10 -20 -51 -30 -161 -38 -25 -2 -81 -6 -125 -9 -44 -4
-129 -13 -190 -21 -60 -8 -162 -17 -225 -20 -63 -4 -123 -9 -133 -12 -28 -7
-343 -7 -412 2 -77 9 -115 20 -195 59 -68 32 -173 127 -201 181 -88 170 -99
204 -174 540 -20 88 -40 169 -45 180 -5 11 -11 40 -14 65 -13 97 -18 126 -23
140 -3 8 -7 31 -10 50 -2 19 -6 42 -9 50 -4 8 -8 42 -11 75 -2 33 -8 74 -13
90 -9 33 -6 147 6 210 4 22 17 64 30 93 13 28 21 52 19 52 -8 0 27 41 85 102
30 32 60 58 67 58 6 0 13 4 15 8 15 36 280 148 408 172 25 5 108 22 185 39 77
17 167 33 200 36 33 3 71 10 85 15 14 6 90 14 170 19 80 4 148 9 152 10 4 0
10 -3 13 -9z"/>
<path fill="#ffffff" stroke="none" d="M4816 4055 c18 -13 15 -14 -30 -15 -42
0 -47 2 -36 15 16 19 41 19 66 0z"/>
<path fill="#ffffff" stroke="none" d="M1740 3772 c38 2 70 2 70 0 0 -3 -13
-32 -30 -66 -60 -125 -73 -250 -48 -478 l11 -107 -25 -33 c-14 -18 -42 -51
-61 -73 l-35 -40 -58 46 c-91 71 -95 72 -199 65 l-91 -7 -12 128 c-7 70 -15
146 -18 168 -5 36 -1 45 35 89 41 48 41 48 35 115 l-5 66 102 122 102 122 78
-61 79 -60 70 4z"/>
<path fill="#ffffff" stroke="none" d="M929 3803 c1 -12 -21 -48 -49 -81 l-50
-60 5 -84 6 -83 -72 -85 c-39 -47 -82 -98 -95 -113 l-24 -29 -70 56 c-38 31
-79 60 -90 64 -17 6 10 38 203 239 226 235 234 241 236 176z"/>
<path fill="#ffffff" stroke="none" d="M970 3386 c41 -14 100 -32 131 -40 56
-16 57 -17 63 -58 18 -133 28 -261 22 -292 -6 -32 -55 -99 -189 -261 l-25 -30
-99 32 c-54 17 -114 37 -135 43 -43 13 -43 12 -59 195 -10 121 -10 145 3 175
14 32 196 260 208 260 3 0 39 -11 80 -24z"/>
<path fill="#ffffff" stroke="none" d="M482 3018 c51 6 95 8 97 6 6 -6 30
-208 31 -256 0 -21 -4 -38 -9 -38 -10 0 -364 375 -370 393 -2 5 33 -18 77 -53
l80 -62 94 10z"/>
<path fill="#ffffff" stroke="none" d="M1820 2725 c29 -137 55 -259 58 -269 4
-16 1 -18 -19 -13 -56 12 -175 49 -181 55 -12 12 -40 293 -33 333 7 42 102
167 115 152 4 -4 31 -120 60 -258z"/>
<path fill="#ffffff" stroke="none" d="M1264 2791 c90 -71 95 -73 189 -65 45
3 87 7 92 8 6 0 17 -62 26 -144 l16 -145 -46 -59 -46 -59 3 -84 2 -84 -86
-105 c-48 -57 -90 -104 -93 -104 -9 0 -125 122 -274 288 l-118 132 20 28 c11
16 27 35 36 42 13 11 16 29 13 84 l-3 71 100 122 c55 67 102 123 104 123 2 0
31 -22 65 -49z"/>
<path fill="#ffffff" stroke="none" d="M4110 2149 c0 -6 -19 -33 -42 -61 l-43
-50 -8 38 c-10 52 11 84 58 84 19 0 35 -5 35 -11z"/>
<path fill="#ffffff" stroke="none" d="M4440 2151 c0 -5 -7 -14 -15 -21 -11
-9 -26 -8 -72 8 l-58 20 73 1 c39 1 72 -3 72 -8z"/>
<path fill="#ffffff" stroke="none" d="M1996 2094 c54 -122 134 -214 277 -318
l77 -57 -32 -39 c-17 -22 -34 -40 -37 -40 -3 0 -40 27 -81 60 -50 40 -81 58
-95 55 -11 -2 -54 -7 -96 -10 l-76 -6 -18 170 -18 170 29 35 c16 19 33 35 37
35 4 1 19 -24 33 -55z"/>
<path fill="#ffffff" stroke="none" d="M1612 2051 c29 -11 82 -27 118 -37 36
-9 70 -22 77 -28 14 -14 46 -291 37 -332 -3 -17 -26 -56 -51 -87 l-45 -57 -74
68 c-81 73 -284 289 -284 302 0 13 149 190 160 190 5 0 33 -9 62 -19z"/>
<path fill="#ffffff" stroke="none" d="M4249 1990 c57 -16 105 -30 106 -32 2
-2 7 -41 13 -88 l10 -85 -261 -257 c-144 -141 -265 -257 -268 -258 -3 0 -12
59 -19 130 l-13 130 52 55 c37 39 51 62 49 77 -3 20 3 24 43 31 54 10 59 22
59 130 0 58 2 62 55 128 31 38 59 69 63 69 4 0 54 -14 111 -30z"/>
<path fill="#ffffff" stroke="none" d="M2545 1641 c44 -12 119 -24 166 -28
l87 -6 6 -46 c15 -124 18 -173 12 -204 -4 -23 -39 -72 -107 -153 -55 -65 -104
-120 -109 -122 -6 -2 -45 8 -87 21 -43 14 -99 31 -126 37 -26 7 -50 17 -53 22
-12 18 -37 295 -30 331 10 52 113 180 141 174 11 -3 56 -14 100 -26z"/>
<path fill="#ffffff" stroke="none" d="M3444 1624 c3 -9 6 -22 6 -31 0 -18
-181 -241 -197 -242 -6 -1 -42 24 -80 55 l-68 56 -96 -7 c-54 -3 -99 -3 -102
2 -2 4 -7 40 -11 79 l-7 72 148 7 c81 4 175 11 208 15 112 14 192 12 199 -6z"/>
<path fill="#ffffff" stroke="none" d="M1937 1439 l76 -60 101 3 101 3 14
-142 c20 -198 17 -199 -108 -84 -53 49 -143 134 -201 188 l-104 100 17 26 c10
15 20 27 22 27 3 0 40 -27 82 -61z"/>
<path fill="#ffffff" stroke="none" d="M3572 1460 c29 -11 77 -23 106 -26 60
-8 55 3 72 -154 l10 -104 -137 -139 c-76 -76 -155 -152 -177 -169 -37 -31 -40
-31 -85 -19 -25 7 -49 15 -53 19 -4 4 -15 78 -24 164 -16 156 -16 157 5 200
30 61 190 248 212 248 10 0 42 -9 71 -20z"/>
<path fill="#ffffff" stroke="none" d="M2912 1144 l69 -57 103 7 103 6 12
-122 c7 -68 14 -132 17 -143 4 -14 -11 -40 -46 -85 l-52 -64 7 -64 7 -65 -83
-83 c-46 -46 -89 -84 -95 -84 -11 0 -384 347 -384 357 0 3 15 24 33 47 33 39
34 43 27 101 -5 38 -3 65 4 75 45 62 190 230 198 230 6 0 42 -25 80 -56z"/>
<path fill="#000000" stroke="none" d="M3099 3316 c-2 -2 -65 -7 -139 -10
-151 -6 -173 -8 -385 -36 -82 -11 -166 -22 -185 -25 -20 -2 -48 -8 -62 -14
-14 -5 -29 -7 -32 -4 -3 4 -6 1 -6 -5 0 -7 -6 -12 -12 -12 -35 -1 -81 -119
-74 -190 10 -111 25 -147 55 -135 9 4 39 9 66 11 28 3 57 7 65 10 8 3 40 7 70
10 30 2 71 7 90 10 19 3 53 8 74 11 22 2 47 8 55 12 9 5 43 11 76 15 138 15
136 14 270 41 17 3 39 7 50 9 11 2 20 4 20 5 0 2 11 5 25 7 13 3 40 15 58 27
l33 22 -3 85 c-2 66 -7 91 -23 112 -25 33 -72 57 -86 44z"/>
<path fill="#000000" stroke="none" d="M5674 4839 c-78 -10 -190 -27 -248 -38
-59 -12 -110 -21 -113 -21 -13 0 32 -415 52 -480 3 -9 29 -40 59 -69 l53 -53
139 12 c77 7 191 22 254 34 l115 22 3 179 c2 99 0 213 -3 253 -6 67 -10 77
-51 127 -53 64 -40 63 -260 34z"/>
<path fill="#ffffff" stroke="none" d="M5804 4693 c9 -115 7 -251 -4 -258 -19
-11 -254 -45 -317 -45 -69 0 -66 -4 -82 95 -17 109 -22 213 -11 220 19 12 139
35 250 50 172 21 156 27 164 -62z"/>
<path fill="#000000" stroke="none" d="M6196 1979 c-7 -18 -25 -281 -28 -392
l-2 -88 51 -51 c62 -62 70 -64 348 -73 153 -6 193 -4 207 6 21 16 54 211 64
374 l7 101 -44 54 c-25 30 -56 57 -71 61 -15 4 -140 10 -277 14 -209 6 -251 5
-255 -6z"/>
<path fill="#ffffff" stroke="none" d="M6643 1894 c22 -7 23 -63 1 -193 -25
-146 -6 -135 -211 -128 -97 3 -179 9 -184 14 -11 11 8 267 22 302 l10 23 172
-7 c95 -3 180 -9 190 -11z"/>
<path fill="#000000" stroke="none" d="M5670 1935 c-96 -7 -201 -13 -233 -14
l-58 -1 3 -240 3 -240 60 -59 60 -60 244 9 c134 5 252 12 262 15 11 4 21 16
24 28 10 42 25 253 25 349 l0 97 -43 63 -43 63 -65 1 c-35 1 -143 -4 -239 -11z"/>
<path fill="#ffffff" stroke="none" d="M5882 1848 c8 -21 -22 -292 -33 -303
-6 -6 -88 -10 -202 -10 l-192 0 -3 147 c-2 109 1 149 10 155 33 21 413 30 420
11z"/>
</g>
</svg>
