<?xml version="1.0" standalone="no"?>
<!DOCTYPE svg PUBLIC "-//W3C//DTD SVG 20010904//EN"
 "http://www.w3.org/TR/2001/REC-SVG-20010904/DTD/svg10.dtd">
<svg version="1.0" xmlns="http://www.w3.org/2000/svg"
 width="500.000000pt" height="500.000000pt" viewBox="0 0 500.000000 500.000000"
 preserveAspectRatio="xMidYMid meet">
<metadata>
Created by potrace 1.16, written by Peter Selinger 2001-2019
</metadata>
<g transform="translate(0.000000,500.000000) scale(0.100000,-0.100000)"
fill="#000000" stroke="none">
<path fill="#000000" stroke="none" d="M2330 4895 c-247 -45 -370 -84 -565
-180 -339 -166 -637 -414 -827 -690 -244 -355 -358 -719 -358 -1145 0 -379
101 -718 315 -1060 138 -219 329 -416 545 -562 175 -118 305 -172 513 -213
126 -25 152 -27 300 -22 221 7 391 48 567 137 313 158 567 446 681 770 32 90
34 102 34 235 0 144 -10 210 -46 305 -103 273 -289 440 -492 440 -51 0 -62 -4
-88 -29 -44 -45 -37 -88 31 -176 44 -58 93 -167 109 -243 26 -123 9 -326 -33
-407 -9 -16 -16 -35 -16 -41 0 -20 -70 -116 -124 -172 -152 -158 -437 -262
-716 -262 -241 0 -505 92 -683 238 -187 152 -299 319 -382 568 -56 169 -60
186 -79 352 -65 557 79 1041 438 1469 98 117 213 218 363 319 158 106 298 172
528 249 210 71 229 78 257 103 54 47 -68 54 -272 17z"/>
<path fill="#000000" stroke="none" d="M2549 4305 c-187 -31 -407 -120 -579
-233 -212 -140 -402 -361 -511 -597 -121 -262 -161 -528 -125 -827 32 -263
105 -411 291 -594 125 -123 257 -202 420 -251 221 -66 414 -23 567 126 68 67
85 101 74 146 -11 45 -46 57 -180 65 -241 15 -426 100 -540 249 -54 70 -72
106 -104 201 -34 100 -43 332 -17 425 9 33 22 84 30 113 31 113 143 295 243
398 157 161 366 272 581 309 332 58 636 2 961 -178 330 -182 577 -441 748
-783 118 -235 181 -552 168 -833 -16 -346 -109 -715 -260 -1033 -50 -105 -55
-128 -28 -128 48 0 221 237 325 445 154 307 206 520 214 880 4 194 2 239 -17
370 -35 233 -82 381 -195 610 -77 157 -121 225 -241 375 -248 311 -570 533
-954 659 -121 40 -290 78 -395 91 -120 13 -382 11 -476 -5z"/>
<path fill="#000000" stroke="none" d="M2795 3624 c-224 -34 -461 -150 -598
-290 -111 -115 -187 -327 -174 -484 7 -79 23 -117 67 -154 58 -49 80 -36 195
117 126 169 209 243 335 297 77 32 310 41 392 15 188 -62 377 -203 509 -381
50 -68 142 -251 158 -314 34 -139 41 -190 41 -312 0 -302 -88 -522 -307 -763
-262 -291 -586 -480 -959 -560 -397 -85 -789 -38 -1149 136 -148 72 -250 138
-380 245 -151 124 -190 167 -474 519 -119 146 -136 165 -158 165 -33 0 -10
-69 81 -246 113 -218 144 -269 244 -394 258 -322 621 -570 1012 -693 321 -100
560 -125 905 -93 560 53 1029 328 1357 796 224 321 334 773 284 1176 -84 684
-470 1131 -1052 1219 -118 18 -208 18 -329 -1z"/>
</g>
</svg>
