<?xml version="1.0" standalone="no"?>
<!DOCTYPE svg PUBLIC "-//W3C//DTD SVG 20010904//EN"
 "http://www.w3.org/TR/2001/REC-SVG-20010904/DTD/svg10.dtd">
<svg version="1.0" xmlns="http://www.w3.org/2000/svg"
 width="240.000000pt" height="243.000000pt" viewBox="0 0 240.000000 243.000000"
 preserveAspectRatio="xMidYMid meet">
<metadata>
Created by potrace 1.16, written by Peter Selinger 2001-2019
</metadata>
<g transform="translate(0.000000,243.000000) scale(0.100000,-0.100000)"
fill="#000000" stroke="none">
<path fill="#000000" stroke="none" d="M970 2364 c-133 -28 -266 -85 -380
-160 -270 -178 -450 -447 -515 -772 -14 -67 -16 -120 -12 -260 4 -153 8 -190
32 -272 57 -201 157 -372 305 -521 163 -163 330 -258 553 -313 92 -23 128 -26
266 -26 143 0 171 3 275 29 202 51 376 148 523 292 136 133 235 286 294 454
150 434 46 906 -271 1225 -167 169 -366 280 -582 325 -91 20 -397 19 -488 -1z"/>
<path fill="#ffffff" stroke="none" d="M1330 2060 c36 -6 89 -17 118 -26 45
-13 53 -18 50 -36 -3 -24 22 -12 -433 -198 -176 -72 -340 -141 -365 -154 -62
-33 -80 -71 -80 -171 0 -107 17 -141 89 -177 l54 -26 46 18 c203 83 250 105
244 111 -5 4 -30 16 -58 27 -79 31 -73 66 18 101 29 11 86 34 127 51 130 55
290 120 430 177 74 29 150 63 168 74 40 23 53 18 107 -47 146 -173 215 -358
215 -576 0 -208 -81 -419 -218 -568 l-58 -63 -57 27 -57 28 -145 -58 c-80 -33
-144 -63 -142 -68 2 -5 26 -18 54 -29 94 -35 74 -77 -47 -103 -85 -18 -312
-14 -387 7 -54 15 -78 39 -60 62 6 9 116 59 242 110 127 52 293 120 370 151
160 65 219 97 239 129 22 33 29 143 14 202 -11 43 -20 55 -62 83 -26 17 -58
32 -70 32 -13 0 -83 -25 -156 -55 -73 -30 -135 -55 -137 -55 -2 0 -3 -4 -3 -9
0 -5 23 -17 51 -27 56 -21 79 -48 57 -69 -7 -8 -62 -34 -123 -58 -60 -25 -166
-68 -235 -97 -69 -28 -170 -70 -225 -92 -55 -22 -133 -56 -173 -75 -40 -19
-79 -32 -87 -29 -22 8 -111 121 -154 194 -142 244 -156 538 -38 795 43 92 101
179 159 235 l45 43 44 -25 c24 -14 51 -26 59 -26 14 0 265 100 291 116 7 4
-10 16 -40 29 -107 45 -104 72 11 98 125 28 207 33 308 17z"/>
<path fill="#000000" stroke="none" d="M1545 1629 c-66 -27 -130 -54 -142 -59
-33 -14 -28 -25 16 -39 56 -16 86 -43 74 -65 -10 -17 -37 -30 -213 -101 -47
-19 -146 -59 -220 -90 -74 -31 -185 -76 -247 -101 -62 -26 -128 -60 -150 -79
l-38 -33 0 -105 c0 -123 11 -146 89 -185 53 -27 36 -30 219 46 65 27 117 53
116 58 -2 5 -26 18 -54 29 -35 14 -51 26 -53 41 -4 28 8 36 113 77 79 32 174
70 594 243 126 52 156 81 165 159 8 76 -5 159 -30 186 -15 17 -105 70 -116 69
-2 -1 -57 -23 -123 -51z"/>
</g>
</svg>
