<?xml version="1.0" standalone="no"?>
<!DOCTYPE svg PUBLIC "-//W3C//DTD SVG 20010904//EN"
 "http://www.w3.org/TR/2001/REC-SVG-20010904/DTD/svg10.dtd">
<svg version="1.0" xmlns="http://www.w3.org/2000/svg"
 width="837.000000pt" height="831.000000pt" viewBox="0 0 837.000000 831.000000"
 preserveAspectRatio="xMidYMid meet">
<metadata>
Created by potrace 1.16, written by Peter Selinger 2001-2019
</metadata>
<g transform="translate(0.000000,831.000000) scale(0.100000,-0.100000)"
fill="#000000" stroke="none">
<path fill="#000000" stroke="none" d="M4194 8188 c-14 -6 -27 -30 -39 -66 -9
-32 -24 -79 -32 -107 -8 -27 -21 -64 -29 -82 -8 -17 -14 -36 -14 -42 0 -6 -4
-11 -9 -11 -5 0 -12 -13 -16 -30 -4 -16 -10 -30 -15 -30 -4 0 -10 -8 -14 -17
-5 -18 -26 -53 -36 -63 -3 -3 -16 -22 -30 -42 -14 -21 -28 -38 -32 -38 -5 0
-8 -6 -8 -14 0 -8 -7 -16 -15 -20 -8 -3 -15 -11 -15 -19 0 -20 -219 -227 -241
-227 -5 0 -9 -4 -9 -8 0 -4 -18 -19 -40 -32 -22 -14 -40 -28 -40 -32 0 -5 -5
-8 -11 -8 -11 0 -92 -60 -97 -72 -2 -5 -8 -8 -13 -8 -29 0 -208 -159 -279
-249 -38 -47 -70 -81 -79 -82 -3 0 -109 -2 -236 -3 -144 -1 -243 -6 -265 -13
-36 -12 -119 -27 -245 -43 -177 -22 -502 -2 -600 39 -11 4 -47 16 -80 26 -68
21 -186 75 -197 89 -4 6 -30 10 -59 11 -49 0 -54 -2 -63 -28 -13 -34 3 -82 52
-156 37 -56 71 -140 72 -176 0 -12 4 -25 9 -30 5 -6 14 -39 21 -75 40 -233 39
-417 -5 -695 -31 -195 -38 -271 -34 -365 5 -121 2 -240 -6 -309 l-7 -53 -67 7
c-36 4 -70 11 -75 16 -6 5 -19 9 -29 9 -10 0 -31 6 -45 14 -15 8 -48 23 -74
33 -27 10 -48 21 -48 26 0 4 -5 7 -11 7 -36 0 -254 210 -265 257 -4 13 -10 23
-14 23 -5 0 -12 15 -15 33 -4 17 -11 37 -15 42 -4 6 -16 41 -25 78 -17 69 -17
90 1 309 5 67 4 79 -10 84 -20 8 -53 -19 -62 -50 -4 -11 -10 -23 -13 -26 -12
-9 -59 -112 -80 -173 -36 -104 -37 -364 -3 -434 5 -10 17 -36 27 -58 9 -22 21
-47 26 -55 5 -8 12 -22 16 -30 4 -8 9 -17 12 -20 3 -3 22 -27 41 -55 19 -27
61 -75 94 -105 32 -30 86 -81 120 -113 33 -31 68 -60 78 -63 10 -3 18 -10 18
-15 0 -5 7 -9 15 -9 20 0 20 -39 0 -59 -8 -9 -37 -43 -63 -76 -26 -33 -56 -69
-68 -80 -11 -11 -35 -39 -53 -63 -30 -39 -195 -179 -231 -196 -22 -10 -51 -28
-85 -52 -17 -11 -61 -36 -100 -54 -38 -18 -77 -36 -86 -41 -9 -4 -34 -11 -55
-15 -22 -3 -43 -10 -49 -14 -5 -4 -22 -10 -37 -14 -15 -3 -37 -20 -49 -37 -19
-27 -20 -33 -8 -56 8 -14 24 -32 36 -40 31 -20 152 -63 179 -63 12 0 25 -4 29
-9 3 -5 19 -12 35 -16 17 -4 30 -10 30 -15 0 -5 13 -11 30 -15 16 -4 30 -11
30 -16 0 -5 7 -9 15 -9 16 0 82 -38 106 -62 25 -24 137 -108 145 -108 13 0 75
-70 70 -79 -3 -5 -109 -7 -236 -6 -180 1 -234 5 -247 16 -10 8 -28 20 -40 27
-27 14 -143 16 -143 2 0 -5 -6 -10 -13 -10 -23 0 -77 -64 -77 -92 0 -42 57
-96 117 -108 52 -11 134 0 160 22 19 15 575 16 581 0 2 -7 10 -12 17 -12 7 0
28 -19 46 -42 19 -24 36 -45 39 -48 7 -7 29 -42 37 -60 4 -8 17 -32 30 -53 13
-21 23 -43 21 -49 -3 -7 -121 -12 -348 -15 -190 -2 -355 -6 -368 -9 -12 -2
-22 -10 -22 -17 0 -15 46 -37 79 -37 50 0 72 -13 91 -51 19 -36 20 -62 20
-545 l0 -507 -25 -32 c-23 -31 -36 -37 -115 -53 -21 -5 -35 -13 -35 -22 0 -13
46 -15 330 -18 312 -2 390 2 495 27 74 18 150 45 150 53 0 4 8 8 18 8 10 0 28
7 40 16 42 29 52 13 52 -78 0 -93 -18 -237 -33 -255 -5 -7 -28 -13 -51 -13
-43 0 -113 -14 -124 -24 -3 -4 0 -12 6 -18 8 -8 12 -53 12 -134 0 -130 -1
-134 -53 -134 -25 0 -117 95 -117 121 0 9 11 24 24 35 51 38 35 109 -28 132
-38 14 -232 16 -241 3 -3 -5 2 -16 10 -24 19 -19 21 -194 3 -244 -6 -18 -9
-36 -5 -40 12 -11 128 -16 138 -6 6 6 4 21 -8 41 -14 25 -15 34 -5 44 10 10
17 7 37 -14 14 -15 25 -30 25 -33 0 -19 33 -33 95 -39 71 -7 105 -27 105 -62
0 -8 5 -14 10 -14 6 0 10 -6 10 -13 0 -26 36 -47 77 -47 36 0 98 23 113 41 3
4 15 9 26 13 12 4 33 17 46 29 39 36 101 52 147 39 52 -16 76 -15 114 4 59 30
87 64 87 106 0 24 -5 38 -13 38 -31 0 -43 98 -21 172 4 14 -7 17 -71 23 -42 4
-93 5 -115 1 l-39 -6 5 52 c3 29 10 72 15 96 5 24 7 48 3 54 -7 10 -25 242
-26 323 -1 55 11 122 29 170 11 29 15 77 15 180 -1 132 -4 159 -33 263 -6 23
-9 45 -6 49 4 3 30 -6 59 -20 68 -33 80 -38 153 -54 97 -23 119 -24 137 -10
20 16 31 57 21 73 -11 16 -116 62 -193 86 -98 29 -146 54 -170 88 -19 26 -20
35 -11 62 6 17 11 44 11 59 0 16 5 29 10 29 6 0 10 7 10 16 0 19 41 104 50
104 3 0 21 30 40 66 19 37 51 85 71 108 l37 41 462 0 c254 0 467 -3 472 -6 12
-8 22 -503 12 -581 -7 -54 -26 -71 -91 -81 -35 -6 -45 -4 -62 14 -27 29 -112
206 -126 262 -4 15 -11 27 -16 27 -5 0 -9 5 -9 11 0 27 -33 79 -51 79 -17 0
-59 -66 -59 -93 0 -5 -13 -38 -30 -74 -16 -35 -30 -68 -30 -72 0 -4 -25 -56
-55 -116 -30 -59 -55 -112 -55 -118 0 -6 -9 -29 -19 -51 -64 -136 -111 -241
-129 -286 -5 -14 -31 -70 -57 -125 -26 -55 -55 -116 -64 -135 -9 -19 -19 -37
-22 -40 -4 -3 -9 -14 -13 -26 -10 -31 -86 -107 -129 -128 -72 -34 -44 -41 177
-44 188 -2 207 -1 204 14 -2 9 -23 24 -47 34 -70 27 -106 83 -82 128 6 9 20
46 31 82 32 98 30 96 190 105 76 4 172 4 213 0 84 -8 77 -1 136 -147 48 -119
42 -143 -41 -168 -63 -19 -76 -44 -28 -55 17 -4 74 -4 126 0 96 7 153 -3 155
-29 0 -6 4 -42 10 -81 18 -132 24 -119 -59 -127 -92 -9 -106 -22 -92 -80 5
-24 10 -82 10 -129 0 -99 4 -105 87 -135 51 -17 55 -17 123 0 67 18 120 16
120 -4 0 -6 6 -10 13 -10 14 0 127 -112 127 -127 0 -21 301 -277 343 -292 6
-2 20 -13 32 -24 11 -10 27 -22 36 -25 45 -19 192 -156 276 -257 85 -102 93
-113 93 -123 0 -6 3 -12 8 -14 17 -7 113 -200 136 -273 44 -144 57 -165 100
-165 36 0 72 52 110 162 18 51 38 106 45 121 6 16 11 32 11 37 0 5 3 10 8 12
4 1 16 21 27 43 23 46 93 147 130 188 14 15 25 30 25 33 0 5 113 117 151 149
60 51 189 145 198 145 6 0 11 5 11 10 0 6 6 10 13 10 7 0 27 13 44 29 18 16
54 44 80 63 26 18 50 36 51 41 2 4 8 7 14 7 5 0 16 7 24 15 8 8 23 20 32 27
10 7 40 42 67 78 27 36 59 73 72 83 13 10 30 25 37 33 10 9 38 14 86 14 39 0
80 4 90 10 10 5 33 10 52 10 18 0 159 1 313 1 154 0 290 3 303 6 24 6 31 33 7
33 -16 0 -31 60 -21 85 8 23 44 18 57 -7 32 -60 59 -38 59 48 0 48 3 64 14 64
20 0 35 50 23 78 -10 21 -15 22 -132 22 -100 0 -125 -3 -136 -16 -10 -12 -10
-20 -1 -35 7 -11 12 -57 12 -111 0 -76 -4 -98 -19 -118 -16 -20 -23 -22 -43
-13 -13 6 -28 21 -34 34 -6 13 -25 54 -43 90 -17 36 -31 70 -31 76 0 6 -3 13
-7 15 -5 1 -16 19 -27 40 -21 43 -52 54 -79 30 -22 -20 -107 -195 -107 -220 0
-21 -34 -22 -55 -2 -28 27 -57 25 -104 -5 -25 -17 -44 -23 -57 -19 -22 8 -54
39 -54 53 0 5 -5 11 -11 13 -5 2 -13 22 -16 46 -5 34 -3 42 11 42 9 0 16 4 16
8 0 8 58 32 78 32 7 0 29 -16 51 -35 42 -38 89 -49 76 -18 -4 10 -10 32 -13
48 -5 32 -45 75 -70 75 -10 0 -13 8 -9 32 10 60 50 193 61 201 6 5 94 5 196 2
102 -4 223 -6 270 -5 233 6 581 4 627 -4 49 -8 53 -11 57 -40 22 -144 33 -189
72 -281 48 -115 41 -150 -23 -122 -21 9 -64 19 -95 22 -81 9 -85 28 -24 110
15 20 -3 65 -28 75 -27 10 -237 7 -255 -4 -16 -10 -14 -36 4 -42 22 -9 21
-195 -1 -229 -14 -21 -14 -28 -3 -41 11 -13 37 -15 173 -13 155 3 209 -4 256
-32 8 -5 22 -12 30 -16 8 -4 42 -23 75 -42 112 -67 112 -67 143 -44 46 34 42
111 -10 182 -10 13 -18 32 -18 42 0 16 8 19 48 19 65 0 177 -18 229 -35 59
-20 96 -19 147 5 47 21 76 57 76 92 -1 26 -22 58 -39 58 -6 0 -11 3 -11 8 0 4
-23 15 -51 25 -48 17 -52 17 -97 1 -26 -10 -50 -23 -54 -28 -4 -7 -62 -12
-140 -14 -157 -4 -171 2 -189 83 -14 66 -30 235 -24 260 3 14 19 25 52 34 65
19 129 48 156 71 12 10 31 27 43 37 36 31 84 105 84 129 0 13 5 26 10 29 15 9
12 104 -6 154 -22 64 -33 81 -78 127 -46 45 -78 65 -148 90 -27 9 -48 20 -48
24 0 11 44 38 74 46 33 8 109 84 132 132 23 47 22 149 -1 212 -29 76 -30 104
-3 142 12 18 26 35 31 36 4 2 7 10 7 18 0 8 4 14 9 14 5 0 12 8 15 18 3 10 24
37 45 60 56 60 101 118 101 131 0 6 5 11 10 11 6 0 10 5 10 11 0 6 24 38 54
70 30 32 58 69 62 81 8 25 107 127 170 173 21 17 41 33 44 36 28 36 235 159
268 159 7 0 12 4 12 9 0 5 18 11 40 15 23 3 49 10 58 15 9 5 38 17 64 26 50
17 88 55 88 86 0 24 -46 69 -70 69 -10 0 -22 4 -25 10 -3 6 -17 10 -30 10 -38
0 -185 58 -185 73 0 4 -5 7 -11 7 -6 0 -45 20 -86 45 -40 25 -78 45 -83 45 -4
0 -10 3 -12 8 -1 4 -30 30 -63 57 -88 73 -197 184 -223 228 -13 20 -27 37 -30
37 -4 0 -13 13 -20 29 -7 16 -22 39 -33 52 -11 13 -40 53 -64 89 -24 36 -53
75 -64 87 -12 12 -21 26 -21 31 0 7 -157 159 -229 221 -20 18 -23 25 -13 44
34 70 47 145 47 267 0 112 -3 133 -28 204 -25 69 -50 120 -67 136 -50 48 -71
256 -47 460 31 261 37 305 46 325 4 11 16 37 25 58 9 21 16 44 16 52 0 8 4 15
9 15 5 0 12 14 16 30 4 17 10 30 14 30 11 0 51 84 51 106 0 10 -3 29 -6 42
-10 36 -63 29 -171 -23 -51 -25 -99 -45 -107 -45 -7 0 -30 -7 -49 -15 -20 -8
-48 -15 -62 -15 -14 0 -25 -4 -25 -8 0 -9 -85 -26 -215 -43 -90 -12 -411 -5
-428 9 -7 5 -22 13 -34 16 -32 10 -30 -9 12 -91 52 -101 71 -108 290 -106 94
0 199 6 235 12 36 7 90 16 120 20 30 4 68 13 83 19 35 15 77 15 77 1 0 -6 -6
-20 -12 -32 -32 -57 -40 -117 -45 -354 -5 -227 -6 -243 -24 -243 -10 0 -21 5
-24 11 -4 5 -17 14 -28 20 -23 9 -58 30 -67 39 -3 3 -21 13 -40 24 -19 10 -60
32 -90 49 -30 17 -77 41 -105 55 -27 13 -63 30 -78 38 -16 8 -34 14 -40 14 -9
0 -71 27 -166 73 -36 18 -38 38 -6 63 17 13 26 28 22 37 -5 14 -61 47 -79 47
-8 0 -231 104 -280 131 -10 5 -27 9 -37 9 -11 0 -23 6 -28 13 -11 17 -25 -63
-26 -148 0 -90 14 -146 47 -189 14 -19 26 -37 26 -39 0 -3 20 -27 45 -54 41
-44 58 -83 36 -83 -4 0 -39 20 -77 45 -37 25 -74 45 -80 45 -7 0 -14 3 -16 8
-1 4 -29 20 -61 37 -32 16 -61 33 -63 37 -3 4 7 23 21 42 26 35 26 35 8 60
-10 14 -27 28 -38 32 -10 4 -25 13 -33 20 -7 8 -23 14 -36 14 -12 0 -26 4 -31
9 -6 4 -41 16 -80 26 -38 10 -74 22 -79 27 -6 4 -22 8 -38 8 -34 0 -58 -41
-58 -100 0 -45 -22 -125 -48 -178 -17 -33 -49 -70 -161 -187 -31 -33 -68 -76
-81 -95 -14 -19 -33 -43 -43 -55 -24 -26 -57 -90 -57 -110 0 -8 -4 -15 -10
-15 -5 0 -12 -17 -16 -37 -4 -21 -11 -43 -16 -50 -11 -14 -6 -200 6 -225 14
-29 -28 -22 -44 7 -7 14 -17 25 -20 25 -4 0 -28 25 -54 56 l-46 56 0 101 c0
90 -3 105 -26 145 -14 24 -44 62 -66 84 -37 37 -39 42 -28 64 7 13 50 58 94
100 45 43 122 116 171 164 50 48 124 112 165 143 70 51 243 147 268 147 6 0
12 3 14 8 6 15 71 42 100 42 16 0 36 -7 44 -15 9 -8 29 -15 45 -15 16 0 29 -4
29 -10 0 -5 8 -10 18 -10 21 0 56 -27 65 -50 4 -12 6 -11 6 3 1 9 6 17 11 17
6 0 10 7 10 15 0 8 6 15 13 15 15 0 42 23 77 68 14 18 30 32 35 32 6 0 11 20
11 43 1 24 10 57 20 73 32 50 97 114 115 114 10 0 20 4 24 9 3 5 19 12 36 16
32 7 51 17 109 53 19 12 67 31 105 42 39 12 78 25 87 31 10 5 23 9 29 9 6 0
25 6 42 14 18 7 52 21 77 31 25 9 53 21 62 26 10 5 22 9 28 9 5 0 40 14 77 31
38 16 84 37 103 46 19 8 54 28 78 44 24 16 45 29 48 29 11 0 59 57 77 89 22
41 24 131 2 131 -8 0 -28 -13 -45 -30 -17 -16 -35 -30 -40 -30 -6 0 -10 -4
-10 -9 0 -9 -113 -81 -128 -81 -6 0 -12 -4 -14 -8 -1 -4 -39 -23 -83 -41 -44
-18 -94 -40 -112 -47 -17 -8 -36 -14 -42 -14 -6 0 -19 -4 -29 -10 -9 -5 -44
-19 -77 -30 -140 -47 -226 -78 -232 -84 -3 -3 -13 -6 -21 -6 -20 0 -202 -91
-202 -101 0 -5 -5 -9 -11 -9 -20 0 -88 -60 -139 -125 -28 -35 -60 -67 -71 -70
-39 -13 -145 6 -170 30 -34 32 -79 84 -79 91 0 16 -193 190 -231 208 -10 5
-19 13 -19 18 0 4 -4 8 -10 8 -9 0 -100 62 -155 106 -11 9 -38 28 -60 42 -21
15 -51 38 -66 52 -88 82 -107 101 -134 135 -63 80 -80 100 -87 103 -5 2 -8 9
-8 15 -1 7 -14 28 -30 47 -17 19 -30 40 -30 47 0 7 -4 13 -9 13 -5 0 -12 11
-15 25 -4 14 -10 25 -15 25 -5 0 -12 14 -16 30 -4 17 -11 30 -16 30 -5 0 -9 8
-9 17 0 10 -6 35 -14 58 -8 22 -22 67 -32 100 -11 40 -27 69 -47 88 -33 29
-41 31 -73 15z"/>
<path fill="#ffffff" stroke="none" d="M4250 7786 c0 -8 4 -16 8 -18 4 -1 26
-32 47 -68 21 -36 43 -66 47 -68 4 -2 8 -10 8 -18 0 -8 4 -14 8 -14 5 0 14
-10 19 -22 31 -66 297 -330 364 -362 11 -5 19 -13 19 -18 0 -4 4 -8 9 -8 9 0
126 -75 176 -112 17 -13 72 -63 123 -113 120 -118 122 -131 19 -179 -40 -19
-85 -38 -100 -41 -15 -4 -27 -11 -27 -16 0 -5 -6 -9 -13 -9 -8 0 -39 -18 -71
-40 -31 -22 -63 -40 -71 -40 -8 0 -15 -6 -15 -12 -1 -7 -17 -25 -38 -41 -95
-70 -153 -121 -203 -177 -30 -33 -96 -103 -147 -156 -51 -52 -99 -105 -107
-117 -20 -31 -79 -61 -107 -54 -30 8 -74 49 -126 118 -46 61 -48 65 -29 82 19
19 140 77 160 77 9 0 17 4 17 9 0 5 12 12 27 16 15 3 30 10 33 13 6 9 53 31
155 73 44 18 97 43 117 56 21 13 40 23 43 23 3 0 41 20 85 45 44 25 88 45 100
45 13 0 20 7 20 20 0 11 7 23 15 26 8 4 15 10 15 15 0 5 11 27 25 49 30 48 31
61 5 85 -19 17 -21 17 -63 -3 -24 -11 -64 -40 -89 -65 -25 -24 -65 -54 -89
-66 -24 -12 -60 -31 -79 -43 -19 -11 -57 -29 -85 -39 -27 -11 -59 -23 -70 -28
-27 -11 -71 -26 -200 -68 -106 -35 -164 -56 -195 -71 -8 -5 -41 -17 -73 -27
l-59 -20 -29 33 c-16 17 -33 32 -39 32 -5 0 -10 4 -10 8 0 15 -167 174 -206
196 -21 11 -41 24 -44 27 -3 3 -27 16 -55 30 -27 13 -52 26 -55 29 -11 11 -73
40 -86 40 -20 0 -54 32 -54 51 0 27 166 189 250 244 41 28 77 53 80 56 3 4 30
21 60 40 116 70 378 339 465 477 6 9 15 21 20 28 6 6 22 32 37 58 26 44 58 62
58 32z"/>
<path fill="#ffffff" stroke="none" d="M2903 6720 c59 0 65 -12 42 -83 -18
-52 -20 -62 -50 -192 -45 -201 -46 -215 -52 -582 -5 -325 -7 -363 -22 -364 -9
0 -117 0 -241 1 -225 1 -586 -22 -625 -40 -11 -5 -42 -14 -70 -19 -119 -24
-148 -32 -199 -57 -30 -15 -61 -24 -69 -21 -21 8 -32 170 -18 267 11 78 34
223 45 275 3 17 13 91 21 167 13 108 14 156 6 230 -5 51 -13 145 -16 208 -4
63 -10 120 -15 125 -13 17 -22 73 -12 79 5 3 24 0 43 -6 19 -6 66 -14 104 -18
39 -5 104 -13 145 -19 91 -12 301 -13 390 -1 36 5 100 13 143 19 42 5 82 13
88 16 17 11 181 24 249 19 36 -2 87 -4 113 -4z"/>
<path fill="#ffffff" stroke="none" d="M3218 6669 c48 -11 142 -54 197 -89 17
-11 37 -23 45 -27 8 -3 40 -22 70 -42 30 -19 69 -43 86 -52 44 -24 124 -99
124 -116 0 -7 -15 -28 -33 -47 -41 -41 -107 -137 -131 -192 -21 -49 -24 -113
-4 -125 19 -13 60 -1 78 24 23 33 100 106 156 148 68 52 95 51 148 -4 22 -23
46 -50 51 -59 6 -10 27 -42 48 -72 44 -62 43 -76 -6 -127 -18 -19 -43 -49 -55
-67 -13 -17 -39 -48 -58 -68 -19 -20 -34 -40 -34 -43 0 -8 -111 -88 -147 -108
-65 -34 -143 -73 -183 -91 -25 -11 -79 -36 -121 -56 -42 -20 -83 -36 -90 -36
-8 0 -24 -6 -35 -14 -11 -8 -45 -17 -77 -21 -54 -7 -60 -5 -110 27 -28 19 -65
41 -82 50 -53 29 -55 39 -54 348 0 345 17 561 48 635 14 35 33 89 38 113 3 12
9 22 14 22 5 0 9 6 9 13 0 13 47 87 56 87 3 0 26 -5 52 -11z"/>
<path fill="#ffffff" stroke="none" d="M5299 6089 c26 -21 80 -89 81 -102 0
-5 6 -23 14 -40 8 -18 22 -56 31 -84 16 -50 15 -54 -1 -83 -10 -16 -21 -30
-24 -30 -3 0 -25 -18 -50 -40 -25 -22 -53 -42 -62 -46 -10 -3 -18 -10 -18 -15
0 -5 -5 -9 -11 -9 -6 0 -25 -11 -43 -25 -54 -41 -76 -34 -162 53 -43 43 -84
131 -84 180 0 53 29 108 87 163 107 104 179 127 242 78z"/>
<path fill="#ffffff" stroke="none" d="M6102 6042 c4 -9 90 -62 143 -88 22
-10 42 -22 45 -25 3 -4 16 -10 30 -14 14 -4 27 -10 30 -14 3 -3 36 -22 75 -41
71 -36 166 -90 175 -100 3 -3 25 -15 50 -28 49 -25 82 -44 90 -52 3 -3 25 -18
50 -34 60 -39 110 -91 110 -114 0 -24 -75 -100 -125 -126 -32 -18 -40 -18 -68
-7 -18 7 -52 17 -77 22 -25 4 -81 15 -125 23 -44 8 -109 21 -145 28 l-65 13
-7 60 c-9 80 -26 175 -37 200 -34 80 -46 102 -82 152 -23 30 -59 73 -80 94
-22 22 -39 44 -39 49 0 12 47 14 52 2z"/>
<path fill="#ffffff" stroke="none" d="M5702 5843 c18 -10 35 -21 38 -25 3 -3
18 -10 33 -13 15 -4 27 -11 27 -15 0 -4 8 -10 18 -14 38 -13 91 -55 164 -132
87 -91 121 -143 122 -183 1 -35 1 -35 -64 -53 -62 -18 -71 -18 -212 -1 -82 9
-148 20 -148 25 0 4 -6 8 -14 8 -8 0 -21 6 -28 14 -8 7 -24 17 -36 20 -44 14
-42 65 11 241 8 28 21 71 28 98 7 26 17 47 20 47 4 0 22 -8 41 -17z"/>
<path fill="#ffffff" stroke="none" d="M4306 5783 c22 -26 68 -77 104 -113
106 -107 150 -163 140 -176 -6 -6 -44 -14 -86 -18 -43 -3 -83 -11 -90 -16 -14
-13 -171 -25 -205 -17 -18 5 -29 19 -41 55 -10 28 -18 59 -18 70 0 11 -7 36
-15 55 -26 62 -20 82 38 137 28 27 57 54 62 59 6 6 24 10 41 11 26 0 39 -9 70
-47z"/>
<path fill="#ffffff" stroke="none" d="M3120 5330 c0 -12 -7 -20 -16 -20 -9 0
-30 -7 -47 -16 -18 -10 -44 -23 -59 -30 -14 -8 -42 -14 -62 -14 -20 0 -44 -4
-54 -9 -28 -15 -187 -71 -201 -71 -15 0 -107 -28 -132 -40 -9 -5 -41 -11 -73
-15 -31 -4 -59 -11 -62 -16 -3 -5 -21 -9 -40 -9 -20 0 -63 -7 -97 -15 -175
-41 -456 -52 -567 -23 l-55 15 -3 48 c-2 36 1 50 15 61 22 18 98 54 112 54 6
0 11 5 11 10 0 6 7 10 16 10 9 0 30 6 47 14 144 64 203 71 592 70 343 -1 351
-1 403 -24 55 -24 57 -24 126 12 18 9 89 24 129 27 11 1 17 -6 17 -19z"/>
<path fill="#ffffff" stroke="none" d="M6420 5320 c8 -4 47 -11 86 -15 92 -9
107 -19 74 -46 -74 -60 -92 -74 -127 -89 -13 -5 -23 -14 -23 -20 0 -5 -5 -10
-10 -10 -6 0 -21 -9 -33 -21 -31 -29 -214 -151 -247 -164 -8 -4 -22 -10 -30
-15 -64 -37 -324 -160 -340 -160 -5 0 -18 -4 -28 -9 -48 -26 -88 -41 -110 -41
l-25 0 5 175 c2 96 7 178 11 181 4 4 31 2 60 -5 28 -7 118 -15 199 -18 127 -5
155 -3 195 12 65 25 150 112 159 162 4 21 13 53 21 72 l14 33 67 -7 c37 -4 74
-11 82 -15z"/>
<path fill="#ffffff" stroke="none" d="M4700 5320 c0 -31 -177 -65 -342 -65
-117 0 -129 2 -149 22 -13 12 -19 28 -16 37 6 14 38 16 257 16 158 0 250 -4
250 -10z"/>
<path fill="#ffffff" stroke="none" d="M3894 5278 c3 -13 10 -49 16 -81 7 -32
18 -70 26 -85 8 -15 14 -33 14 -39 0 -7 4 -13 9 -13 5 0 12 -12 15 -26 9 -35
72 -101 116 -122 28 -14 65 -17 191 -17 93 0 166 4 180 11 13 6 51 19 84 29
33 10 64 22 69 27 6 4 16 8 24 8 14 0 47 13 128 51 23 10 46 19 53 19 6 0 11
5 11 10 0 6 7 10 15 10 18 0 89 32 93 43 2 4 20 7 40 7 21 0 51 9 67 20 51 34
65 27 65 -27 -1 -27 -7 -66 -15 -88 -8 -22 -15 -56 -15 -75 0 -19 -7 -62 -15
-95 -21 -85 -20 -309 1 -372 41 -120 137 -189 315 -223 45 -9 58 -16 64 -33 4
-12 9 -111 12 -220 5 -166 3 -211 -12 -272 l-17 -73 -61 -6 c-46 -5 -827 -18
-969 -16 -14 0 -18 -8 -18 -39 0 -22 4 -42 8 -45 5 -3 208 -6 453 -6 244 -1
454 -4 467 -7 12 -3 22 -12 22 -20 0 -27 -233 -273 -516 -544 l-90 -86 -114
-6 c-78 -5 -116 -3 -121 4 -13 22 -19 138 -9 187 14 64 37 84 102 90 56 5 78
16 78 38 0 24 -44 28 -275 26 -300 -3 -405 -10 -405 -28 0 -8 9 -14 20 -14 36
0 129 -34 135 -49 20 -52 23 -121 13 -293 l-12 -188 -120 -1 c-126 -2 -205 1
-234 6 -9 2 -20 4 -24 4 -5 1 -8 8 -8 16 0 14 11 15 75 9 64 -6 75 -4 81 10 4
10 18 16 36 16 51 0 21 17 -42 24 -33 4 -60 10 -60 14 0 4 -13 12 -28 18 -16
6 -41 28 -57 48 -27 35 -28 44 -33 161 l-5 124 31 30 c17 17 40 31 53 31 37 0
99 23 99 36 0 20 -23 22 -275 29 -170 5 -235 10 -250 20 -31 21 -95 83 -95 92
0 10 -106 111 -143 137 -28 20 -36 45 -14 47 6 1 27 0 45 -1 52 -3 90 17 97
52 11 48 -9 59 -126 70 -75 7 -106 14 -115 25 -17 25 -21 130 -20 548 1 358 2
382 20 410 11 17 69 82 130 146 61 63 134 140 161 170 28 30 79 77 115 104 36
27 67 52 70 55 4 4 49 28 181 95 10 5 19 13 19 17 0 5 5 8 11 8 15 0 110 45
134 64 28 22 44 20 49 -6z"/>
<path fill="#ffffff" stroke="none" d="M5370 5147 c75 -37 80 -49 87 -191 3
-65 1 -91 -8 -97 -14 -8 -69 16 -69 30 0 19 -66 110 -85 117 -36 13 -47 34
-53 100 -7 96 6 101 128 41z"/>
<path fill="#ffffff" stroke="none" d="M7029 5003 c81 -56 142 -108 154 -133
11 -24 30 -52 55 -79 12 -14 22 -29 22 -33 0 -3 6 -13 13 -20 6 -7 21 -30 32
-50 11 -21 23 -38 27 -38 5 0 8 -5 8 -11 0 -37 341 -379 379 -379 5 0 11 -4
13 -8 2 -4 43 -34 91 -66 49 -31 91 -64 94 -71 6 -17 -9 -33 -62 -65 -22 -13
-42 -26 -45 -29 -3 -4 -13 -10 -22 -16 -66 -39 -144 -101 -211 -167 -43 -43
-81 -78 -83 -78 -3 0 -16 -11 -28 -25 -17 -19 -38 -27 -75 -32 -28 -3 -54 -10
-57 -14 -3 -5 -12 -9 -20 -9 -8 0 -27 -9 -43 -21 -26 -19 -44 -21 -232 -24
-219 -4 -374 8 -396 31 -8 8 -19 14 -25 14 -6 0 -38 28 -72 63 -73 76 -211
222 -247 263 -14 16 -42 43 -62 61 -21 17 -37 36 -37 42 0 5 75 83 167 173 92
90 185 181 208 203 22 22 61 64 85 94 25 29 50 59 55 65 21 23 85 123 116 181
17 33 47 88 65 122 19 34 34 69 34 78 0 26 41 17 99 -22z"/>
<path fill="#ffffff" stroke="none" d="M6660 4851 c0 -11 -15 -35 -32 -54 -18
-19 -52 -57 -74 -83 -51 -60 -474 -484 -483 -484 -4 0 -30 32 -59 70 -29 39
-57 70 -63 70 -12 0 -39 25 -39 37 0 4 48 37 108 72 59 36 109 68 112 71 3 4
15 10 28 14 12 4 22 12 22 17 0 5 4 9 10 9 16 0 160 91 160 101 0 5 6 9 13 9
6 0 50 25 96 55 46 30 86 55 88 55 2 0 24 13 51 30 56 35 62 36 62 11z"/>
<path fill="#ffffff" stroke="none" d="M2914 4841 c3 -4 -6 -19 -20 -32 -29
-27 -54 -70 -54 -94 0 -35 -94 -141 -186 -211 -40 -30 -79 -66 -89 -80 -27
-42 -168 -174 -186 -174 -9 0 -27 10 -40 21 -13 12 -49 40 -79 62 -30 22 -58
46 -62 53 -29 47 -91 106 -153 146 -153 98 -211 110 -267 56 -43 -42 -98 -122
-98 -142 0 -8 -4 -18 -10 -21 -18 -11 -10 -68 14 -100 13 -17 64 -58 113 -89
48 -32 107 -71 131 -87 23 -16 51 -29 61 -29 11 0 34 19 53 42 50 65 87 98
107 98 11 0 35 -27 64 -72 26 -39 47 -75 47 -80 0 -13 -34 -48 -47 -48 -7 0
-13 -3 -13 -8 0 -4 -15 -15 -32 -25 -18 -10 -44 -36 -58 -58 -14 -22 -61 -78
-105 -123 -44 -45 -91 -95 -105 -112 -14 -16 -41 -42 -59 -58 l-34 -29 -356
-1 -356 -1 -53 38 c-28 22 -52 42 -52 46 0 11 -91 103 -140 141 -25 19 -52 42
-61 50 -53 49 -135 108 -185 134 -32 17 -60 38 -62 46 -1 9 12 24 30 35 33 19
142 95 165 115 7 5 17 10 23 10 5 0 10 4 10 9 0 5 8 12 18 16 11 3 48 33 83
66 35 33 81 76 102 96 37 34 127 146 127 157 0 3 21 39 46 81 51 85 60 88 158
61 100 -28 152 -39 211 -47 33 -4 92 -12 130 -18 197 -30 510 4 840 89 213 55
239 62 290 69 72 12 133 12 139 2z"/>
<path fill="#ffffff" stroke="none" d="M5353 4774 c5 -27 15 -43 30 -49 31
-14 35 -51 5 -59 -36 -9 -46 -7 -66 14 -19 21 -38 122 -27 140 3 5 16 5 28 1
15 -6 24 -20 30 -47z"/>
<path fill="#ffffff" stroke="none" d="M2840 4168 c0 -139 3 -283 7 -320 6
-65 5 -68 -16 -68 -11 0 -21 4 -21 8 0 8 -30 41 -164 182 -24 25 -64 62 -90
84 -25 21 -46 45 -46 54 0 18 98 122 115 122 14 0 69 53 115 109 102 125 100
127 100 -171z"/>
<path fill="#ffffff" stroke="none" d="M5763 4289 c12 -11 36 -26 52 -33 27
-12 55 -39 123 -120 l23 -27 -33 -31 c-18 -17 -53 -47 -78 -67 -52 -42 -152
-143 -196 -197 -16 -21 -35 -35 -41 -31 -7 4 -9 79 -6 229 4 245 4 246 69 270
19 7 34 16 34 20 0 15 31 8 53 -13z"/>
<path fill="#ffffff" stroke="none" d="M2530 3842 c75 -77 151 -147 168 -158
18 -10 32 -23 32 -29 0 -12 -674 -14 -686 -2 -3 3 31 44 77 90 46 46 98 99
114 118 17 19 46 43 65 53 19 11 43 30 53 43 10 13 23 23 29 23 6 0 73 -62
148 -138z"/>
<path fill="#ffffff" stroke="none" d="M6102 3972 c2 -4 23 -23 48 -41 51 -39
137 -128 145 -151 3 -8 30 -35 60 -59 88 -70 74 -83 -76 -70 -52 4 -126 5
-166 2 -44 -4 -96 -1 -134 7 -40 9 -63 10 -67 3 -9 -13 -144 -24 -163 -13 -11
7 -2 20 41 57 30 26 87 80 126 118 152 149 176 169 186 147z"/>
<path fill="#ffffff" stroke="none" d="M7144 3523 l68 -16 -5 -52 c-3 -29 -10
-61 -15 -71 -5 -11 -17 -36 -27 -56 -10 -21 -37 -56 -61 -78 -38 -36 -48 -40
-93 -40 -46 0 -55 4 -90 39 -38 38 -48 55 -86 151 -10 25 -30 57 -43 72 -13
14 -21 31 -18 37 4 6 39 11 79 12 40 0 92 4 117 8 71 13 100 12 174 -6z"/>
<path fill="#ffffff" stroke="none" d="M6590 3462 c59 -61 67 -72 101 -142 13
-25 29 -49 36 -53 7 -4 13 -15 13 -22 0 -12 -24 -15 -132 -17 -486 -5 -498 -6
-498 -32 0 -16 35 -33 85 -41 51 -8 69 -22 83 -64 14 -40 16 -180 3 -200 -13
-21 -670 -24 -678 -4 -7 17 13 531 22 590 l7 43 392 3 c539 4 499 9 566 -61z"/>
<path fill="#ffffff" stroke="none" d="M1677 3505 c3 -9 -2 -24 -11 -34 -10
-11 -50 -84 -89 -163 -57 -114 -77 -144 -94 -146 -13 -2 -23 1 -23 7 0 6 -7
11 -15 11 -8 0 -15 4 -15 9 0 5 -8 12 -17 15 -46 15 -153 141 -153 180 0 9 -4
16 -10 16 -5 0 -10 10 -10 23 0 12 -7 33 -16 46 -9 13 -13 26 -8 31 10 10 98
15 312 18 120 2 144 0 149 -13z"/>
<path fill="#ffffff" stroke="none" d="M3059 3322 c19 -26 55 -63 80 -82 25
-19 54 -46 66 -58 24 -28 77 -52 114 -52 15 0 37 -7 49 -16 21 -14 22 -23 22
-131 l0 -115 -182 7 c-101 4 -187 11 -193 16 -9 9 -17 455 -8 472 8 14 18 6
52 -41z"/>
<path fill="#ffffff" stroke="none" d="M5471 3255 c4 -50 10 -100 14 -112 5
-17 3 -23 -7 -23 -18 0 -38 20 -38 38 0 8 -7 29 -16 48 -27 56 -49 45 -90 -43
-48 -105 -68 -147 -74 -153 -10 -10 -40 -76 -46 -102 -3 -15 -13 -30 -22 -32
-23 -7 -211 -1 -219 7 -3 4 7 17 23 29 46 35 274 269 274 282 0 10 34 46 45
46 5 1 35 25 65 55 30 31 62 54 70 52 11 -2 17 -24 21 -92z"/>
<path fill="#ffffff" stroke="none" d="M1135 3100 c44 -19 135 -104 135 -126
0 -8 4 -14 8 -14 8 0 21 -29 54 -125 19 -53 21 -84 22 -270 1 -218 -2 -238
-51 -352 -7 -17 -13 -36 -13 -42 0 -6 -4 -11 -10 -11 -5 0 -10 -6 -10 -14 0
-28 -65 -85 -120 -106 -64 -23 -191 -28 -208 -7 -16 20 -22 145 -27 621 -4
342 -3 451 6 463 16 19 157 8 214 -17z"/>
<path fill="#ffffff" stroke="none" d="M6655 3110 c3 -5 22 -10 40 -10 53 0
128 -29 152 -58 21 -25 23 -37 23 -143 0 -122 -14 -175 -49 -185 -9 -3 -29
-11 -46 -19 -43 -20 -91 -28 -123 -20 l-29 6 -1 122 c-1 67 -6 138 -12 157
-11 39 -14 143 -3 153 10 10 41 8 48 -3z"/>
<path fill="#ffffff" stroke="none" d="M5135 2723 c-4 -21 -10 -40 -13 -43
-11 -8 -72 -135 -72 -151 -1 -8 -14 -39 -30 -69 -17 -30 -30 -61 -30 -67 0 -7
-4 -13 -10 -13 -5 0 -10 -7 -10 -14 0 -8 -18 -50 -40 -92 -22 -43 -40 -81 -40
-86 0 -11 -35 -84 -53 -112 -18 -28 -42 -52 -71 -71 -35 -23 -136 -24 -170 -2
-14 10 -33 17 -43 17 -10 0 -28 8 -41 18 -23 18 -24 19 -20 224 4 239 -3 222
117 295 42 25 100 69 129 98 50 51 55 53 141 69 49 9 111 16 137 17 27 1 60 5
74 9 48 16 53 13 45 -27z"/>
<path fill="#ffffff" stroke="none" d="M2388 2728 c7 -7 12 -18 12 -25 0 -7
10 -30 23 -51 13 -20 33 -62 46 -92 24 -60 38 -93 54 -127 22 -49 10 -53 -163
-53 -96 0 -160 4 -160 10 0 14 47 135 71 182 94 185 91 182 117 156z"/>
<path fill="#ffffff" stroke="none" d="M2832 2723 c16 -18 38 -124 38 -182 0
-25 -4 -32 -16 -29 -21 4 -83 115 -99 179 l-13 49 37 0 c24 0 44 -7 53 -17z"/>
<path fill="#ffffff" stroke="none" d="M3393 2571 c3 -93 3 -249 0 -347 -5
-162 -7 -181 -26 -202 -32 -35 -75 -52 -132 -52 -107 0 -181 59 -215 171 -21
66 -23 94 -24 310 -1 181 2 241 12 251 18 18 146 35 273 37 l106 1 6 -169z"/>
<path fill="#ffffff" stroke="none" d="M5282 2723 c10 -9 18 -22 18 -28 0 -7
13 -39 30 -71 16 -32 30 -65 30 -71 0 -7 5 -13 10 -13 6 0 10 -10 10 -22 0
-13 10 -43 23 -69 13 -25 22 -50 19 -57 -3 -9 -48 -12 -163 -12 -143 0 -159 2
-159 17 0 9 20 58 44 108 25 49 60 123 78 162 18 40 35 73 37 73 3 0 13 -7 23
-17z"/>
<path fill="#ffffff" stroke="none" d="M6280 2725 c15 -9 13 -607 -2 -659 -15
-49 -36 -72 -74 -79 -16 -3 -48 -10 -72 -16 -39 -10 -47 -9 -100 20 -31 18
-65 40 -75 50 -31 33 -111 187 -177 344 -12 28 -25 59 -30 70 -4 11 -14 36
-21 55 -6 19 -27 67 -45 105 -18 39 -35 81 -39 95 l-6 25 316 -2 c173 -1 320
-5 325 -8z"/>
<path fill="#ffffff" stroke="none" d="M4528 2683 l-23 -24 -9 22 c-13 27 19
56 41 37 11 -9 10 -15 -9 -35z"/>
<path fill="#ffffff" stroke="none" d="M6746 2527 c75 -33 164 -104 164 -131
0 -9 5 -16 10 -16 6 0 10 -11 10 -25 0 -14 4 -25 9 -25 5 0 7 -15 5 -32 -3
-18 -7 -51 -10 -73 -10 -73 -49 -135 -75 -120 -6 5 -8 20 -5 39 4 17 7 40 7
51 0 11 7 35 15 53 16 34 12 82 -7 82 -5 0 -12 -8 -15 -17 -3 -10 -18 -44 -35
-75 -16 -32 -29 -65 -29 -73 0 -8 -4 -23 -9 -33 -5 -9 -13 -30 -18 -47 -7 -26
-14 -30 -46 -33 -57 -5 -93 15 -106 59 -12 39 -16 411 -4 422 11 12 109 8 139
-6z"/>
<path fill="#ffffff" stroke="none" d="M3861 2506 c19 -7 68 -22 109 -31 41
-10 82 -24 91 -32 11 -9 19 -39 23 -93 4 -44 12 -80 17 -80 27 0 -1 -37 -103
-138 -69 -69 -84 -82 -96 -82 -5 0 -15 -7 -22 -15 -19 -23 -102 -20 -131 6
-24 20 -24 24 -27 227 -3 136 0 217 7 236 11 27 14 28 55 23 24 -4 59 -13 77
-21z"/>
<path fill="#ffffff" stroke="none" d="M5465 2279 c5 -5 8 -62 7 -132 -3 -98
-7 -130 -23 -160 -11 -22 -17 -47 -14 -58 4 -11 -1 -46 -10 -77 -9 -31 -23
-79 -31 -106 -8 -26 -14 -52 -14 -57 0 -5 -11 -27 -25 -48 -13 -22 -27 -51
-31 -65 -10 -41 -26 -48 -80 -35 -27 6 -56 15 -64 19 -9 4 -30 11 -48 15 -18
3 -32 11 -32 16 0 5 -11 11 -25 15 -14 3 -25 10 -25 15 0 5 -5 9 -10 9 -6 0
-23 13 -38 28 -16 16 -50 35 -77 43 -34 10 -53 22 -64 41 -9 16 -19 28 -23 28
-5 0 -8 5 -8 12 0 6 -25 36 -55 66 -82 79 -76 82 152 82 170 0 184 1 181 18
-2 10 -14 18 -31 20 -15 2 -27 8 -27 13 0 5 -9 9 -20 9 -36 0 -60 35 -60 89 0
28 5 53 10 56 6 3 10 13 10 21 0 20 38 104 55 120 7 7 37 15 66 17 84 7 343
-3 354 -14z"/>
<path fill="#ffffff" stroke="none" d="M4105 2020 c0 -8 -10 -16 -22 -18 -22
-3 -32 16 -16 32 12 11 38 2 38 -14z"/>
<path fill="#ffffff" stroke="none" d="M3700 1920 c19 -10 18 -13 -16 -60 -20
-28 -46 -80 -59 -116 -12 -36 -25 -68 -29 -71 -3 -4 -6 -23 -6 -44 0 -29 -6
-42 -27 -58 -16 -11 -22 -21 -15 -21 16 0 15 -41 -3 -64 -8 -11 -15 -31 -15
-46 0 -17 -9 -31 -27 -42 -26 -15 -30 -15 -55 0 -16 9 -28 22 -28 29 0 7 -5
13 -10 13 -6 0 -18 16 -27 35 -16 34 -16 36 8 63 45 51 53 71 33 93 -37 41
-75 52 -204 57 -128 5 -140 9 -140 48 0 11 -8 38 -19 60 -10 21 -21 56 -25 76
-7 36 -6 37 28 43 37 7 93 -1 113 -17 7 -6 18 -6 30 1 10 5 41 14 68 19 70 13
402 15 425 2z"/>
<path fill="#ffffff" stroke="none" d="M4502 1867 c87 -87 94 -90 137 -61 46
31 65 30 102 -6 51 -48 62 -77 67 -177 3 -75 1 -98 -12 -118 -19 -28 -21 -103
-3 -125 19 -23 64 -50 85 -50 11 0 35 6 54 14 32 14 120 14 186 0 56 -11 -5
-107 -116 -180 -31 -21 -58 -41 -60 -46 -2 -4 -8 -8 -13 -8 -6 0 -24 -13 -42
-30 -18 -16 -36 -30 -40 -30 -4 0 -13 -5 -20 -10 -7 -6 -59 -44 -117 -86 -58
-41 -136 -105 -173 -142 -62 -60 -173 -199 -223 -277 -10 -16 -21 -32 -24 -35
-3 -3 -14 -22 -24 -42 -11 -21 -23 -39 -28 -40 -4 0 -12 -1 -17 -2 -4 -1 -37
42 -73 94 -35 52 -86 127 -112 165 -52 75 -158 185 -218 225 -21 14 -38 28
-38 33 0 4 -7 7 -15 7 -8 0 -15 4 -15 10 0 5 -13 16 -29 25 -16 8 -35 20 -43
28 -7 7 -42 35 -78 62 -36 27 -67 52 -70 56 -3 3 -24 18 -47 32 -55 35 -203
182 -203 202 0 9 -7 18 -15 21 -16 6 -22 84 -7 84 13 0 48 -36 71 -74 l23 -36
128 0 c135 0 158 7 119 38 -18 16 -20 22 -10 40 9 17 21 22 49 22 21 0 43 -5
50 -12 17 -17 15 -45 -3 -52 -8 -3 -15 -12 -15 -20 0 -23 343 -19 348 4 1 8
-8 20 -20 25 -20 9 -23 19 -26 73 -2 46 0 62 10 62 19 0 29 -10 73 -65 22 -27
43 -51 48 -53 4 -2 7 -9 7 -16 0 -7 16 -21 35 -32 52 -28 58 -15 59 130 1 133
7 150 47 144 18 -2 25 -10 27 -30 4 -36 34 -37 56 -3 33 50 56 27 56 -55 0
-68 -9 -105 -32 -130 -17 -18 -19 -26 -9 -46 10 -24 14 -24 78 -18 51 5 74 12
93 30 25 23 60 105 60 142 0 11 5 22 12 24 17 6 23 111 7 125 -10 8 -55 9
-164 2 -145 -9 -177 -10 -275 -6 -35 2 -45 -2 -48 -15 -2 -10 3 -18 11 -18 19
0 39 -42 35 -75 -6 -53 -34 -41 -98 45 -57 76 -51 73 -137 71 -29 0 -53 -5
-53 -10 0 -5 11 -19 25 -32 23 -22 25 -31 25 -126 0 -116 -10 -136 -64 -131
-26 3 -35 11 -56 54 -38 78 -50 107 -50 120 0 6 -7 25 -15 40 -25 48 -19 73
19 89 18 8 46 29 63 47 16 18 51 53 79 76 27 24 63 57 80 73 41 39 85 47 291
48 l173 1 62 -63z"/>
<path fill="#ffffff" stroke="none" d="M2928 1643 c15 -10 30 -22 34 -28 12
-16 9 -123 -4 -166 -11 -37 -13 -39 -53 -39 -60 0 -69 15 -68 117 1 73 4 88
24 109 27 29 32 29 67 7z"/>
<path fill="#ffffff" stroke="none" d="M3130 1643 c18 -15 20 -30 20 -125 l0
-108 -60 0 -60 0 0 59 c0 43 4 60 15 65 8 3 15 14 15 25 0 10 -7 21 -15 25
-24 9 -17 29 18 53 40 27 42 27 67 6z"/>
<path fill="#ffffff" stroke="none" d="M1851 1607 c45 -54 8 -74 -66 -34 -47
26 -55 49 -23 64 28 13 63 1 89 -30z"/>
<path fill="#ffffff" stroke="none" d="M1081 1630 c11 -6 19 -21 19 -35 0 -23
-23 -55 -40 -55 -13 0 -30 35 -30 63 0 38 15 46 51 27z"/>
<path fill="#ffffff" stroke="none" d="M1480 1614 c0 -8 -4 -14 -10 -14 -5 0
-10 -7 -10 -15 0 -8 -7 -15 -15 -15 -10 0 -15 10 -15 34 0 30 2 33 25 28 14
-2 25 -11 25 -18z"/>
<path fill="#ffffff" stroke="none" d="M3301 1630 c5 0 9 -17 9 -39 0 -32 -4
-40 -22 -45 -37 -9 -38 -8 -38 37 0 48 7 60 28 52 7 -3 18 -5 23 -5z"/>
<path fill="#ffffff" stroke="none" d="M4542 1623 c22 -20 25 -81 3 -89 -8 -3
-17 -14 -20 -25 -10 -30 -20 -23 -34 25 -24 81 5 131 51 89z"/>
<path fill="#ffffff" stroke="none" d="M6297 1625 c4 -15 -65 -87 -80 -82 -13
4 -22 60 -13 84 7 16 87 15 93 -2z"/>
<path fill="#ffffff" stroke="none" d="M6600 1610 c0 -18 -6 -33 -15 -36 -8
-4 -15 -12 -15 -20 0 -8 -7 -14 -15 -14 -11 0 -15 12 -15 50 0 49 1 50 30 50
27 0 30 -3 30 -30z"/>
<path fill="#ffffff" stroke="none" d="M4926 1613 c17 -23 17 -33 0 -33 -8 0
-17 7 -20 16 -14 36 -2 46 20 17z"/>
<path fill="#ffffff" stroke="none" d="M1620 1565 c0 -8 6 -15 14 -15 25 0 30
-40 7 -61 -24 -23 -41 -25 -41 -4 0 9 -6 12 -15 9 -9 -4 -15 0 -15 10 0 9 7
16 15 16 9 0 15 6 14 13 -3 26 1 47 11 47 6 0 10 -7 10 -15z"/>
<path fill="#ffffff" stroke="none" d="M3640 1510 c0 -11 -7 -20 -15 -20 -8 0
-15 9 -15 20 0 11 7 20 15 20 8 0 15 -9 15 -20z"/>
<path fill="#ffffff" stroke="none" d="M6599 1461 c30 -42 27 -53 -16 -49 -30
2 -38 8 -43 28 -14 56 25 69 59 21z"/>
<path fill="#ffffff" stroke="none" d="M1468 1455 c34 -10 21 -30 -19 -30 -28
0 -35 4 -37 23 -4 25 -6 25 56 7z"/>
<path fill="#ffffff" stroke="none" d="M1773 1450 c27 -32 22 -60 -10 -60 -21
0 -31 7 -40 27 -7 15 -13 33 -13 40 0 20 44 15 63 -7z"/>
<path fill="#ffffff" stroke="none" d="M4923 1450 c24 -29 21 -40 -12 -40 -28
0 -41 14 -41 46 0 21 33 17 53 -6z"/>
<path fill="#ffffff" stroke="none" d="M5854 1428 c9 -36 -45 -67 -58 -33 -11
28 4 46 45 54 4 0 9 -9 13 -21z"/>
<path fill="#000000" stroke="none" d="M3493 1642 c-14 -2 -20 -8 -16 -18 7
-18 27 -18 42 0 14 17 5 23 -26 18z"/>
<path fill="#000000" stroke="none" d="M1970 1682 c-15 -5 -12 -78 3 -91 11
-8 17 -5 27 14 15 28 47 42 62 27 6 -6 9 -62 7 -140 l-4 -131 29 -5 c46 -9
104 -7 111 5 4 6 -1 16 -11 23 -15 11 -19 33 -22 135 -4 106 -2 121 11 121 9
0 26 -13 39 -30 32 -44 58 -40 58 9 0 21 -6 44 -15 51 -13 11 -267 21 -295 12z"/>
<path fill="#000000" stroke="none" d="M2442 1668 c-23 -49 -70 -155 -88 -203
-10 -27 -28 -61 -41 -75 -28 -31 -16 -40 55 -40 59 0 76 18 48 49 -22 24 -20
38 7 45 41 11 66 6 77 -15 9 -17 8 -23 -6 -33 -10 -8 -15 -20 -11 -30 5 -13
22 -16 97 -16 98 0 113 10 65 46 -14 10 -25 23 -25 29 0 12 -59 156 -70 170
-4 6 -11 21 -15 34 -18 59 -72 81 -93 39z"/>
<path fill="#ffffff" stroke="none" d="M2460 1525 c0 -16 -6 -25 -15 -25 -9 0
-15 9 -15 25 0 16 6 25 15 25 9 0 15 -9 15 -25z"/>
<path fill="#000000" stroke="none" d="M163 1604 c-37 -18 -57 -35 -68 -58
-15 -31 -15 -35 5 -69 42 -72 146 -85 233 -30 l41 26 183 -6 c153 -4 186 -3
198 10 18 17 18 19 3 46 -23 44 -35 46 -225 47 -145 0 -184 3 -196 15 -8 7
-26 17 -41 21 -14 3 -29 10 -32 15 -9 16 -47 9 -101 -17z"/>
</g>
</svg>
