<?xml version="1.0" standalone="no"?>
<!DOCTYPE svg PUBLIC "-//W3C//DTD SVG 20010904//EN"
 "http://www.w3.org/TR/2001/REC-SVG-20010904/DTD/svg10.dtd">
<svg version="1.0" xmlns="http://www.w3.org/2000/svg"
 width="6336.000000pt" height="2304.000000pt" viewBox="0 0 6336.000000 2304.000000"
 preserveAspectRatio="xMidYMid meet">
<metadata>
Created by potrace 1.16, written by Peter Selinger 2001-2019
</metadata>
<g transform="translate(0.000000,2304.000000) scale(0.100000,-0.100000)"
fill="#000000" stroke="none">
<path fill="#000000" stroke="none" d="M10677 22088 c-452 -652 -847 -1236
-844 -1248 4 -16 908 -1332 912 -1328 8 11 868 1262 889 1295 l28 42 -453 658
c-248 362 -455 662 -459 666 -4 5 -37 -33 -73 -85z"/>
<path fill="#000000" stroke="none" d="M39495 22139 c-463 -32 -916 -140
-1300 -308 -451 -198 -925 -539 -1258 -906 -483 -532 -807 -1223 -903 -1925
-24 -175 -24 -532 0 -695 81 -550 337 -995 721 -1252 297 -198 618 -270 889
-199 336 88 585 366 789 881 92 232 183 584 203 786 l6 66 -38 6 c-80 14 -80
13 -98 -60 -49 -195 -148 -449 -226 -583 -114 -196 -298 -293 -492 -261 -349
58 -658 412 -788 906 -199 755 -5 1642 500 2280 88 111 246 272 365 370 366
302 745 462 1240 520 175 21 563 21 759 0 964 -103 1664 -575 2135 -1440 309
-568 514 -1321 600 -2215 37 -381 43 -494 48 -1053 13 -1319 -75 -2172 -297
-2896 -127 -414 -283 -703 -490 -912 -121 -122 -194 -180 -337 -265 -203 -122
-420 -197 -619 -215 -423 -38 -826 129 -967 399 -42 79 -38 77 -113 46 -30
-13 -33 -18 -40 -71 -18 -148 11 -401 66 -563 80 -239 254 -482 428 -599 190
-128 426 -183 682 -160 617 54 1091 266 1509 673 745 727 1129 1924 1212 3776
15 342 6 1241 -15 1490 -107 1260 -392 2191 -908 2963 -376 562 -888 968
-1508 1196 -318 118 -691 193 -1090 221 -164 11 -500 11 -665 -1z"/>
<path fill="#000000" stroke="none" d="M40695 21350 c-11 -5 -96 -39 -190 -75
-203 -80 -396 -171 -531 -250 -339 -198 -494 -379 -577 -673 l-22 -77 -6
-2820 c-4 -1997 -9 -2861 -17 -2960 -42 -499 -102 -783 -205 -964 -109 -192
-309 -339 -586 -431 -250 -84 -608 -134 -1221 -171 -282 -17 -1376 -24 -1575
-10 -577 41 -1041 150 -1430 337 -317 152 -589 365 -721 564 l-48 71 38 77
c145 293 798 1543 864 1653 114 192 187 287 326 424 102 102 133 126 199 157
272 130 606 444 779 736 98 164 147 321 155 500 7 147 -9 226 -68 347 -36 74
-149 224 -175 232 -6 2 -23 -12 -38 -31 l-26 -35 25 -37 c14 -20 30 -55 36
-78 16 -59 6 -173 -18 -221 -100 -193 -421 -345 -837 -395 -135 -16 -501 -13
-663 5 -252 30 -427 71 -816 196 -241 78 -802 272 -1117 387 -963 353 -1660
535 -2330 609 -194 21 -723 24 -910 5 -813 -84 -1447 -336 -2049 -815 -521
-415 -908 -981 -1095 -1601 -81 -266 -111 -494 -103 -778 10 -374 95 -658 279
-935 85 -128 272 -321 390 -401 209 -143 471 -235 785 -278 176 -24 503 -24
677 0 551 75 1077 331 1583 770 113 98 433 419 433 435 0 5 -32 20 -71 35
l-71 26 -76 -68 c-254 -228 -556 -431 -776 -523 -262 -109 -494 -122 -751 -42
-303 95 -655 355 -905 668 -195 245 -371 580 -451 858 -54 187 -64 256 -64
472 0 233 16 313 90 471 221 472 686 686 1490 686 651 0 1439 -153 2280 -443
167 -57 371 -133 915 -339 118 -45 409 -146 645 -226 556 -185 852 -269 1179
-333 l139 -28 -114 -78 c-155 -106 -242 -178 -388 -320 -188 -183 -363 -410
-494 -640 -25 -44 -1403 -2685 -3062 -5870 -2967 -5697 -3017 -5791 -3079
-5855 -211 -216 -315 -451 -347 -783 -36 -374 82 -802 294 -1061 l24 -30 72
43 c39 24 71 47 71 51 0 4 -12 38 -26 76 -55 148 -68 225 -69 419 0 202 14
272 80 410 89 185 217 293 413 348 66 18 103 21 262 21 499 -1 1036 -176 1842
-600 478 -251 1088 -601 1688 -967 456 -279 531 -322 735 -422 766 -375 1573
-525 2378 -440 491 52 944 185 1396 411 382 191 629 363 905 633 624 612 911
1301 745 1794 -69 207 -195 343 -414 448 -350 167 -716 171 -1142 13 -378
-140 -952 -504 -1448 -918 -155 -130 -455 -403 -455 -414 0 -4 20 -27 44 -51
l44 -43 89 65 c50 36 173 121 274 190 443 300 622 381 901 409 220 21 447 -14
613 -96 388 -193 521 -635 326 -1087 -156 -360 -460 -612 -841 -695 -129 -29
-486 -26 -665 4 -429 74 -888 242 -1450 531 -392 202 -670 369 -1250 751 -214
142 -469 307 -565 367 -909 571 -1681 950 -2275 1118 -82 23 -164 46 -180 51
l-31 9 2353 4555 c1293 2505 2356 4561 2360 4569 6 10 24 -7 65 -61 125 -162
358 -366 565 -491 480 -293 1070 -460 1796 -508 267 -17 874 -6 1091 20 998
122 1980 478 2659 964 683 489 1029 986 1134 1628 16 96 18 349 23 3154 6
3050 6 3050 27 3140 36 159 103 261 229 351 l64 46 0 84 c0 46 -3 84 -7 83 -5
0 -17 -4 -28 -9z"/>
<path fill="#000000" stroke="none" d="M44830 20591 l-365 -358 331 -339 c183
-186 344 -350 358 -364 l27 -24 364 364 365 365 -357 357 -358 357 -365 -358z"/>
<path fill="#000000" stroke="none" d="M9072 19756 c-271 -393 -492 -719 -492
-723 0 -5 487 -167 1081 -360 l1082 -351 1083 351 c596 194 1082 356 1081 362
-5 15 -981 1434 -987 1434 -3 1 -268 -382 -590 -849 -452 -657 -587 -847 -596
-837 -6 6 -267 383 -579 837 -312 454 -572 831 -579 838 -10 10 -111 -131
-504 -702z"/>
<path fill="#000000" stroke="none" d="M4290 19984 c0 -76 38 -1515 40 -1520
2 -5 1521 -536 1524 -533 7 7 -35 1603 -43 1611 -5 6 -1451 521 -1503 535 -16
5 -18 -4 -18 -93z"/>
<path fill="#000000" stroke="none" d="M16425 19813 c-412 -146 -751 -267
-753 -268 -7 -6 -45 -1606 -39 -1612 4 -4 1511 521 1523 531 1 0 9 294 18 651
9 358 19 721 22 808 5 129 4 157 -7 156 -8 0 -351 -120 -764 -266z"/>
<path fill="#000000" stroke="none" d="M6245 19244 c9 -219 45 -1686 45 -1812
l0 -109 -972 343 c-534 189 -973 342 -975 340 -4 -4 39 -1739 43 -1745 3 -4
2136 685 2162 699 25 13 1350 1845 1338 1851 -12 7 -1600 569 -1629 577 -16 4
-17 -5 -12 -144z"/>
<path fill="#000000" stroke="none" d="M14410 19100 c-464 -164 -814 -293
-812 -299 4 -21 1324 -1832 1341 -1840 32 -17 2153 -702 2158 -697 5 4 52
1738 48 1744 -2 2 -441 -152 -976 -341 -536 -190 -975 -344 -976 -343 -2 1 8
427 22 947 27 1034 29 1119 18 1119 -5 -1 -375 -131 -823 -290z"/>
<path fill="#000000" stroke="none" d="M8784 18468 c184 -289 420 -633 434
-635 9 -2 201 57 427 131 346 114 406 136 385 144 -43 16 -1265 412 -1273 412
-4 0 8 -24 27 -52z"/>
<path fill="#000000" stroke="none" d="M12073 18311 c-348 -113 -633 -208
-633 -211 0 -4 794 -265 831 -274 7 -1 459 678 459 689 0 3 -6 5 -12 4 -7 -1
-298 -94 -645 -208z"/>
<path fill="#000000" stroke="none" d="M54936 18359 c-365 -38 -637 -160 -861
-384 -201 -201 -320 -423 -377 -707 l-23 -113 0 -2030 c0 -1912 1 -2038 18
-2170 46 -346 141 -584 300 -752 192 -203 409 -308 658 -320 227 -11 422 56
645 223 216 162 490 473 666 756 62 100 78 108 78 44 0 -53 51 -280 86 -386
64 -190 159 -338 282 -436 181 -144 412 -213 667 -201 274 13 531 161 851 488
130 134 245 276 346 429 l73 110 3 -516 c1 -284 6 -514 11 -512 4 2 238 115
520 253 l511 249 0 2321 0 2320 93 120 c118 152 300 342 400 416 115 86 196
122 287 127 248 14 410 -106 489 -363 58 -185 54 -51 61 -2290 5 -1525 10
-2081 18 -2140 55 -365 135 -572 279 -726 123 -130 264 -212 449 -260 76 -20
112 -24 254 -23 154 0 171 2 250 28 209 70 376 183 613 415 213 208 445 521
576 779 l21 42 -50 25 c-27 14 -51 25 -53 25 -2 0 -44 -53 -93 -117 -106 -140
-300 -343 -393 -412 -37 -28 -103 -67 -147 -88 -73 -35 -85 -38 -169 -37 -266
0 -412 141 -488 469 -21 89 -21 110 -27 2140 -6 1818 -8 2064 -23 2170 -54
399 -144 617 -324 785 -173 161 -388 241 -653 243 -298 2 -530 -118 -869 -448
-157 -153 -266 -285 -402 -488 l-99 -148 0 541 c0 310 -4 540 -9 540 -5 0
-238 -112 -517 -248 l-509 -248 -3 -2343 -2 -2343 -47 -61 c-132 -174 -322
-372 -429 -450 -28 -20 -87 -54 -130 -74 -73 -35 -85 -38 -169 -37 -99 0 -184
21 -252 61 -93 54 -181 189 -217 330 -47 183 -46 94 -46 2836 0 1675 -3 2577
-10 2577 -5 0 -233 -97 -507 -217 l-497 -216 -15 24 c-39 59 -117 143 -179
192 -243 194 -535 266 -916 226z"/>
<path fill="#ffffff" stroke="none" d="M55458 18039 c26 -6 97 -35 157 -64 84
-40 128 -69 182 -119 73 -68 156 -186 199 -282 l24 -55 0 -2163 0 -2164 -72
-94 c-94 -122 -283 -315 -380 -388 -198 -150 -385 -198 -553 -143 -78 25 -172
125 -215 228 -42 103 -67 228 -80 401 -12 172 -13 3807 0 4144 10 270 19 313
96 445 83 141 185 219 328 250 75 17 251 19 314 4z"/>
<path fill="#000000" stroke="none" d="M45175 18101 l-510 -249 -3 -2308 c-3
-2344 -1 -2501 34 -2729 43 -281 133 -505 260 -644 244 -270 696 -368 1044
-225 236 96 531 347 775 659 73 93 200 279 253 369 l23 39 46 -74 c170 -274
466 -574 753 -762 341 -223 743 -347 897 -277 170 77 521 406 791 742 l70 87
93 -105 c211 -239 476 -443 764 -585 303 -150 546 -194 687 -125 181 90 550
447 819 791 339 434 564 845 644 1177 l25 103 0 2183 c0 1200 -3 2182 -7 2182
-5 0 -237 -112 -518 -249 l-510 -249 -7 -2358 c-3 -1298 -9 -2377 -12 -2399
-3 -22 -10 -98 -16 -170 -18 -214 -55 -336 -116 -384 -33 -26 -125 -29 -205
-5 -294 88 -708 495 -889 876 -94 198 -84 -86 -87 2581 -2 1296 -7 2357 -11
2357 -4 0 -236 -112 -517 -249 l-510 -249 -6 -2348 c-6 -2403 -7 -2481 -45
-2724 -17 -109 -54 -200 -96 -235 -55 -47 -189 -30 -328 40 -273 138 -606 492
-761 810 -104 215 -93 -84 -96 2598 -2 1296 -7 2357 -11 2357 -4 0 -236 -112
-517 -249 l-510 -249 0 -2143 c0 -2410 -7 -2198 76 -2442 l40 -118 -64 -82
c-253 -323 -474 -500 -653 -523 -72 -9 -188 12 -262 46 -141 66 -228 209 -279
460 -16 79 -17 272 -20 2693 -2 1434 -7 2607 -11 2607 -4 0 -237 -112 -517
-249z"/>
<path fill="#000000" stroke="none" d="M13429 18249 c0 -30 -8 -218 -18 -419
-9 -201 -16 -366 -15 -368 4 -6 829 -272 836 -269 4 1 -776 1084 -798 1106 -2
2 -4 -20 -5 -50z"/>
<path fill="#000000" stroke="none" d="M7647 17744 c-218 -301 -395 -549 -393
-551 5 -5 817 257 829 268 10 7 -21 784 -32 812 -5 14 -99 -108 -404 -529z"/>
<path fill="#000000" stroke="none" d="M8485 18045 c4 -61 10 -183 14 -272 4
-89 10 -165 13 -169 7 -6 256 72 270 85 6 5 -263 422 -294 456 -5 6 -6 -34 -3
-100z"/>
<path fill="#000000" stroke="none" d="M12850 17927 c-80 -121 -146 -226 -148
-232 -2 -10 265 -101 274 -93 5 6 26 490 22 519 -2 21 -28 -13 -148 -194z"/>
<path fill="#000000" stroke="none" d="M10000 17635 c-289 -94 -530 -173 -537
-175 -7 -3 202 -328 525 -819 l537 -813 3 496 c1 273 1 718 0 989 l-3 493
-525 -171z"/>
<path fill="#000000" stroke="none" d="M10955 17802 c-8 -8 -6 -1972 3 -1972
10 1 1075 1620 1069 1627 -10 10 -1067 350 -1072 345z"/>
<path fill="#000000" stroke="none" d="M8777 17240 c-131 -43 -241 -81 -244
-84 -11 -11 110 -2620 121 -2633 9 -8 1080 -392 1133 -405 6 -2 134 175 283
392 150 217 305 443 346 501 l73 106 -725 1099 c-399 604 -730 1100 -737 1101
-7 0 -119 -34 -250 -77z"/>
<path fill="#000000" stroke="none" d="M12267 17043 c-101 -153 -427 -648
-726 -1100 -339 -514 -540 -828 -535 -835 9 -15 283 -415 520 -759 l163 -236
570 201 c313 110 572 204 575 207 6 6 128 2630 123 2635 -3 4 -496 164 -503
164 -2 0 -86 -125 -187 -277z"/>
<path fill="#000000" stroke="none" d="M7568 16847 c-289 -95 -527 -176 -527
-182 -1 -12 1150 -1598 1155 -1592 4 3 -72 1729 -82 1865 -3 45 -9 82 -12 81
-4 0 -244 -78 -534 -172z"/>
<path fill="#000000" stroke="none" d="M13331 16056 c-24 -530 -42 -969 -40
-974 2 -6 264 347 582 785 318 438 575 799 570 803 -7 7 -1052 350 -1065 350
-2 0 -23 -434 -47 -964z"/>
<path fill="#000000" stroke="none" d="M37621 16348 c-130 -127 -252 -246
-271 -265 l-35 -33 253 -253 253 -254 -251 -244 -252 -245 198 -195 c110 -107
221 -215 247 -240 l48 -44 -247 -240 -247 -240 274 -268 273 -267 268 267 268
268 -240 240 -240 240 240 240 240 240 -245 245 -244 245 246 253 246 254
-264 264 c-145 145 -268 264 -273 264 -5 0 -115 -104 -245 -232z"/>
<path fill="#000000" stroke="none" d="M6353 15962 c-220 -302 -328 -459 -320
-463 29 -16 1809 -681 1812 -677 3 3 -1124 1561 -1148 1585 -9 10 -86 -89
-344 -445z"/>
<path fill="#000000" stroke="none" d="M14217 15623 c-318 -437 -576 -797
-574 -800 5 -5 1797 666 1811 678 7 6 -631 900 -652 913 -4 2 -267 -354 -585
-791z"/>
<path fill="#000000" stroke="none" d="M5477 16167 c-356 -116 -644 -214 -640
-218 12 -10 772 -293 776 -288 15 19 505 697 511 707 4 6 6 12 4 11 -2 0 -294
-95 -651 -212z"/>
<path fill="#000000" stroke="none" d="M15360 16373 c0 -10 514 -713 521 -713
9 0 746 278 765 288 9 5 -109 48 -319 115 -182 59 -475 154 -649 211 -175 57
-318 101 -318 99z"/>
<path fill="#000000" stroke="none" d="M3120 15433 c-454 -135 -827 -247 -829
-249 -2 -1 277 -368 619 -814 341 -446 623 -817 626 -823 2 -8 -319 -108 -974
-301 -537 -159 -982 -292 -989 -295 -8 -4 184 -263 518 -699 292 -380 534
-692 537 -692 4 1 307 415 675 920 l667 920 0 1140 c0 906 -3 1140 -12 1139
-7 0 -384 -111 -838 -246z"/>
<path fill="#000000" stroke="none" d="M17510 14544 l0 -1136 672 -924 c369
-509 674 -923 679 -922 13 5 1061 1379 1056 1385 -3 3 -447 136 -987 297 -540
160 -981 295 -981 299 0 4 279 372 620 818 342 445 621 814 621 819 0 6 -2 10
-5 10 -2 0 -376 110 -829 245 -453 135 -829 245 -835 245 -8 0 -11 -323 -11
-1136z"/>
<path fill="#000000" stroke="none" d="M4837 15487 c7 -12 318 -405 332 -420
4 -4 46 47 94 112 48 66 83 122 78 125 -6 4 -158 62 -446 170 -37 15 -63 20
-58 13z"/>
<path fill="#000000" stroke="none" d="M16400 15403 c-140 -52 -257 -97 -259
-99 -4 -4 22 -43 116 -171 l54 -73 161 203 c88 111 168 210 176 220 8 9 13 17
11 17 -2 -1 -119 -44 -259 -97z"/>
<path fill="#000000" stroke="none" d="M4390 14675 c0 -377 2 -685 4 -685 5 0
515 701 519 712 2 6 -512 658 -520 658 -1 0 -3 -308 -3 -685z"/>
<path fill="#000000" stroke="none" d="M16827 15031 c-183 -230 -255 -327
-249 -337 4 -8 120 -169 257 -358 l250 -343 3 338 c1 187 1 493 0 681 l-3 342
-258 -323z"/>
<path fill="#000000" stroke="none" d="M5605 14934 c-106 -146 -153 -219 -147
-227 35 -45 1600 -2007 1617 -2028 l21 -26 583 173 c321 95 584 175 585 176 3
4 -26 1212 -29 1215 -1 2 -541 206 -1201 453 -659 248 -1215 457 -1236 465
l-36 14 -157 -215z"/>
<path fill="#000000" stroke="none" d="M14487 14685 c-675 -254 -1229 -464
-1231 -466 -7 -6 -38 -1211 -32 -1217 3 -2 261 -80 573 -173 312 -93 573 -171
580 -173 10 -4 1644 2030 1654 2058 3 9 -302 436 -311 435 -3 -1 -557 -209
-1233 -464z"/>
<path fill="#000000" stroke="none" d="M1065 14823 c-418 -124 -761 -227 -763
-229 -5 -3 978 -1284 986 -1284 21 0 1542 456 1542 463 0 4 -219 293 -486 642
-299 391 -493 635 -503 634 -9 0 -358 -102 -776 -226z"/>
<path fill="#000000" stroke="none" d="M19141 14415 c-266 -348 -484 -637
-483 -641 0 -10 1520 -465 1539 -461 12 2 983 1263 983 1276 0 8 -1519 461
-1541 460 -8 0 -232 -285 -498 -634z"/>
<path fill="#000000" stroke="none" d="M10640 14575 c-56 -85 -105 -153 -109
-151 -3 2 -132 -180 -286 -405 -154 -224 -283 -408 -287 -409 -4 0 -293 101
-644 225 -350 124 -638 225 -639 225 -5 0 2 -666 10 -1045 l8 -330 -657 -194
c-447 -133 -653 -198 -648 -205 5 -6 55 -68 110 -138 56 -70 106 -138 111
-150 5 -13 142 -196 305 -408 162 -212 295 -387 295 -390 0 -3 -186 -248 -414
-545 -265 -346 -410 -542 -402 -546 7 -4 89 -28 182 -53 94 -26 171 -51 173
-55 1 -4 215 -70 474 -147 l471 -139 -8 -330 c-8 -375 -15 -1045 -11 -1045 2
0 290 101 640 225 351 124 641 225 644 225 4 -1 133 -185 287 -409 154 -225
283 -407 286 -405 4 2 53 -66 109 -151 56 -85 105 -155 108 -154 4 0 180 252
391 560 211 307 387 559 390 559 4 0 211 -73 461 -161 250 -89 469 -163 485
-164 17 -2 101 -30 188 -63 86 -33 158 -57 160 -53 2 3 -5 310 -14 681 -10
371 -15 678 -11 681 4 4 216 69 472 144 256 76 468 142 471 147 5 8 72 28 331
98 l37 10 -415 541 c-228 298 -414 545 -414 549 0 4 186 251 414 549 l415 541
-37 10 c-259 70 -326 90 -331 98 -3 5 -215 71 -471 147 -256 75 -468 140 -472
144 -4 3 -1 227 5 496 7 270 10 492 6 495 -4 3 -3 88 2 189 5 101 8 186 5 188
-2 2 -287 -96 -633 -218 -345 -122 -635 -224 -644 -226 -11 -3 -124 155 -400
556 -211 308 -387 560 -391 561 -3 0 -52 -70 -108 -155z"/>
<path fill="#000000" stroke="none" d="M4860 13909 c-179 -247 -326 -453 -328
-458 -2 -6 129 -53 290 -105 161 -52 583 -190 938 -305 354 -115 646 -209 647
-207 4 3 -1207 1521 -1215 1523 -4 1 -153 -200 -332 -448z"/>
<path fill="#000000" stroke="none" d="M15685 13600 c-334 -419 -605 -763
-604 -764 4 -4 1869 601 1876 608 3 3 -636 888 -656 909 -5 5 -282 -334 -616
-753z"/>
<path fill="#000000" stroke="none" d="M4390 12475 l0 -567 23 4 c45 9 1866
512 1863 515 -2 3 -1754 573 -1863 607 l-23 7 0 -566z"/>
<path fill="#000000" stroke="none" d="M16147 12735 c-510 -166 -930 -305
-932 -307 -4 -4 1850 -519 1868 -518 4 0 7 254 7 565 0 311 -3 565 -7 564 -5
-1 -426 -137 -936 -304z"/>
<path fill="#000000" stroke="none" d="M27632 12448 l-383 -372 353 -353 353
-353 -270 -262 c-149 -145 -305 -297 -348 -338 -43 -41 -76 -79 -75 -85 2 -6
154 -159 340 -339 l336 -327 -211 -207 c-117 -114 -270 -264 -342 -335 l-130
-128 375 -369 c206 -203 380 -369 385 -370 6 0 177 166 380 370 l370 370 -335
335 -335 335 333 333 332 332 -340 340 c-187 187 -340 343 -340 346 0 6 279
296 587 609 l93 95 -373 373 -373 372 -382 -372z"/>
<path fill="#000000" stroke="none" d="M3563 12123 c-221 -304 -398 -553 -393
-553 18 0 785 213 793 220 4 3 6 204 5 446 l-3 440 -402 -553z"/>
<path fill="#000000" stroke="none" d="M17517 12649 c-4 -13 -7 -212 -7 -441
l0 -417 68 -20 c181 -53 734 -202 738 -199 3 3 -360 507 -772 1072 l-21 29 -6
-24z"/>
<path fill="#000000" stroke="none" d="M5663 11817 l-1273 -351 0 -266 0 -266
1188 -327 c653 -180 1226 -338 1274 -351 l87 -24 371 484 371 484 -354 462
c-195 255 -363 473 -373 485 l-19 21 -1272 -351z"/>
<path fill="#000000" stroke="none" d="M14180 11690 c-201 -263 -365 -484
-364 -492 1 -8 165 -228 364 -489 200 -261 364 -475 364 -476 1 -1 564 153
1251 343 688 189 1260 347 1273 350 l22 6 0 269 c0 148 -2 269 -5 269 -2 0
-568 155 -1257 345 -689 190 -1260 347 -1268 350 -10 2 -134 -152 -380 -475z"/>
<path fill="#000000" stroke="none" d="M3698 11276 c-142 -39 -258 -73 -258
-76 0 -3 114 -36 253 -74 138 -38 258 -71 265 -73 9 -4 12 29 12 146 0 83 -3
151 -7 150 -5 -1 -124 -33 -265 -73z"/>
<path fill="#000000" stroke="none" d="M17520 11200 l0 -148 103 28 c56 15
173 47 260 71 86 23 157 45 157 49 0 4 -71 26 -157 49 -87 24 -204 56 -260 71
l-103 28 0 -148z"/>
<path fill="#000000" stroke="none" d="M2091 10148 c-333 -436 -526 -695 -518
-699 7 -3 452 -136 989 -295 644 -190 977 -293 974 -301 -3 -6 -284 -376 -626
-823 -342 -446 -621 -813 -619 -814 5 -5 1662 -496 1672 -496 4 0 7 513 7
1140 l0 1140 -667 920 c-368 505 -671 919 -675 920 -3 0 -245 -312 -537 -692z"/>
<path fill="#000000" stroke="none" d="M18182 9916 l-672 -924 0 -1136 c0
-813 3 -1136 11 -1136 6 0 382 110 835 245 453 135 827 245 829 245 3 0 5 4 5
10 0 5 -279 374 -621 819 -341 446 -620 814 -620 818 0 4 441 139 981 300 540
160 984 293 987 296 5 6 -1043 1380 -1056 1385 -4 1 -310 -413 -679 -922z"/>
<path fill="#000000" stroke="none" d="M3170 10824 c0 -4 180 -254 400 -557
l400 -550 -2 448 -3 448 -390 108 c-409 114 -405 113 -405 103z"/>
<path fill="#000000" stroke="none" d="M17910 10722 c-361 -101 -385 -108
-391 -132 -11 -40 -10 -862 1 -858 7 2 765 1038 794 1086 4 7 2 12 -6 11 -7 0
-186 -49 -398 -107z"/>
<path fill="#000000" stroke="none" d="M4390 9925 l0 -566 23 7 c108 33 1861
604 1863 607 3 3 -1817 506 -1862 515 l-24 4 0 -567z"/>
<path fill="#000000" stroke="none" d="M16132 10232 c-508 -141 -917 -259
-910 -263 7 -4 423 -140 925 -303 501 -163 919 -299 927 -302 14 -6 16 50 16
560 0 533 -1 566 -17 565 -10 -1 -433 -116 -941 -257z"/>
<path fill="#000000" stroke="none" d="M6290 8738 c-443 -555 -813 -1019 -823
-1033 l-18 -24 157 -215 156 -215 36 14 c21 8 577 217 1236 465 660 248 1200
451 1201 453 3 3 32 1212 29 1215 -1 2 -617 186 -1124 336 l-45 13 -805 -1009z"/>
<path fill="#000000" stroke="none" d="M13807 9575 c-318 -95 -580 -175 -583
-177 -6 -6 25 -1210 31 -1217 3 -3 2027 -764 2415 -909 l56 -20 152 211 c85
117 152 217 151 222 -1 9 -1638 2066 -1642 2064 -1 0 -262 -79 -580 -174z"/>
<path fill="#000000" stroke="none" d="M59895 9604 c-703 -57 -1421 -487
-1818 -1089 -150 -228 -244 -493 -267 -755 -13 -154 -13 -5209 0 -5373 37
-446 221 -810 554 -1095 493 -424 1056 -666 1871 -806 294 -50 411 -60 720
-61 324 0 364 6 557 80 448 173 925 632 1410 1355 110 165 248 391 248 407 0
5 -32 25 -71 43 l-71 35 -21 -30 c-53 -73 -190 -238 -277 -334 -220 -242 -398
-341 -683 -382 -105 -15 -406 -15 -562 0 -462 45 -1063 186 -1500 352 -251 95
-433 226 -547 393 -98 143 -157 385 -177 721 l-8 140 32 35 c709 778 2473
2721 2533 2790 160 182 213 281 232 432 6 50 10 379 10 850 0 636 -3 786 -15
878 -61 431 -300 791 -710 1064 -250 168 -578 284 -935 330 -117 15 -415 27
-505 20z"/>
<path fill="#ffffff" stroke="none" d="M60165 9206 c131 -35 234 -120 302
-252 50 -96 77 -191 105 -366 20 -123 22 -179 25 -778 2 -355 0 -1068 -6
-1585 -10 -1024 -9 -1006 -69 -1136 -16 -35 -50 -95 -74 -133 -25 -37 -303
-367 -619 -733 l-574 -665 -3 1973 c-3 1994 2 2404 33 2679 35 309 87 541 151
678 78 167 217 277 399 316 89 18 265 20 330 2z"/>
<path fill="#000000" stroke="none" d="M5805 9375 c-324 -106 -744 -243 -933
-305 -189 -61 -342 -116 -340 -121 6 -19 653 -908 660 -906 6 2 1198 1492
1213 1517 3 6 3 10 -2 9 -4 -1 -273 -88 -598 -194z"/>
<path fill="#000000" stroke="none" d="M15080 9564 c0 -15 1214 -1524 1221
-1517 21 21 659 906 656 910 -2 2 -406 134 -898 293 -492 160 -913 297 -936
305 -24 7 -43 12 -43 9z"/>
<path fill="#000000" stroke="none" d="M40825 9544 c-312 -32 -554 -97 -790
-214 -181 -90 -302 -177 -445 -320 -306 -305 -478 -644 -547 -1081 -17 -108
-18 -262 -18 -2899 0 -2624 1 -2795 18 -2950 75 -679 272 -1072 676 -1349 233
-159 460 -231 733 -231 201 0 366 42 569 146 205 105 368 233 614 486 232 236
422 479 593 755 41 68 78 123 81 123 3 0 14 -57 24 -128 52 -370 167 -699 314
-898 140 -187 343 -331 573 -408 160 -53 239 -67 422 -73 194 -7 274 3 424 52
275 90 526 265 859 599 293 294 488 554 729 975 42 72 76 134 76 136 0 5 -135
75 -144 75 -2 0 -35 -42 -72 -92 -193 -260 -441 -526 -607 -650 -178 -132
-323 -185 -480 -174 -182 12 -303 62 -413 171 -58 57 -80 89 -122 175 -88 180
-127 356 -142 644 -6 95 -10 1706 -10 3644 0 1909 -2 3472 -4 3472 -3 0 -310
-133 -683 -296 -373 -163 -688 -300 -700 -304 -18 -8 -26 -1 -58 48 -51 78
-234 257 -322 315 -171 114 -349 187 -550 228 -89 18 -148 22 -333 24 -124 2
-243 1 -265 -1z"/>
<path fill="#ffffff" stroke="none" d="M41520 9089 c97 -23 259 -97 360 -164
140 -93 263 -241 360 -432 l50 -98 0 -3041 0 -3040 -103 -130 c-378 -473 -702
-714 -1017 -756 -242 -32 -434 69 -547 288 -83 160 -126 355 -143 647 -12 217
-13 5205 0 5682 10 392 19 452 85 593 130 275 274 400 525 453 123 26 319 25
430 -2z"/>
<path fill="#000000" stroke="none" d="M49088 9178 l-718 -351 0 -4163 c0
-2290 4 -4164 8 -4164 4 0 329 157 722 349 l715 348 5 3239 5 3239 80 105
c336 442 639 718 884 802 54 19 87 23 176 22 119 0 201 -17 294 -60 206 -94
335 -319 398 -694 16 -98 18 -298 24 -2915 4 -1992 9 -2838 17 -2905 74 -619
197 -943 450 -1182 172 -162 350 -255 602 -315 144 -34 426 -44 548 -19 298
60 561 214 905 530 319 293 619 688 885 1169 l32 57 -75 37 c-41 20 -76 35
-78 33 -2 -3 -39 -52 -82 -110 -277 -369 -547 -631 -760 -737 -113 -57 -161
-68 -280 -67 -119 1 -203 18 -294 60 -207 94 -332 314 -398 695 -16 97 -18
286 -23 2919 -6 2542 -8 2828 -23 2950 -72 581 -200 903 -456 1141 -169 159
-366 258 -621 314 -116 25 -415 32 -518 11 -184 -37 -355 -112 -539 -235 -161
-108 -288 -216 -484 -411 -223 -223 -410 -459 -591 -747 l-73 -115 -3 761 c-1
419 -5 761 -10 760 -4 0 -330 -158 -724 -351z"/>
<path fill="#000000" stroke="none" d="M790 8449 c-270 -352 -490 -642 -488
-643 7 -6 1534 -456 1544 -456 11 0 984 1263 984 1277 0 7 -1521 463 -1542
463 -4 0 -228 -288 -498 -641z"/>
<path fill="#000000" stroke="none" d="M19416 8862 c-418 -125 -759 -231 -759
-236 0 -17 968 -1275 982 -1275 22 -1 1541 452 1541 460 0 17 -973 1274 -988
1276 -9 1 -359 -101 -776 -225z"/>
<path fill="#000000" stroke="none" d="M4390 7723 c0 -428 4 -683 9 -678 6 6
124 154 265 330 l254 320 -22 30 c-12 17 -129 177 -260 358 -131 180 -240 327
-242 327 -2 0 -4 -309 -4 -687z"/>
<path fill="#000000" stroke="none" d="M16830 8056 c-140 -193 -254 -356 -254
-362 1 -7 116 -155 255 -330 l254 -318 3 342 c1 188 1 494 0 681 l-3 338 -255
-351z"/>
<path fill="#000000" stroke="none" d="M9226 8086 c-322 -114 -572 -208 -577
-216 -6 -12 -121 -2521 -119 -2607 0 -20 25 -30 251 -103 138 -45 255 -78 259
-73 14 16 1440 2182 1442 2191 2 7 -655 975 -681 1003 -3 4 -262 -84 -575
-195z"/>
<path fill="#000000" stroke="none" d="M11526 8051 c-237 -344 -511 -744 -520
-759 -5 -7 262 -420 710 -1100 394 -598 722 -1093 728 -1100 10 -10 60 3 261
68 137 45 250 82 252 84 5 5 -117 2629 -123 2635 -3 3 -262 97 -575 207 l-570
201 -163 -236z"/>
<path fill="#000000" stroke="none" d="M6940 7244 c-487 -183 -893 -337 -903
-341 -14 -7 34 -79 315 -465 310 -426 334 -456 349 -440 9 9 267 364 574 787
307 424 562 776 568 783 6 8 5 12 -4 11 -8 0 -412 -151 -899 -335z"/>
<path fill="#000000" stroke="none" d="M13642 7572 c10 -26 1154 -1590 1160
-1586 21 13 659 907 652 913 -9 8 -1798 681 -1810 681 -3 0 -4 -4 -2 -8z"/>
<path fill="#000000" stroke="none" d="M5010 7133 c-91 -114 -169 -212 -173
-219 -5 -8 17 -4 59 12 288 108 439 166 446 170 6 4 -127 199 -161 236 -4 5
-81 -85 -171 -199z"/>
<path fill="#000000" stroke="none" d="M16257 7267 c-94 -128 -120 -167 -116
-171 2 -2 85 -34 184 -71 354 -132 340 -128 323 -108 -8 10 -88 109 -176 220
l-161 203 -54 -73z"/>
<path fill="#000000" stroke="none" d="M7614 6534 c-319 -438 -579 -799 -579
-801 0 -7 1067 -354 1073 -349 5 5 93 1939 88 1944 -2 1 -264 -355 -582 -794z"/>
<path fill="#000000" stroke="none" d="M13290 7309 c-1 -41 83 -1924 86 -1927
3 -5 1058 339 1067 348 5 4 -251 365 -568 801 -318 437 -579 796 -581 798 -2
2 -4 -7 -4 -20z"/>
<path fill="#000000" stroke="none" d="M5218 6597 c-207 -78 -379 -145 -382
-148 -3 -3 214 -77 482 -164 779 -253 812 -264 804 -250 -26 48 -509 704 -517
704 -5 0 -180 -64 -387 -142z"/>
<path fill="#000000" stroke="none" d="M15616 6384 c-142 -195 -257 -356 -255
-358 2 -1 295 92 651 208 434 141 642 213 632 219 -18 10 -754 287 -764 287
-3 0 -123 -160 -264 -356z"/>
<path fill="#000000" stroke="none" d="M10950 5587 c0 -548 2 -997 4 -997 8 0
1078 349 1081 352 2 3 -1064 1621 -1077 1634 -5 4 -8 -441 -8 -989z"/>
<path fill="#000000" stroke="none" d="M9988 5759 c-295 -448 -535 -815 -534
-816 1 -2 243 -81 537 -176 l534 -173 3 493 c1 271 1 716 0 989 l-3 496 -537
-813z"/>
<path fill="#000000" stroke="none" d="M4380 6050 c0 -49 -9 -441 -20 -871
-12 -430 -19 -783 -17 -785 2 -2 441 151 975 340 l972 343 0 -131 c-1 -72 -11
-536 -24 -1031 -13 -495 -22 -902 -21 -904 4 -3 1619 565 1641 578 7 4 -247
362 -655 923 -367 504 -669 919 -672 922 -6 7 -2156 706 -2170 706 -5 0 -9
-40 -9 -90z"/>
<path fill="#000000" stroke="none" d="M16006 5790 c-588 -192 -1075 -355
-1082 -362 -38 -38 -1333 -1833 -1327 -1838 14 -12 1636 -581 1641 -575 3 3
-7 467 -21 1032 -14 565 -25 1028 -24 1029 1 1 440 -153 976 -343 535 -189
975 -342 976 -341 1 2 -41 1660 -44 1736 -1 6 -7 12 -13 11 -7 -1 -494 -158
-1082 -349z"/>
<path fill="#000000" stroke="none" d="M7267 5182 c10 -16 189 -264 398 -551
292 -402 381 -518 386 -504 9 23 42 803 34 811 -6 6 -815 271 -828 272 -5 0
-1 -13 10 -28z"/>
<path fill="#000000" stroke="none" d="M13807 5075 c-225 -74 -410 -135 -411
-137 -2 -3 30 -716 36 -796 l3 -42 390 537 c215 295 396 545 403 555 11 15 11
18 0 17 -7 0 -197 -61 -421 -134z"/>
<path fill="#000000" stroke="none" d="M8506 4768 c-6 -39 -26 -511 -22 -515
4 -4 295 434 298 448 3 9 -237 99 -264 99 -4 0 -9 -15 -12 -32z"/>
<path fill="#000000" stroke="none" d="M12828 4757 c-71 -22 -128 -44 -128
-48 0 -5 68 -111 151 -236 l151 -228 -6 170 c-11 292 -18 385 -30 384 -6 -1
-68 -20 -138 -42z"/>
<path fill="#000000" stroke="none" d="M11858 4441 c-230 -74 -418 -138 -418
-141 0 -7 1281 -422 1287 -416 3 3 -442 687 -450 692 -1 0 -190 -60 -419 -135z"/>
<path fill="#000000" stroke="none" d="M8978 4228 c-124 -189 -225 -345 -223
-346 3 -3 1205 383 1275 410 21 8 -39 30 -385 143 -226 74 -417 135 -426 135
-9 0 -102 -131 -241 -342z"/>
<path fill="#000000" stroke="none" d="M5084 4204 l-752 -266 -6 -117 c-10
-201 -39 -1491 -33 -1497 5 -6 1507 522 1518 534 4 4 14 304 23 667 9 363 19
724 22 803 5 116 4 142 -7 142 -8 -1 -352 -120 -765 -266z"/>
<path fill="#000000" stroke="none" d="M15630 4389 c1 -137 38 -1531 42 -1534
10 -8 1519 -537 1523 -533 4 3 -35 1611 -39 1614 -3 3 -1487 526 -1505 531
-20 5 -21 1 -21 -78z"/>
<path fill="#000000" stroke="none" d="M9658 3727 c-593 -193 -1078 -355
-1078 -360 0 -4 221 -330 492 -723 393 -571 494 -712 504 -702 7 7 267 384
579 838 312 454 573 831 579 837 9 10 143 -177 596 -837 322 -467 587 -850
590 -850 6 1 982 1420 987 1435 2 7 -2092 696 -2162 711 -5 1 -495 -156 -1087
-349z"/>
<path fill="#000000" stroke="none" d="M10290 2233 c-249 -362 -455 -665 -457
-673 -3 -13 859 -1282 901 -1327 9 -10 113 135 470 653 l458 665 -28 42 c-21
33 -881 1284 -889 1295 -1 1 -206 -294 -455 -655z"/>
</g>
</svg>
