<?xml version="1.0" standalone="no"?>
<!DOCTYPE svg PUBLIC "-//W3C//DTD SVG 20010904//EN"
 "http://www.w3.org/TR/2001/REC-SVG-20010904/DTD/svg10.dtd">
<svg version="1.0" xmlns="http://www.w3.org/2000/svg"
 width="849.000000pt" height="598.000000pt" viewBox="0 0 849.000000 598.000000"
 preserveAspectRatio="xMidYMid meet">
<metadata>
Created by potrace 1.16, written by Peter Selinger 2001-2019
</metadata>
<g transform="translate(0.000000,598.000000) scale(0.100000,-0.100000)"
fill="#000000" stroke="none">
<path fill="#000000" stroke="none" d="M4148 5867 c-16 -29 -28 -56 -28 -60 0
-14 -28 -37 -45 -37 -8 0 -31 15 -50 33 -72 67 -85 77 -100 77 -25 0 -135
-105 -135 -128 0 -16 150 -162 165 -162 4 0 13 -6 21 -14 16 -17 19 -56 4 -56
-5 0 -10 -9 -10 -20 0 -11 -3 -20 -8 -20 -4 0 -16 -20 -27 -45 -11 -25 -23
-45 -27 -45 -5 0 -8 -9 -8 -20 0 -11 -4 -20 -10 -20 -5 0 -10 -7 -10 -15 0 -8
-4 -15 -10 -15 -5 0 -10 -9 -10 -20 0 -11 -4 -20 -10 -20 -5 0 -10 -13 -10
-29 0 -34 23 -41 126 -41 48 0 64 4 64 14 0 7 7 19 15 26 8 7 15 21 15 31 0
11 5 19 10 19 6 0 10 7 10 15 0 8 5 15 10 15 6 0 10 9 10 20 0 11 5 20 10 20
6 0 10 9 10 20 0 11 3 20 8 20 4 0 15 20 25 45 11 25 23 45 28 45 5 0 9 11 9
25 0 14 5 25 10 25 6 0 10 9 10 20 0 11 5 20 10 20 6 0 10 9 10 20 0 11 3 20
8 20 4 0 15 20 25 45 11 25 23 45 28 45 5 0 9 11 9 25 0 14 5 25 10 25 6 0 10
9 10 20 0 11 4 20 9 20 5 0 11 14 13 31 4 25 0 33 -23 45 -15 8 -46 14 -69 14
-22 0 -40 5 -40 10 0 6 -8 10 -17 10 -11 0 -28 -20 -45 -53z"/>
<path fill="#000000" stroke="none" d="M3470 5820 c0 -5 -13 -10 -30 -10 -16
0 -30 -4 -30 -10 0 -5 -7 -10 -16 -10 -19 0 -134 -116 -134 -136 0 -8 -4 -14
-10 -14 -5 0 -10 -11 -10 -24 0 -13 -5 -26 -12 -28 -16 -6 -17 -250 0 -256 7
-2 12 -12 12 -23 0 -22 10 -36 56 -83 51 -50 61 -56 104 -56 22 0 40 -4 40
-10 0 -5 13 -10 29 -10 17 0 33 5 36 10 3 6 26 10 51 10 24 0 44 5 44 10 0 6
8 10 18 10 33 0 132 88 132 117 0 23 -92 123 -114 123 -9 0 -16 -4 -16 -10 0
-5 -7 -10 -15 -10 -8 0 -15 -4 -15 -10 0 -5 -9 -10 -20 -10 -11 0 -20 -4 -20
-10 0 -5 -23 -10 -51 -10 -44 0 -55 4 -75 28 -19 21 -24 39 -24 83 0 49 4 59
34 92 32 35 36 37 99 37 l66 0 12 35 c7 19 17 35 21 35 4 0 8 11 8 24 0 14 5
28 10 31 6 3 10 22 10 41 0 27 -4 34 -20 34 -11 0 -20 5 -20 10 0 6 -32 10
-75 10 -43 0 -75 -4 -75 -10z"/>
<path fill="#000000" stroke="none" d="M5050 5771 c0 -12 -4 -29 -9 -39 -5 -9
-17 -55 -26 -102 -10 -47 -21 -98 -26 -114 -5 -16 -9 -46 -9 -67 0 -22 -4 -39
-10 -39 -5 0 -10 -24 -10 -54 0 -30 -4 -56 -8 -58 -5 -1 -12 -30 -15 -64 l-6
-61 37 -11 c67 -19 185 -34 310 -39 113 -4 122 -6 122 -24 0 -15 7 -19 35 -19
19 0 35 -4 35 -10 0 -5 18 -10 40 -10 22 0 40 -4 40 -9 0 -5 17 -11 38 -14 20
-2 69 -12 107 -22 39 -9 87 -19 108 -22 36 -5 37 -7 35 -40 -2 -38 6 -46 69
-65 24 -7 43 -16 43 -20 0 -4 14 -8 30 -8 17 0 30 -4 30 -10 0 -5 10 -10 23
-10 13 0 27 -4 33 -8 5 -5 36 -17 69 -26 33 -9 68 -21 77 -26 23 -13 48 -2 48
21 0 10 5 19 10 19 6 0 10 9 10 20 0 11 4 20 9 20 5 0 12 12 15 26 9 33 -21
64 -59 64 -14 0 -25 5 -25 10 0 6 -16 10 -35 10 -19 0 -35 4 -35 9 0 5 -12 11
-27 13 -23 2 -29 8 -31 36 -3 30 -1 32 27 32 17 0 31 -4 31 -10 0 -5 9 -10 20
-10 17 0 46 -10 116 -42 29 -14 64 -1 64 23 0 10 4 19 8 19 4 0 14 21 21 46
15 49 8 63 -31 64 -9 0 -20 5 -23 10 -3 6 -19 10 -36 10 -16 0 -29 5 -29 10 0
6 -10 10 -22 10 -13 0 -34 9 -48 19 -22 18 -23 21 -10 45 13 25 40 36 40 16 0
-5 11 -10 24 -10 14 0 27 -4 30 -9 3 -5 18 -11 33 -14 16 -3 49 -13 75 -22 43
-15 49 -16 63 -2 8 9 15 23 15 31 0 9 5 16 10 16 6 0 10 7 10 15 0 8 6 24 12
35 16 25 1 54 -31 58 -11 2 -21 8 -21 13 0 5 -15 9 -34 9 -19 0 -36 3 -38 8
-4 8 -161 62 -183 62 -8 0 -15 5 -15 10 0 6 -16 10 -35 10 -19 0 -35 5 -35 11
0 19 -29 -17 -47 -60 -10 -22 -21 -41 -25 -41 -5 0 -8 -9 -8 -19 0 -11 -16
-50 -35 -88 -19 -37 -35 -74 -35 -80 0 -7 -4 -13 -10 -13 -5 0 -10 -11 -10
-25 0 -14 -4 -25 -10 -25 -5 0 -10 -9 -10 -21 0 -16 -5 -20 -22 -17 -13 2 -22
9 -20 17 5 25 -29 51 -70 51 -21 0 -38 5 -38 10 0 6 -19 10 -42 10 -50 1 -78
18 -78 50 0 27 32 124 43 128 4 2 7 17 7 33 0 16 5 29 10 29 6 0 10 16 10 35
0 19 5 35 10 35 6 0 10 8 10 18 0 9 7 35 15 57 8 22 14 48 15 57 0 24 -50 48
-99 48 -22 0 -41 5 -43 12 -7 19 -38 -16 -38 -41 0 -12 -4 -21 -8 -21 -4 0
-17 -29 -27 -65 -11 -36 -23 -65 -27 -65 -5 0 -8 -13 -8 -30 0 -16 -4 -30 -10
-30 -5 0 -10 -16 -10 -35 0 -19 -4 -35 -10 -35 -5 0 -10 -7 -10 -15 0 -8 -6
-33 -12 -55 -10 -31 -18 -40 -35 -40 -13 0 -23 5 -23 10 0 6 -32 10 -75 10
-43 0 -75 4 -75 10 0 6 -25 10 -55 10 -48 0 -55 2 -55 20 0 11 5 20 10 20 6 0
10 7 10 15 0 17 32 20 58 6 9 -4 54 -11 100 -14 80 -5 82 -4 82 17 0 12 4 26
9 32 5 5 12 30 15 56 l7 46 -53 6 c-29 3 -78 8 -108 12 -59 6 -81 23 -73 54 5
17 14 20 69 20 34 0 66 -4 69 -10 3 -5 32 -10 65 -10 62 0 70 7 70 56 0 13 5
24 10 24 6 0 10 20 10 45 l0 45 -37 0 c-21 0 -58 5 -83 11 -25 6 -90 15 -145
20 -55 5 -117 12 -137 15 -34 6 -38 4 -38 -15z"/>
<path fill="#000000" stroke="none" d="M3020 5730 c0 -5 -16 -10 -35 -10 -19
0 -35 -4 -35 -10 0 -5 -11 -10 -25 -10 -14 0 -35 -9 -47 -20 -20 -19 -20 -21
-4 -62 9 -24 16 -51 16 -61 0 -9 5 -17 10 -17 6 0 10 -13 10 -30 0 -27 -3 -30
-30 -30 -16 0 -30 5 -30 10 0 6 -5 10 -11 10 -7 0 -19 8 -28 18 -9 10 -34 31
-56 47 -22 17 -42 33 -45 36 -3 3 -16 12 -30 19 -17 9 -25 10 -28 1 -2 -6 -10
-11 -18 -11 -8 0 -14 -4 -14 -10 0 -5 -7 -10 -15 -10 -9 0 -21 -5 -28 -10 -7
-6 -23 -18 -36 -28 l-24 -19 24 -91 c13 -51 27 -92 31 -92 5 0 8 -16 8 -35 0
-19 5 -35 10 -35 6 0 10 -12 10 -27 0 -16 9 -52 20 -81 26 -68 26 -92 0 -92
-11 0 -20 5 -20 10 0 6 -9 10 -20 10 -17 0 -20 7 -20 44 0 24 -3 46 -7 48 -11
4 -43 75 -43 93 0 8 -9 15 -20 15 -11 0 -20 -4 -20 -10 0 -5 -9 -10 -20 -10
-11 0 -20 -4 -20 -10 0 -5 -7 -10 -15 -10 -8 0 -15 -4 -15 -9 0 -5 -20 -17
-45 -28 -25 -10 -45 -21 -45 -25 0 -5 -9 -8 -20 -8 -11 0 -20 6 -20 14 0 8 -5
16 -12 18 -18 6 37 58 61 58 11 0 21 3 23 8 3 8 84 62 93 62 11 0 35 28 35 41
0 22 -53 129 -64 129 -19 0 -76 -24 -76 -32 0 -4 -9 -8 -20 -8 -11 0 -20 -3
-20 -7 0 -5 -34 -26 -75 -48 -41 -22 -75 -43 -75 -47 0 -5 -9 -8 -20 -8 -11 0
-20 -4 -20 -10 0 -5 -7 -10 -15 -10 -8 0 -15 -4 -15 -9 0 -5 -9 -13 -20 -16
-14 -4 -20 -15 -20 -36 0 -16 5 -29 10 -29 6 0 10 -11 10 -25 0 -14 5 -25 10
-25 6 0 10 -9 10 -19 0 -11 3 -21 8 -23 8 -3 42 -96 42 -115 0 -18 -38 -16
-56 1 -8 8 -14 22 -14 30 0 9 -4 16 -8 16 -5 0 -17 16 -28 35 -10 19 -22 35
-26 35 -5 0 -8 9 -8 20 0 11 -4 20 -10 20 -5 0 -10 7 -10 15 0 8 -4 15 -10 15
-5 0 -10 7 -10 16 0 22 -32 53 -38 36 -2 -6 -12 -12 -23 -12 -10 0 -19 -4 -19
-10 0 -5 -5 -10 -10 -10 -11 0 -25 -10 -65 -48 -30 -28 -30 -27 0 -81 14 -23
25 -49 25 -57 0 -8 5 -14 10 -14 6 0 10 -7 10 -15 0 -8 5 -15 10 -15 6 0 10
-9 10 -19 0 -11 4 -21 8 -23 11 -4 62 -97 62 -112 0 -6 9 -18 20 -26 11 -8 20
-20 20 -28 0 -13 26 -58 47 -80 6 -6 15 -22 19 -34 8 -25 28 -48 42 -48 6 0
13 -6 15 -12 4 -10 6 -10 6 0 1 6 6 12 11 12 6 0 16 5 23 10 51 44 73 60 79
60 4 0 10 9 13 20 7 21 55 29 55 10 0 -12 57 -14 62 -2 2 4 38 25 81 47 42 22
77 43 77 47 0 5 9 8 20 8 11 0 20 4 20 8 0 4 16 14 35 21 19 7 35 16 35 21 0
5 8 11 18 14 10 4 29 16 42 28 16 15 25 18 28 10 4 -14 72 -16 72 -2 0 6 11
10 25 10 14 0 33 4 43 9 9 5 24 12 34 15 14 4 15 11 6 43 -5 21 -15 59 -21 86
-6 26 -15 47 -19 47 -4 0 -8 14 -8 30 0 17 -4 30 -10 30 -5 0 -10 7 -10 15 0
20 37 19 65 -2 12 -10 33 -25 45 -33 12 -8 28 -21 36 -27 7 -7 15 -13 19 -13
3 0 17 -10 30 -22 40 -38 54 -48 65 -48 5 0 10 -4 10 -10 0 -5 18 -10 40 -10
22 0 40 4 40 8 0 5 16 17 35 28 29 15 35 24 35 51 0 18 -4 41 -9 51 -13 24
-41 117 -41 136 0 9 -4 16 -10 16 -5 0 -10 16 -10 35 0 19 -4 35 -10 35 -5 0
-10 14 -10 30 0 17 -4 30 -10 30 -5 0 -10 16 -10 35 0 19 -4 35 -8 35 -4 0
-17 29 -27 65 -11 36 -23 65 -27 65 -5 0 -8 9 -8 20 0 11 -4 20 -10 20 -5 0
-10 -4 -10 -10z"/>
<path fill="#000000" stroke="none" d="M1747 5462 c-54 -33 -73 -127 -33 -167
17 -17 61 -20 79 -5 44 38 53 49 64 80 9 22 9 38 3 44 -6 6 -10 17 -10 26 0
17 -40 41 -63 39 -7 0 -24 -8 -40 -17z"/>
<path fill="#000000" stroke="none" d="M6660 5160 c0 -5 -11 -10 -24 -10 -24
0 -118 -47 -124 -62 -2 -4 -8 -8 -13 -8 -11 0 -59 -45 -59 -55 0 -4 -6 -13
-12 -20 -37 -41 -58 -80 -58 -105 0 -11 -4 -20 -10 -20 -6 0 -10 -28 -10 -65
0 -37 4 -65 10 -65 6 0 10 -7 10 -16 0 -8 6 -21 13 -28 6 -7 21 -25 32 -39 11
-15 23 -27 27 -27 5 0 23 -14 40 -31 18 -17 45 -33 60 -36 15 -3 28 -9 28 -14
0 -5 45 -9 100 -9 l100 0 0 78 c0 47 -5 83 -12 90 -7 7 -31 12 -55 12 -24 0
-43 5 -43 10 0 6 -9 10 -20 10 -12 0 -32 11 -45 25 -20 19 -25 34 -25 75 0 27
5 50 10 50 6 0 10 5 10 11 0 16 26 39 44 39 9 0 16 5 16 10 0 6 26 10 58 10
53 0 59 -3 87 -35 33 -38 72 -46 99 -20 8 8 22 15 30 15 9 0 16 5 16 10 0 6 7
10 15 10 8 0 15 5 15 10 0 6 9 10 20 10 55 0 -23 118 -99 149 -17 8 -31 17
-31 22 0 5 -16 9 -35 9 -19 0 -35 5 -35 10 0 6 -28 10 -65 10 -37 0 -65 -4
-65 -10z"/>
<path fill="#000000" stroke="none" d="M1615 5103 c-11 -3 -24 -9 -29 -14 -6
-5 -18 -9 -28 -9 -10 0 -18 -4 -18 -10 0 -5 -9 -10 -20 -10 -11 0 -20 -3 -20
-7 0 -5 -16 -26 -35 -48 -19 -22 -40 -45 -45 -52 -6 -7 -10 -21 -10 -33 0 -11
-4 -20 -9 -20 -8 0 -25 -107 -22 -140 6 -76 14 -120 22 -120 5 0 9 -6 9 -14 0
-44 122 -186 160 -186 11 0 20 -4 20 -10 0 -6 32 -10 75 -10 43 0 75 4 75 10
0 6 14 10 30 10 17 0 30 5 30 10 0 6 5 10 10 10 23 0 130 107 130 130 0 5 3
10 8 10 8 0 32 70 32 93 0 14 -40 37 -65 37 -8 0 -15 5 -15 10 0 6 -22 10 -49
10 -44 0 -50 -3 -60 -28 -6 -15 -22 -40 -35 -55 -19 -22 -32 -27 -71 -27 -42
0 -52 5 -81 35 -30 29 -34 41 -34 85 0 76 22 108 88 130 l43 13 -3 101 -3 101
-30 2 c-16 0 -39 -1 -50 -4z"/>
<path fill="#000000" stroke="none" d="M970 4935 c0 -8 -4 -15 -8 -15 -15 0
-44 -77 -38 -96 15 -46 86 -99 86 -64 0 6 11 10 25 10 16 0 25 6 25 15 0 8 5
15 10 15 6 0 10 9 10 20 0 11 5 20 10 20 6 0 10 16 10 35 0 19 -4 35 -10 35
-5 0 -10 9 -10 20 0 18 -7 20 -55 20 -42 0 -55 -3 -55 -15z"/>
<path fill="#000000" stroke="none" d="M7100 4940 c0 -5 -9 -20 -19 -32 -62
-72 -71 -84 -71 -94 0 -14 33 -44 48 -44 7 0 12 -4 12 -10 0 -5 5 -10 11 -10
7 0 23 -12 36 -26 25 -27 24 -34 -17 -74 -8 -8 -28 -33 -45 -55 -16 -22 -37
-47 -47 -56 -10 -9 -18 -22 -18 -28 0 -7 -6 -18 -12 -25 -7 -7 -26 -30 -43
-51 -16 -21 -36 -44 -42 -51 -21 -20 -16 -54 7 -54 11 0 20 -4 20 -8 0 -5 16
-17 35 -28 19 -10 35 -22 35 -26 0 -5 12 -8 26 -8 18 0 39 13 65 40 22 22 39
43 39 48 0 4 20 28 45 54 25 27 45 52 45 58 0 10 16 31 63 82 15 17 27 34 27
39 0 5 9 9 20 9 11 0 20 -4 20 -10 0 -5 7 -10 15 -10 8 0 15 -4 15 -10 0 -5 8
-10 18 -10 10 0 24 -9 32 -20 8 -11 23 -20 33 -20 19 0 87 62 87 80 0 5 4 10
8 10 8 0 32 43 32 55 0 3 -7 5 -15 5 -9 0 -28 11 -43 25 -15 14 -31 25 -37 25
-6 0 -17 9 -25 20 -8 11 -22 20 -32 20 -10 0 -18 5 -18 10 0 6 -7 10 -15 10
-8 0 -15 4 -15 9 0 5 -8 12 -19 16 -16 5 -31 16 -78 55 -7 5 -17 10 -23 10 -5
0 -10 5 -10 10 0 6 -9 10 -20 10 -11 0 -20 3 -20 8 0 4 -16 16 -35 26 -19 11
-35 23 -35 28 0 4 -9 8 -20 8 -11 0 -20 -4 -20 -10z"/>
<path fill="#000000" stroke="none" d="M1126 4775 c-14 -14 -30 -25 -36 -25
-5 0 -10 -5 -10 -10 0 -6 -11 -22 -25 -36 -29 -29 -30 -37 -10 -58 8 -8 15
-19 15 -25 0 -6 5 -11 10 -11 6 0 10 -7 10 -15 0 -8 5 -15 10 -15 6 0 10 -5
10 -10 0 -6 20 -30 45 -54 25 -25 45 -49 45 -56 0 -6 24 -34 53 -63 28 -29 65
-70 82 -92 43 -59 92 -105 110 -105 14 0 78 58 113 102 15 19 3 50 -30 79 -10
9 -18 19 -18 23 0 3 -16 23 -35 43 -19 20 -35 41 -35 45 0 5 -15 24 -32 42
-42 42 -78 85 -78 91 0 3 -15 20 -32 38 -18 18 -42 46 -53 61 -28 39 -64 76
-75 76 -5 0 -20 -11 -34 -25z"/>
<path fill="#000000" stroke="none" d="M903 4615 c-13 -13 -23 -27 -23 -30 0
-3 -25 -31 -55 -61 -30 -31 -55 -60 -55 -66 0 -5 -25 -34 -55 -63 -30 -30 -55
-61 -55 -69 0 -8 -6 -16 -12 -19 -8 -2 15 -31 55 -70 37 -36 67 -69 67 -72 0
-8 27 -35 35 -35 8 0 55 -47 55 -55 0 -10 69 -75 80 -75 5 0 10 -4 10 -9 0
-14 118 -131 133 -131 8 0 20 11 27 25 7 14 17 25 22 25 13 0 38 26 38 39 0 6
5 11 10 11 6 0 10 11 10 25 0 17 -20 44 -65 89 -59 59 -81 96 -55 96 6 0 10 5
10 11 0 6 25 35 55 64 30 30 55 61 55 69 0 8 6 16 12 18 14 5 -83 108 -101
108 -14 0 -131 -115 -131 -129 0 -11 -24 -21 -50 -21 -45 0 -27 62 35 125 19
19 35 37 35 40 0 3 11 18 25 33 14 15 25 30 25 34 0 4 -11 18 -25 32 -14 14
-25 28 -25 31 0 9 -48 55 -57 54 -4 0 -18 -11 -30 -24z"/>
<path fill="#000000" stroke="none" d="M7385 4295 l-216 -215 21 -22 c11 -12
20 -25 20 -30 0 -4 8 -8 18 -8 10 0 24 -9 32 -20 8 -11 20 -20 27 -20 7 0 13
-4 13 -10 0 -18 20 -10 50 20 32 33 63 38 87 15 11 -11 13 -24 8 -43 -4 -15
-10 -61 -12 -103 l-4 -77 71 -13 c54 -9 73 -10 82 -1 19 19 48 14 48 -8 0 -11
-4 -20 -8 -20 -14 0 -52 -36 -52 -49 0 -7 10 -22 23 -35 12 -12 31 -34 42 -49
11 -15 25 -27 32 -27 7 0 13 -4 13 -10 0 -18 35 -11 50 10 8 11 20 20 28 20 7
0 32 20 56 45 25 25 50 45 58 45 7 0 20 9 28 20 8 11 18 20 23 20 4 0 19 10
32 23 62 56 75 67 80 67 3 0 21 15 40 33 44 42 63 57 70 57 12 0 35 29 35 45
0 16 -112 135 -127 135 -5 0 -26 -16 -46 -35 -20 -19 -42 -35 -48 -35 -7 0
-19 -8 -28 -18 -25 -28 -64 -52 -83 -52 -30 0 -23 57 10 88 60 57 75 149 35
226 -15 28 -175 196 -187 196 -4 0 -19 11 -34 25 -15 14 -37 25 -49 25 -15 0
-87 -65 -238 -215z"/>
<path fill="#000000" stroke="none" d="M1850 4310 c0 -12 10 -32 23 -45 57
-62 67 -75 67 -80 0 -4 6 -12 13 -19 6 -7 26 -30 42 -51 17 -21 40 -48 53 -61
12 -13 22 -30 22 -39 0 -8 5 -15 10 -15 6 0 10 -37 10 -90 0 -53 -4 -90 -10
-90 -5 0 -10 -22 -10 -50 0 -27 -4 -50 -10 -50 -5 0 -10 -18 -10 -40 0 -22 -4
-40 -10 -40 -5 0 -10 -17 -10 -37 0 -21 -9 -65 -19 -98 -10 -33 -22 -86 -25
-117 -4 -32 -12 -60 -17 -63 -5 -4 -9 -24 -9 -46 0 -21 -4 -39 -10 -39 -6 0
-10 -27 -10 -60 0 -33 -4 -60 -9 -60 -5 0 -11 -17 -14 -37 -2 -21 -17 -85 -32
-143 -15 -58 -29 -131 -32 -162 -3 -32 -9 -58 -14 -58 -5 0 -9 -20 -9 -45 0
-25 -4 -45 -10 -45 -5 0 -10 -18 -10 -41 0 -22 -4 -48 -10 -58 -12 -23 -40
-158 -40 -193 0 -15 -4 -30 -10 -33 -5 -3 -10 -22 -10 -41 0 -19 -4 -34 -10
-34 -5 0 -10 -25 -10 -55 0 -30 -4 -55 -10 -55 -5 0 -10 -14 -10 -31 0 -17 -5
-39 -10 -49 -6 -11 -13 -46 -17 -80 -3 -33 -10 -60 -14 -60 -5 0 -9 -18 -9
-39 0 -22 -4 -43 -10 -46 -5 -3 -10 -31 -10 -61 0 -30 -4 -54 -10 -54 -20 0
-9 -30 13 -35 12 -3 287 -4 611 -3 l589 3 8 25 c4 14 12 59 19 100 6 41 16 83
21 92 5 10 9 34 9 53 0 19 5 35 10 35 6 0 10 23 10 50 0 28 5 50 10 50 6 0 10
10 10 23 0 13 9 63 21 113 11 49 24 105 28 124 5 19 12 43 16 52 15 37 -16 48
-140 48 -129 0 -145 -6 -145 -59 0 -17 -4 -31 -10 -31 -5 0 -10 -25 -10 -55 0
-30 -4 -55 -10 -55 -5 0 -10 -9 -10 -20 0 -31 -28 -38 -150 -35 l-115 2 -3 46
c-2 25 4 70 12 98 9 29 16 70 16 91 0 21 4 38 9 38 9 0 18 47 27 143 3 31 10
57 15 57 5 0 9 13 9 29 0 17 5 33 10 36 6 3 10 15 10 26 0 18 8 19 145 19 80
0 145 4 145 8 0 4 20 21 45 36 25 16 45 33 45 37 0 5 7 9 15 9 8 0 24 10 37
23 13 12 36 31 52 42 15 11 34 26 41 33 8 6 16 12 20 12 4 0 12 6 19 13 8 6
23 19 35 27 15 10 21 25 21 52 0 21 5 38 10 38 6 0 10 16 10 35 0 19 4 35 9
35 10 0 20 77 13 98 -3 9 -67 12 -274 12 l-270 0 6 43 c4 23 9 68 12 100 3 31
10 57 15 57 5 0 9 18 9 40 0 22 5 40 10 40 6 0 10 20 10 45 0 25 5 45 10 45 6
0 10 20 10 45 0 25 5 45 10 45 6 0 10 13 10 29 0 61 -1 61 151 61 l139 0 0
-35 c0 -19 -4 -35 -9 -35 -5 0 -11 -24 -14 -52 -3 -29 -9 -68 -12 -85 -8 -38
-19 -36 134 -34 123 2 141 9 141 55 0 14 6 40 14 58 8 18 20 68 27 111 7 42
17 77 21 77 15 0 8 52 -9 75 -10 12 -25 33 -33 45 -8 12 -21 28 -27 36 -7 7
-13 15 -13 19 0 3 -9 15 -20 27 -11 12 -20 28 -20 35 0 7 -7 13 -15 13 -8 0
-15 9 -15 19 0 11 -9 23 -20 26 -11 3 -20 13 -20 22 0 8 -13 27 -28 41 -16 15
-34 37 -41 50 -6 12 -18 22 -26 22 -8 0 -15 5 -15 10 0 7 -202 10 -585 10
-583 0 -585 0 -585 -20z"/>
<path fill="#000000" stroke="none" d="M3170 4322 c0 -9 35 -55 68 -88 12 -13
22 -27 22 -31 0 -5 16 -26 35 -46 19 -20 35 -42 35 -48 0 -6 6 -16 13 -23 6
-7 21 -25 32 -41 11 -15 30 -38 43 -51 22 -23 31 -84 13 -84 -5 0 -11 -17 -14
-37 -7 -55 -46 -243 -57 -279 -6 -17 -10 -47 -10 -67 0 -20 -4 -37 -9 -37 -5
0 -11 -21 -14 -47 -2 -27 -12 -75 -22 -108 -9 -33 -19 -81 -22 -107 -3 -27 -9
-48 -14 -48 -5 0 -9 -20 -9 -45 0 -25 -4 -45 -10 -45 -5 0 -10 -22 -10 -50 0
-27 -4 -50 -10 -50 -5 0 -10 -20 -10 -44 0 -25 -4 -47 -9 -50 -5 -3 -11 -23
-14 -43 -3 -21 -13 -69 -22 -108 -9 -38 -19 -89 -22 -112 -3 -24 -9 -43 -14
-43 -5 0 -9 -20 -9 -45 0 -25 -4 -45 -10 -45 -5 0 -10 -19 -10 -43 0 -24 -4
-47 -9 -53 -5 -5 -11 -27 -14 -49 -9 -66 -31 -163 -39 -171 -5 -4 -8 -25 -8
-46 0 -21 -4 -38 -10 -38 -5 0 -10 -25 -10 -55 0 -30 -4 -55 -10 -55 -5 0 -10
-11 -10 -24 0 -13 -11 -72 -25 -130 -14 -58 -25 -122 -25 -141 l0 -35 710 0
c671 0 709 1 703 18 -4 9 -15 26 -25 36 -10 11 -18 30 -18 43 0 13 -4 23 -10
23 -5 0 -10 20 -10 45 0 25 5 45 10 45 6 0 10 19 10 43 0 24 4 47 9 53 5 5 11
27 14 49 3 22 13 69 22 105 9 36 19 84 22 108 3 23 9 42 14 42 5 0 9 23 9 50
0 28 5 50 10 50 6 0 10 14 10 30 l0 30 -184 0 c-166 0 -185 -2 -191 -17 -12
-28 -37 -134 -42 -179 -6 -56 -30 -65 -152 -63 -133 2 -131 1 -131 59 0 27 5
52 10 55 6 3 10 26 10 51 0 24 5 44 10 44 6 0 10 25 10 55 0 30 5 55 10 55 6
0 10 14 10 31 0 16 6 51 14 77 8 26 20 73 27 105 l12 57 141 0 141 0 45 35
c25 19 50 39 57 45 7 5 15 10 18 10 3 0 16 10 29 23 28 26 68 56 104 77 14 8
37 25 49 38 13 12 28 22 32 22 4 0 22 14 39 30 18 17 37 30 43 30 6 0 16 6 23
13 7 6 25 21 39 32 27 20 36 45 17 45 -5 0 -10 25 -10 55 l0 55 -324 0 -323 0
5 53 c3 28 9 54 13 55 5 2 9 24 9 48 0 24 4 44 9 44 5 0 11 21 14 48 6 51 50
256 62 285 6 15 23 17 140 17 l132 0 -5 -52 c-3 -29 -9 -54 -13 -56 -5 -2 -9
-24 -9 -48 0 -24 -4 -44 -10 -44 -5 0 -10 -9 -10 -20 0 -19 7 -20 190 -20
l189 0 11 43 c5 23 15 56 20 73 6 17 10 47 10 67 0 20 5 37 10 37 6 0 10 20
10 45 0 25 4 45 9 45 5 0 11 21 14 48 3 26 10 65 15 87 6 22 16 67 22 100 7
33 16 68 21 77 5 10 9 36 9 58 0 22 5 40 10 40 6 0 10 7 10 15 0 13 -100 15
-840 15 -462 0 -840 -4 -840 -8z"/>
<path fill="#000000" stroke="none" d="M4953 4315 c-7 -8 -13 -30 -13 -50 0
-20 -5 -46 -11 -57 -15 -28 -38 -125 -39 -160 0 -16 -4 -28 -10 -28 -5 0 -10
-25 -10 -55 0 -30 -4 -55 -10 -55 -5 0 -10 -25 -10 -55 0 -30 -4 -55 -9 -55
-5 0 -11 -17 -14 -37 -11 -79 -28 -156 -37 -174 -6 -10 -10 -31 -10 -48 0 -17
-4 -31 -10 -31 -5 0 -10 -22 -10 -50 0 -27 -4 -50 -10 -50 -5 0 -10 -18 -10
-40 0 -22 -4 -40 -10 -40 -6 0 -10 -28 -10 -65 0 -56 3 -65 18 -65 10 0 24 -9
32 -20 8 -11 18 -20 23 -20 4 0 19 -10 32 -22 40 -38 54 -48 65 -48 5 0 10 -4
10 -10 0 -5 8 -10 18 -10 10 0 24 -9 32 -20 8 -11 20 -20 28 -20 7 0 23 -11
36 -25 13 -14 30 -25 37 -25 8 0 21 -9 29 -20 8 -11 19 -20 25 -20 6 0 22 -11
37 -25 15 -14 33 -25 40 -25 8 0 20 -9 28 -20 8 -11 20 -20 27 -20 7 0 13 -4
13 -9 0 -5 14 -14 30 -21 17 -7 30 -19 30 -26 0 -8 9 -14 20 -14 11 0 20 -4
20 -10 0 -5 6 -10 14 -10 8 0 16 -3 18 -8 5 -12 105 -82 117 -82 6 0 11 -4 11
-10 0 -5 5 -10 10 -10 6 0 16 -5 23 -10 46 -39 61 -50 69 -50 4 0 8 -7 8 -15
0 -9 9 -15 21 -15 36 0 49 -24 49 -89 0 -33 -4 -62 -9 -65 -5 -3 -17 -49 -27
-101 -10 -52 -21 -95 -26 -95 -4 0 -8 -8 -8 -17 0 -17 -18 -18 -228 -18 -165
-1 -230 3 -240 12 -8 7 -9 14 -2 18 5 3 10 31 10 61 0 30 5 54 10 54 6 0 10
20 10 45 0 25 5 45 10 45 6 0 10 9 10 20 0 11 -4 20 -10 20 -5 0 -10 6 -10 14
0 7 -13 19 -30 26 -16 7 -30 16 -30 21 0 5 -7 9 -15 9 -8 0 -15 5 -15 10 0 6
-10 10 -23 10 -12 0 -29 9 -37 20 -8 11 -21 20 -30 20 -9 0 -33 16 -53 35 -20
19 -44 35 -52 35 -9 0 -23 6 -31 13 -8 6 -20 17 -27 22 -7 6 -25 17 -42 25
-16 8 -37 23 -46 32 -9 10 -24 18 -33 18 -9 0 -16 4 -16 8 0 8 -58 32 -78 32
-7 0 -12 -11 -12 -24 0 -14 -5 -37 -11 -53 -6 -15 -14 -55 -19 -88 -4 -33 -15
-86 -24 -118 -9 -32 -16 -74 -16 -92 0 -19 -4 -35 -10 -35 -5 0 -10 -22 -10
-50 0 -27 -4 -50 -10 -50 -5 0 -10 -15 -10 -34 0 -19 -5 -47 -11 -63 -14 -36
-39 -151 -39 -180 0 -13 -4 -23 -10 -23 -5 0 -10 -20 -10 -45 0 -25 -4 -45
-10 -45 -5 0 -10 -25 -10 -55 0 -30 3 -55 8 -55 4 0 14 -15 21 -32 19 -42 35
-58 58 -58 10 0 25 -9 33 -20 14 -20 26 -20 827 -20 803 0 812 0 818 20 3 11
11 20 16 20 5 0 9 25 9 55 0 30 5 55 10 55 6 0 10 20 10 45 0 25 5 45 10 45 6
0 10 23 10 50 0 28 4 50 9 50 5 0 11 24 14 53 3 28 14 88 26 132 11 44 20 92
21 108 0 15 5 27 10 27 6 0 10 18 10 39 0 22 5 43 10 46 6 3 10 26 10 51 0 24
5 44 10 44 6 0 10 18 10 39 0 22 5 43 10 46 6 3 10 20 10 36 0 34 27 152 43
186 11 24 -7 83 -25 83 -5 0 -16 6 -23 13 -33 29 -45 37 -54 37 -6 0 -16 9
-23 20 -7 11 -21 20 -30 20 -10 0 -18 6 -18 14 0 7 -13 19 -30 26 -16 7 -30
16 -30 21 0 5 -7 9 -15 9 -8 0 -15 5 -15 10 0 6 -8 10 -18 10 -10 0 -24 9 -32
20 -8 11 -19 20 -25 20 -6 0 -22 11 -37 25 -15 14 -33 25 -40 25 -8 0 -20 9
-28 20 -8 11 -19 20 -25 20 -6 0 -22 11 -37 25 -15 14 -32 25 -37 25 -6 0 -16
9 -23 20 -7 11 -20 20 -28 20 -9 0 -22 9 -30 20 -8 11 -19 20 -25 20 -6 0 -22
11 -37 25 -15 14 -33 25 -40 25 -7 0 -19 9 -26 20 -7 11 -18 20 -25 20 -7 0
-24 11 -39 25 -15 14 -32 25 -38 25 -7 0 -27 16 -46 35 -18 19 -39 35 -45 35
-6 0 -18 7 -26 16 -14 13 -14 21 -5 48 7 18 12 49 12 69 0 20 5 37 10 37 6 0
10 16 10 35 0 19 5 35 10 35 6 0 10 9 10 20 0 19 7 20 231 20 l231 0 -6 -52
c-20 -166 -20 -157 11 -184 15 -13 31 -24 35 -24 4 0 13 -6 20 -12 7 -7 27
-20 43 -28 17 -8 37 -23 46 -32 9 -10 23 -18 32 -18 18 0 79 -38 114 -70 12
-11 28 -20 36 -20 7 0 22 -8 33 -18 10 -9 32 -23 47 -29 15 -7 30 -20 33 -28
4 -8 15 -15 25 -15 10 0 19 -4 19 -10 0 -5 7 -10 15 -10 8 0 15 -4 15 -10 0
-16 27 -11 34 6 3 9 6 27 6 40 0 13 5 24 10 24 6 0 10 20 10 45 0 25 5 45 10
45 6 0 10 25 10 55 0 30 4 55 9 55 5 0 11 17 14 38 9 70 32 162 39 162 5 0 8
20 8 45 0 25 5 45 10 45 6 0 10 25 10 55 0 30 5 55 10 55 6 0 10 20 10 45 0
25 5 45 10 45 6 0 10 17 10 39 0 21 6 54 14 72 12 29 12 39 -1 72 -8 20 -19
37 -24 37 -5 0 -9 5 -9 10 0 6 -9 20 -20 32 -11 12 -20 28 -20 35 0 20 -1670
18 -1687 -2z"/>
<path fill="#000000" stroke="none" d="M510 4209 c-14 -18 -27 -37 -29 -43 -2
-6 -12 -18 -23 -27 -10 -9 -18 -24 -18 -33 0 -9 -4 -16 -8 -16 -4 0 -16 -15
-27 -32 -10 -18 -27 -40 -37 -49 -10 -9 -18 -24 -18 -33 0 -9 -4 -16 -10 -16
-5 0 -10 -7 -10 -15 0 -8 -4 -15 -10 -15 -5 0 -10 -13 -10 -30 0 -16 5 -30 10
-30 6 0 10 -6 10 -13 0 -8 11 -20 25 -27 14 -7 25 -17 25 -22 0 -4 7 -8 15 -8
8 0 15 -4 15 -10 0 -5 7 -10 15 -10 8 0 15 -7 15 -15 0 -8 4 -15 8 -15 4 0 24
-15 44 -32 20 -18 49 -42 64 -53 47 -34 84 -72 84 -87 0 -14 -53 -48 -76 -48
-8 0 -14 10 -14 21 0 24 -39 62 -82 82 -16 6 -28 15 -28 19 0 17 -32 7 -37
-12 -3 -11 -9 -20 -13 -20 -4 0 -16 -20 -27 -45 -10 -25 -21 -45 -25 -45 -5 0
-8 -7 -8 -16 0 -23 -25 -44 -53 -44 -25 0 -45 28 -30 39 5 3 17 25 27 49 11
23 23 42 28 42 4 0 8 9 8 20 0 11 5 20 10 20 6 0 10 9 10 20 0 11 5 20 10 20
14 0 12 39 -2 54 -7 7 -28 21 -45 31 -18 11 -33 23 -33 27 0 4 -13 8 -28 8
-23 0 -31 -7 -42 -35 -8 -19 -17 -35 -20 -35 -4 0 -15 -20 -26 -45 -10 -25
-22 -45 -26 -45 -4 0 -8 -9 -8 -20 0 -11 -4 -20 -10 -20 -5 0 -10 -6 -10 -12
0 -7 -16 -44 -35 -81 -48 -93 -46 -104 20 -137 17 -8 41 -25 55 -37 14 -13 29
-23 35 -23 6 0 17 -9 25 -20 8 -11 22 -20 32 -20 10 0 18 -4 18 -8 0 -5 16
-17 35 -28 19 -10 35 -22 35 -26 0 -5 9 -8 20 -8 11 0 20 -4 20 -10 0 -5 7
-10 15 -10 8 0 15 -4 15 -10 0 -5 6 -10 13 -10 6 0 25 -11 41 -25 16 -14 35
-25 43 -25 7 0 13 -4 13 -10 0 -5 13 -10 29 -10 24 0 33 8 60 58 48 88 65 117
74 120 4 2 7 12 7 23 0 10 5 19 10 19 6 0 10 7 10 15 0 9 11 33 25 55 14 22
25 46 25 54 0 8 6 17 13 20 10 5 10 7 0 12 -22 10 -14 24 13 24 29 0 42 11 69
58 11 17 23 32 27 32 4 0 8 9 8 19 0 11 6 22 13 25 10 5 10 7 0 12 -7 3 -13
10 -13 16 0 10 -25 38 -35 38 -3 0 -16 10 -29 23 -13 12 -33 29 -45 37 -21 15
-29 50 -11 50 6 0 10 9 10 20 0 11 5 20 10 20 6 0 10 5 10 11 0 6 6 17 13 24
27 31 36 43 51 73 13 26 14 35 4 52 -7 11 -18 20 -25 20 -7 0 -13 5 -13 10 0
6 -5 10 -11 10 -7 0 -21 11 -33 25 l-22 26 -27 -31 c-15 -17 -33 -42 -39 -55
-6 -14 -15 -25 -20 -25 -4 0 -8 -7 -8 -15 0 -8 -4 -15 -10 -15 -5 0 -10 -9
-10 -20 0 -11 -6 -20 -14 -20 -8 0 -16 -5 -18 -12 -3 -8 -15 -2 -33 16 -15 15
-24 31 -19 35 5 3 16 20 24 36 8 17 25 41 38 55 12 14 22 29 22 35 0 6 9 17
20 25 11 8 20 25 20 38 0 24 -49 82 -69 82 -6 0 -11 5 -11 10 0 22 -46 8 -70
-21z"/>
<path fill="#000000" stroke="none" d="M8184 4178 c-33 -15 -46 -52 -31 -85
23 -52 52 -73 102 -73 51 0 68 11 78 52 10 39 -11 77 -55 99 -41 21 -62 23
-94 7z"/>
<path fill="#000000" stroke="none" d="M8090 3732 c-25 -2 -49 -7 -54 -13 -6
-5 -20 -9 -33 -9 -13 0 -23 -4 -23 -10 0 -5 -7 -10 -17 -10 -22 0 -125 -106
-146 -152 -22 -47 -22 -137 1 -185 9 -21 20 -39 25 -41 4 -2 7 -10 7 -18 0
-21 93 -114 114 -114 9 0 16 -3 16 -7 0 -13 52 -33 82 -33 21 0 28 5 28 20 0
11 4 20 8 20 10 0 42 87 42 113 0 9 -6 17 -12 17 -20 0 -96 72 -106 100 -25
69 31 140 112 140 72 0 136 -49 136 -105 0 -9 7 -23 15 -32 16 -15 75 -14 168
2 36 7 37 8 37 51 0 24 -4 44 -10 44 -5 0 -10 7 -10 15 0 19 -27 63 -52 86
-10 9 -18 20 -18 23 0 11 -27 36 -39 36 -6 0 -11 5 -11 10 0 6 -9 10 -20 10
-11 0 -20 5 -20 10 0 6 -8 10 -18 10 -10 0 -22 4 -27 9 -12 10 -111 18 -175
13z"/>
<path fill="#000000" stroke="none" d="M6930 2650 c-47 -49 -92 -89 -100 -89
-9 -1 -22 -10 -30 -21 -8 -11 -22 -20 -32 -20 -9 0 -20 -4 -23 -10 -3 -5 -13
-10 -21 -10 -18 0 -44 -24 -44 -39 0 -6 -11 -11 -25 -11 -14 0 -25 -4 -25 -10
0 -5 -9 -10 -20 -10 -11 0 -20 -4 -20 -10 0 -5 -9 -10 -20 -10 -11 0 -20 -4
-20 -10 0 -5 -9 -10 -20 -10 -11 0 -23 -7 -26 -15 -4 -8 -15 -15 -25 -15 -12
0 -19 -7 -19 -20 0 -11 -4 -20 -10 -20 -5 0 -10 -20 -10 -44 0 -26 -5 -46 -12
-49 -8 -2 -9 -8 -4 -13 5 -5 11 -4 13 4 3 7 23 12 49 12 41 0 44 -2 44 -28 0
-29 -29 -62 -55 -62 -8 0 -15 -4 -15 -10 0 -5 -9 -10 -20 -10 -11 0 -20 -4
-20 -10 0 -5 -7 -10 -15 -10 -11 0 -15 -12 -15 -45 0 -25 -4 -45 -10 -45 -5 0
-10 -4 -10 -10 0 -5 7 -10 15 -10 8 0 15 5 15 10 0 6 14 10 30 10 17 0 30 5
30 10 0 6 8 10 18 10 10 0 28 9 40 20 12 11 31 20 42 20 12 0 31 11 44 25 13
14 31 25 40 25 9 0 16 5 16 10 0 6 9 10 19 10 11 0 23 5 26 10 3 6 13 10 21
10 18 0 44 24 44 39 0 6 11 11 25 11 14 0 25 5 25 10 0 6 7 10 16 10 9 0 29
14 44 30 15 17 34 30 40 30 17 0 120 108 120 126 0 8 5 14 10 14 6 0 10 9 10
20 0 11 5 20 10 20 6 0 10 32 10 76 0 74 -11 104 -39 104 -6 0 -11 20 -11 45
0 25 -3 45 -7 44 -5 0 -46 -40 -93 -89z"/>
<path fill="#000000" stroke="none" d="M6330 1865 c0 -19 -4 -35 -10 -35 -5 0
-10 -15 -10 -34 0 -19 5 -38 10 -41 15 -9 12 -35 -4 -35 -17 0 -32 -39 -41
-100 -5 -45 -5 -46 35 -70 23 -14 48 -31 55 -37 7 -7 18 -13 24 -13 6 0 11 -4
11 -10 0 -5 14 -10 30 -10 19 0 30 -5 30 -14 0 -7 15 -19 33 -26 53 -20 77
-33 77 -42 0 -4 9 -8 20 -8 11 0 20 -4 20 -10 0 -5 7 -10 15 -10 8 0 15 -4 15
-10 0 -5 8 -10 18 -10 18 0 55 -26 98 -67 13 -13 29 -23 37 -23 26 0 204 -168
227 -215 8 -17 22 -37 31 -45 9 -8 20 -30 23 -48 4 -17 12 -32 17 -32 5 0 9
-13 9 -30 0 -16 5 -30 10 -30 6 0 10 -16 10 -35 0 -44 10 -44 33 -2 12 21 18
57 19 110 l1 77 29 0 c17 0 28 5 28 14 0 7 7 27 15 42 19 37 19 80 0 134 -8
23 -15 60 -15 81 0 22 -4 39 -10 39 -5 0 -10 9 -10 20 0 12 -11 32 -25 46 -14
14 -25 29 -25 34 0 15 -159 170 -175 170 -8 0 -15 5 -15 10 0 6 -9 10 -19 10
-10 0 -21 7 -24 14 -3 8 -24 20 -46 26 -23 6 -41 15 -41 20 0 6 -7 10 -15 10
-8 0 -15 5 -15 10 0 6 -9 10 -20 10 -11 0 -20 3 -20 8 0 9 -74 42 -95 42 -8 0
-15 3 -15 8 0 10 -50 32 -72 32 -10 0 -18 4 -18 8 0 4 -20 16 -45 26 -25 11
-45 22 -45 26 0 4 -13 10 -29 13 -16 3 -36 13 -44 22 -9 8 -29 15 -46 15 -29
0 -31 -3 -31 -35z"/>
<path fill="#000000" stroke="none" d="M6380 1200 c-8 -5 -30 -10 -47 -10 -18
0 -33 -4 -33 -10 0 -5 -9 -10 -20 -10 -11 0 -20 -4 -20 -10 0 -5 -7 -10 -15
-10 -37 0 -145 -136 -145 -182 0 -19 -21 -38 -42 -38 -11 0 -18 7 -18 20 0 11
-4 20 -10 20 -5 0 -10 5 -10 11 0 7 -7 17 -17 24 -13 10 -22 9 -42 -1 -14 -7
-41 -19 -58 -26 -18 -7 -33 -16 -33 -19 0 -4 -9 -9 -19 -12 -17 -4 -18 -10
-11 -38 4 -19 17 -56 29 -82 27 -63 27 -77 -4 -77 -14 0 -25 5 -25 10 0 6 -9
10 -20 10 -11 0 -20 4 -20 10 0 5 -15 17 -32 26 -18 9 -40 25 -49 35 -9 11
-24 19 -33 19 -9 0 -16 5 -16 10 0 6 -11 10 -25 10 -14 0 -25 -4 -25 -10 0 -5
-7 -10 -16 -10 -9 0 -24 -8 -33 -18 -9 -10 -31 -27 -48 -37 -18 -11 -33 -27
-33 -37 0 -14 -8 -18 -35 -18 -19 0 -35 5 -35 10 0 6 -12 10 -26 10 -14 0 -33
7 -41 16 -13 13 -29 15 -82 9 -36 -4 -67 -11 -69 -16 -2 -5 -12 -9 -23 -9 -10
0 -19 -4 -19 -10 0 -5 -11 -10 -25 -10 -14 0 -25 -4 -25 -9 0 -5 -9 -13 -21
-16 -30 -10 -97 -80 -105 -110 -3 -14 -10 -25 -15 -25 -5 0 -9 -16 -9 -35 0
-19 -4 -35 -10 -35 -5 0 -10 -22 -10 -50 0 -46 -2 -50 -24 -50 -22 0 -25 6
-35 68 -16 99 -21 133 -28 169 l-5 32 -62 -6 c-33 -3 -69 -10 -78 -14 -25 -13
-76 -11 -80 3 -4 10 -16 10 -57 0 -29 -7 -88 -12 -132 -12 -43 0 -79 -4 -79
-9 0 -5 -35 -12 -77 -15 -43 -3 -102 -8 -130 -12 -46 -5 -53 -4 -53 11 0 31
-31 44 -105 45 l-70 0 -13 -40 c-6 -22 -12 -69 -12 -105 0 -37 -4 -65 -10 -65
-6 0 -10 -30 -10 -70 0 -40 -4 -70 -10 -70 -5 0 -10 -6 -10 -14 0 -22 -49 -56
-79 -56 -36 0 -51 17 -51 56 0 18 -4 36 -10 39 -5 3 -10 24 -10 46 0 21 5 39
10 39 6 0 10 47 10 120 l0 120 -80 0 c-73 0 -80 -2 -80 -20 0 -11 -4 -20 -9
-20 -10 0 -17 -39 -31 -180 -11 -101 -4 -270 11 -270 5 0 9 -9 9 -20 0 -11 5
-20 10 -20 6 0 10 -7 10 -16 0 -9 18 -34 40 -55 31 -30 48 -39 74 -39 19 0 38
-4 41 -10 8 -13 65 -13 65 0 0 6 8 10 18 10 48 0 182 96 182 130 0 6 4 10 8
10 19 0 62 131 62 188 0 23 5 42 10 42 6 0 10 7 10 15 0 23 185 22 194 -1 3
-9 6 -100 6 -204 0 -104 3 -195 6 -204 5 -12 21 -16 75 -16 39 0 69 4 69 10 0
6 11 10 25 10 l25 0 0 218 c0 156 3 221 12 230 7 7 34 12 60 12 27 0 63 7 79
16 17 8 33 13 36 11 8 -9 45 -266 50 -354 3 -46 9 -83 14 -83 5 0 9 -11 9 -25
0 -20 5 -25 25 -25 14 0 25 5 25 10 0 6 21 10 48 10 75 1 82 11 82 124 l0 96
29 0 c22 0 31 -6 41 -29 12 -31 82 -101 100 -101 5 0 10 -4 10 -10 0 -6 43
-10 110 -10 67 0 110 4 110 10 0 6 9 10 20 10 11 0 20 4 20 9 0 5 13 14 28 20
16 7 37 26 47 44 10 18 27 39 37 48 10 9 18 21 18 27 0 6 4 12 8 14 15 6 52
139 52 188 0 47 2 50 25 50 22 0 25 -4 25 -35 0 -19 5 -35 10 -35 6 0 10 -9
10 -20 0 -11 4 -20 9 -20 5 0 13 -15 16 -33 4 -17 16 -50 26 -71 11 -22 19
-46 19 -54 0 -23 27 -42 59 -42 17 0 31 5 31 10 0 6 14 10 30 10 17 0 30 5 30
10 0 6 5 10 11 10 14 0 39 25 39 39 0 6 -4 11 -10 11 -5 0 -10 8 -10 18 0 10
-7 27 -15 38 -8 10 -15 27 -15 37 0 9 -4 17 -10 17 -5 0 -10 14 -10 30 0 17
-4 30 -10 30 -5 0 -10 11 -10 25 0 15 6 25 14 25 23 0 80 -27 103 -49 12 -12
26 -21 30 -21 5 0 15 -9 23 -20 8 -11 22 -20 31 -20 15 0 44 -20 82 -57 12
-12 20 -14 25 -7 4 6 19 14 34 18 38 9 78 49 78 78 0 13 -9 42 -19 64 -11 22
-22 56 -26 77 -4 20 -11 40 -16 43 -5 3 -9 14 -9 25 0 10 -4 19 -10 19 -5 0
-10 16 -10 35 0 32 2 35 30 35 17 0 30 -4 30 -10 0 -5 10 -10 23 -10 13 0 32
-7 43 -15 13 -9 31 -12 57 -8 l37 6 0 -37 c0 -33 -2 -36 -28 -36 -32 0 -52
-16 -52 -42 0 -17 35 -126 43 -134 3 -4 67 18 82 28 6 3 27 9 48 13 20 4 40
11 43 16 3 5 14 9 25 9 10 0 19 5 19 10 0 6 7 10 15 10 23 0 105 89 112 121 3
16 9 29 14 29 5 0 9 32 9 70 0 40 -4 70 -10 70 -5 0 -10 9 -10 20 0 22 -58 90
-77 90 -7 0 -13 5 -13 10 0 6 -9 10 -21 10 -11 0 -29 5 -39 10 -13 7 -21 7
-25 0 -3 -5 -17 -10 -31 -10 -13 0 -24 -4 -24 -10 0 -5 -11 -10 -25 -10 -13 0
-28 -6 -32 -14 -13 -21 -52 -38 -73 -31 -34 11 -24 85 11 85 10 0 19 5 19 10
0 6 7 10 16 10 8 0 22 7 30 15 9 8 29 15 45 15 17 0 37 6 45 14 16 17 19 66 4
66 -5 0 -10 18 -10 39 0 26 -5 41 -16 45 -23 9 -47 7 -64 -4z"/>
<path fill="#000000" stroke="none" d="M2110 1160 c0 -5 -7 -10 -15 -10 -16 0
-34 -12 -58 -38 -7 -7 -22 -24 -34 -37 -13 -13 -23 -31 -23 -40 0 -8 -4 -15
-10 -15 -5 0 -10 -24 -10 -54 0 -30 5 -58 10 -61 6 -3 10 -15 10 -26 0 -10 4
-19 10 -19 5 0 20 -10 33 -22 43 -40 82 -68 95 -68 18 0 42 -25 42 -44 0 -13
-12 -16 -55 -16 -30 0 -55 5 -55 10 0 6 -7 10 -16 10 -9 0 -24 8 -33 19 -9 10
-26 21 -38 25 -13 4 -23 14 -23 22 0 14 -27 19 -54 8 -9 -3 -16 -11 -16 -16 0
-6 -13 -23 -30 -38 -16 -15 -30 -35 -30 -44 0 -18 43 -66 58 -66 5 0 18 -10
30 -22 33 -36 50 -48 67 -48 8 0 15 -4 15 -10 0 -5 9 -10 20 -10 11 0 20 -4
20 -9 0 -18 147 -38 163 -22 6 6 19 11 29 11 10 0 18 5 18 10 0 6 7 10 16 10
15 0 64 47 64 61 0 15 39 49 56 49 18 0 19 -7 15 -81 -4 -94 14 -140 77 -193
7 -6 24 -21 37 -34 13 -12 36 -22 50 -22 15 0 34 -7 43 -16 13 -14 30 -16 91
-11 42 3 77 11 79 16 2 6 21 11 43 11 21 0 39 5 39 10 0 6 5 10 10 10 6 0 26
15 45 33 19 17 40 37 47 44 16 15 29 33 44 59 6 10 21 20 33 22 19 3 21 -1 21
-47 0 -28 -4 -51 -10 -51 -5 0 -10 -18 -10 -40 0 -22 -4 -40 -9 -40 -4 0 -11
-26 -14 -57 -3 -32 -9 -67 -12 -78 -5 -18 1 -22 40 -33 25 -6 63 -12 85 -12
22 0 40 -4 40 -10 0 -6 33 -10 80 -10 47 0 80 -4 80 -10 0 -5 22 -10 49 -10
53 0 61 8 61 61 0 16 5 29 10 29 6 0 10 18 10 39 0 42 -11 51 -61 51 -16 0
-29 5 -29 10 0 6 -28 10 -64 10 -47 0 -65 4 -69 15 -8 20 4 115 14 115 5 0 9
17 9 37 0 37 4 53 34 149 9 29 16 72 16 98 0 46 0 46 -35 46 -19 0 -35 5 -35
10 0 15 -80 12 -96 -4 -8 -8 -14 -22 -14 -30 0 -12 -10 -16 -35 -16 -32 0 -35
2 -35 30 0 17 -4 30 -10 30 -5 0 -10 7 -10 15 0 8 -4 15 -9 15 -5 0 -13 9 -16
20 -3 11 -12 20 -20 20 -7 0 -15 7 -18 14 -3 8 -24 20 -46 26 -23 6 -41 15
-41 20 0 6 -16 10 -35 10 -19 0 -35 5 -35 11 0 22 -162 -2 -188 -28 -7 -7 -22
-13 -33 -13 -10 0 -19 -4 -19 -10 0 -5 -5 -10 -10 -10 -11 0 -60 -45 -60 -55
0 -3 -11 -18 -25 -32 -13 -15 -29 -40 -36 -55 -9 -21 -18 -28 -40 -28 -26 0
-29 4 -29 30 0 17 -4 30 -10 30 -5 0 -10 6 -10 14 0 24 -34 76 -50 76 -9 0
-22 9 -30 20 -8 11 -21 20 -28 20 -8 0 -27 8 -43 17 -21 13 -29 25 -29 45 0
26 3 28 43 28 31 0 46 -5 57 -20 8 -11 23 -20 34 -20 10 0 26 -8 35 -18 22
-26 57 -43 74 -36 8 3 20 16 27 30 7 13 19 24 27 24 7 0 13 9 13 20 0 11 5 20
10 20 6 0 10 5 10 10 0 14 -46 60 -60 60 -5 0 -10 5 -10 10 0 6 -7 10 -15 10
-9 0 -18 6 -21 14 -3 8 -19 20 -35 26 -16 7 -29 16 -29 21 0 5 -11 9 -25 9
-14 0 -25 5 -25 10 0 6 -33 10 -80 10 -47 0 -80 -4 -80 -10z"/>
<path fill="#000000" stroke="none" d="M4742 899 c-36 -7 -72 -39 -72 -64 0
-8 -4 -15 -10 -15 -5 0 -10 -8 -10 -17 1 -22 23 -53 39 -53 6 0 11 -4 11 -10
0 -5 14 -10 30 -10 17 0 30 5 30 10 0 6 7 10 15 10 8 0 15 5 15 10 0 6 9 10
20 10 11 0 20 7 20 15 0 8 5 15 10 15 6 0 10 14 10 30 0 17 -4 30 -9 30 -5 0
-11 8 -14 19 -5 22 -39 30 -85 20z"/>
</g>
</svg>
