<?xml version="1.0" standalone="no"?>
<!DOCTYPE svg PUBLIC "-//W3C//DTD SVG 20010904//EN"
 "http://www.w3.org/TR/2001/REC-SVG-20010904/DTD/svg10.dtd">
<svg version="1.0" xmlns="http://www.w3.org/2000/svg"
 width="500.000000pt" height="500.000000pt" viewBox="0 0 500.000000 500.000000"
 preserveAspectRatio="xMidYMid meet">
<metadata>
Created by potrace 1.16, written by Peter Selinger 2001-2019
</metadata>
<g transform="translate(0.000000,500.000000) scale(0.100000,-0.100000)"
fill="#000000" stroke="none">
<path fill="#000000" stroke="none" d="M2393 4771 c-43 -20 -99 -85 -109 -128
-11 -42 14 -79 74 -111 70 -36 123 -45 193 -32 54 10 123 50 139 79 13 25 -25
133 -57 162 -55 51 -163 64 -240 30z"/>
<path fill="#000000" stroke="none" d="M1583 4645 c-50 -42 -114 -149 -149
-247 -28 -78 -111 -235 -254 -483 -14 -24 -34 -53 -45 -65 -22 -25 -162 -118
-228 -151 -23 -12 -94 -56 -157 -98 -107 -72 -156 -98 -317 -172 -34 -16 -67
-37 -72 -48 -6 -10 -17 -49 -25 -87 l-14 -69 32 -35 c53 -57 64 -83 86 -192
48 -233 87 -360 138 -442 40 -64 40 -98 0 -164 -46 -76 -90 -206 -128 -382
-37 -173 -55 -216 -90 -213 -25 1 -25 0 -25 -78 -1 -90 14 -108 45 -56 11 17
20 35 20 38 0 4 15 17 34 30 20 13 43 43 55 69 62 140 100 229 110 262 18 54
83 150 126 185 20 17 66 46 101 63 57 30 74 33 176 38 134 5 335 -12 387 -34
20 -9 57 -22 84 -30 26 -8 62 -28 81 -45 38 -33 46 -26 46 37 0 72 -14 80
-195 115 -128 24 -169 39 -185 69 -22 41 6 62 141 102 68 21 143 41 167 44 60
9 72 25 72 94 0 74 -14 80 -74 33 -75 -58 -298 -113 -460 -113 -174 1 -298 42
-374 124 -59 65 -92 125 -143 263 -32 86 -39 116 -34 149 6 43 -3 59 -40 65
-20 4 -65 62 -65 84 0 33 36 56 103 65 39 6 83 20 105 33 33 21 67 39 204 110
85 43 261 42 379 -2 61 -24 149 -90 232 -176 54 -55 79 -91 118 -173 27 -56
58 -131 70 -165 35 -103 46 -108 102 -39 42 53 45 75 16 117 -11 17 -34 57
-51 90 -17 33 -39 71 -49 84 -28 35 -25 89 5 103 21 9 36 5 99 -25 41 -19 101
-52 133 -72 66 -42 116 -49 158 -21 30 19 70 96 57 109 -5 5 -34 3 -69 -4
l-60 -13 -114 58 c-125 65 -138 74 -253 185 -205 198 -216 390 -47 751 22 47
45 111 51 143 16 87 30 112 66 112 24 0 34 -7 50 -37 16 -31 36 -46 110 -82
49 -24 131 -56 180 -72 102 -31 119 -41 192 -102 143 -122 199 -475 108 -683
-14 -31 -25 -65 -25 -75 0 -11 -11 -43 -25 -73 -18 -38 -29 -51 -40 -47 -8 3
-21 9 -29 12 -16 6 -53 -42 -42 -54 4 -3 46 -8 93 -9 129 -4 150 20 194 217
16 74 35 110 59 110 30 0 58 -46 76 -128 22 -99 57 -177 89 -198 22 -14 31
-15 69 -4 27 7 61 9 86 5 l43 -7 -7 28 c-8 35 -31 54 -63 54 -40 0 -69 41 -98
136 -72 235 -72 434 -1 590 27 58 140 180 191 206 17 9 66 23 110 33 44 9 97
26 117 36 41 21 83 25 93 9 12 -19 37 -10 82 30 25 22 50 40 54 40 16 0 38
-45 49 -100 6 -30 31 -95 56 -145 91 -186 118 -390 68 -521 -49 -131 -216
-308 -317 -335 -23 -6 -58 -19 -77 -29 -20 -10 -67 -19 -113 -22 -43 -3 -82
-9 -88 -15 -14 -14 41 -118 73 -137 42 -25 66 -19 137 33 36 27 94 65 129 86
60 35 64 36 88 21 13 -9 24 -26 24 -37 0 -12 -32 -78 -70 -148 -39 -70 -70
-140 -70 -155 0 -30 34 -67 81 -86 38 -16 45 -9 64 66 8 32 45 120 82 194 78
157 133 220 228 263 33 15 83 40 110 55 64 35 133 34 305 -3 96 -20 148 -38
224 -76 83 -41 113 -51 177 -57 43 -5 88 -4 100 0 12 5 37 6 55 2 26 -5 34 -3
34 9 0 19 -26 41 -39 32 -14 -8 -152 40 -224 78 -60 31 -117 86 -117 113 0 18
-94 64 -132 64 -29 0 -125 48 -248 123 -79 48 -95 69 -184 239 -20 36 -72 115
-117 174 -45 59 -86 119 -92 133 -78 190 -114 239 -201 276 -72 31 -67 31
-149 -19 -36 -22 -46 -23 -146 -18 -59 2 -147 1 -195 -3 -73 -6 -85 -9 -75
-21 9 -11 40 -14 130 -14 65 0 120 -4 124 -9 7 -12 -26 -31 -55 -31 -11 0 -35
-7 -52 -16 -44 -23 -393 -65 -471 -58 -67 7 -117 19 -242 60 -44 14 -87 28
-95 31 -12 4 -12 7 4 19 11 7 18 16 15 18 -2 2 -48 9 -102 14 -82 8 -106 14
-147 40 -45 28 -198 82 -232 82 -8 0 -33 -16 -55 -35z"/>
<path fill="#000000" stroke="none" d="M925 4170 c-99 -17 -130 -48 -130 -128
1 -73 34 -144 83 -177 51 -35 91 -32 141 9 77 65 111 116 111 168 0 88 -95
147 -205 128z"/>
<path fill="#000000" stroke="none" d="M3914 4151 c-43 -19 -64 -59 -64 -124
0 -66 12 -85 110 -172 55 -49 89 -56 138 -31 67 35 141 145 142 209 0 60 -106
119 -225 124 -44 1 -90 -1 -101 -6z"/>
<path fill="#000000" stroke="none" d="M4526 3238 c-14 -13 -50 -81 -81 -153
-132 -304 -170 -357 -305 -423 l-74 -37 -161 1 c-187 1 -329 25 -433 74 -35
16 -77 30 -92 30 -67 0 -45 -113 31 -159 17 -11 61 -24 98 -31 124 -21 157
-31 186 -54 26 -21 28 -26 15 -40 -24 -29 -65 -45 -184 -71 -136 -29 -160 -39
-175 -72 -15 -32 -14 -86 1 -101 20 -20 45 -14 121 27 84 45 109 54 234 80 79
16 108 18 200 10 157 -13 255 -50 340 -126 52 -47 138 -189 159 -263 24 -85
95 -229 116 -236 27 -8 40 -38 29 -67 -10 -26 -37 -39 -126 -58 -33 -7 -85
-27 -115 -45 -138 -83 -348 -143 -452 -131 -52 6 -153 58 -204 104 -17 15 -56
50 -87 76 -69 58 -184 245 -218 352 -28 88 -34 95 -74 95 -70 0 -99 -93 -51
-161 116 -161 128 -194 84 -223 -35 -22 -102 -3 -194 54 -119 75 -176 77 -190
5 -8 -45 3 -57 74 -84 68 -24 198 -102 297 -176 95 -71 161 -151 198 -238 25
-61 31 -89 35 -177 4 -97 2 -110 -22 -169 -15 -35 -41 -102 -58 -150 -17 -47
-36 -93 -43 -101 -7 -8 -15 -38 -18 -65 -7 -66 -23 -100 -53 -114 -20 -9 -36
-4 -106 34 -145 78 -202 105 -224 105 -56 0 -211 108 -295 205 -82 95 -93 128
-91 281 1 161 15 223 88 394 70 166 72 176 41 184 -16 4 -29 17 -35 36 -10 27
-15 30 -56 30 -53 0 -71 -18 -27 -26 34 -7 56 -28 46 -44 -3 -5 -26 -15 -50
-21 -25 -6 -48 -16 -53 -23 -5 -6 -12 -62 -15 -124 -9 -155 -36 -203 -87 -152
-26 26 -72 120 -99 202 -13 37 -30 77 -39 88 -19 24 -85 37 -128 26 -24 -6
-26 -10 -21 -42 3 -20 22 -68 41 -107 40 -80 83 -274 92 -412 5 -70 2 -92 -24
-172 -24 -76 -39 -103 -83 -154 -46 -53 -69 -69 -163 -115 -60 -30 -118 -54
-130 -54 -12 0 -79 -29 -151 -64 -71 -36 -135 -61 -141 -58 -33 20 -66 83
-117 227 -85 240 -100 303 -95 401 3 77 6 89 58 189 65 127 99 161 263 264
147 91 191 111 250 111 54 0 117 38 117 70 0 25 -35 65 -69 80 -25 10 -38 9
-78 -6 -26 -9 -69 -32 -94 -50 -45 -31 -177 -94 -197 -94 -18 0 -42 31 -42 54
0 35 47 121 96 175 50 55 52 66 24 121 -22 43 -28 48 -69 60 -40 11 -49 2 -61
-61 -11 -59 -70 -180 -133 -274 -47 -68 -177 -196 -246 -240 -46 -30 -47 -30
-186 -30 -127 0 -148 3 -225 29 -47 15 -113 41 -146 57 -77 37 -152 56 -229
61 l-60 3 -3 -36 -3 -35 48 0 c39 1 68 -9 152 -52 57 -30 127 -71 155 -92 52
-39 130 -88 239 -150 55 -31 107 -86 107 -113 0 -6 -17 -7 -47 -1 -27 4 -79 8
-116 9 -64 0 -70 -2 -97 -31 -19 -22 -31 -50 -38 -92 -20 -112 17 -175 119
-202 91 -25 196 42 232 148 10 29 24 52 31 52 14 0 106 -96 106 -110 0 -8 124
-216 141 -236 5 -7 23 -50 39 -98 34 -102 55 -131 133 -186 69 -47 98 -50 142
-11 56 49 298 118 533 152 62 9 91 18 112 36 16 13 43 28 60 33 39 11 114 -2
138 -23 29 -27 83 -44 157 -52 91 -9 173 -27 276 -63 46 -16 106 -32 134 -36
39 -6 58 -16 89 -48 37 -37 43 -39 80 -34 21 4 51 14 66 22 30 18 101 145 151
274 18 46 49 107 67 135 19 27 40 62 48 77 7 14 31 47 51 71 21 25 56 75 78
112 48 80 93 135 110 135 7 0 32 18 57 40 27 23 62 43 87 49 24 5 58 24 81 44
21 20 54 43 72 53 18 9 47 29 63 43 57 49 240 130 330 146 65 12 81 27 93 91
17 83 16 94 -11 94 -49 0 -97 64 -97 130 0 33 -67 371 -81 407 -5 13 -9 44 -9
69 0 53 22 70 46 35 22 -31 87 -61 134 -61 115 0 187 90 178 223 -4 53 -8 63
-40 93 -20 18 -55 38 -78 44 -43 12 -66 7 -179 -35 -28 -10 -48 -12 -53 -7
-18 18 73 443 119 564 14 37 23 74 20 82 -9 23 -52 19 -81 -6z"/>
<path fill="#000000" stroke="none" d="M232 2610 c-52 -37 -72 -76 -72 -138 0
-55 22 -92 70 -117 29 -15 115 -20 144 -9 21 8 84 96 92 129 7 28 -18 72 -74
133 -42 44 -101 45 -160 2z"/>
<path fill="#000000" stroke="none" d="M3895 1045 c-57 -57 -65 -68 -59 -92
15 -67 104 -159 166 -172 97 -21 178 41 178 136 0 45 -5 58 -46 113 -50 66
-73 80 -135 80 -34 0 -46 -7 -104 -65z"/>
<path fill="#000000" stroke="none" d="M2421 461 c-34 -6 -54 -18 -87 -54 -60
-62 -60 -103 -4 -178 22 -30 52 -59 68 -66 43 -19 142 -16 178 6 41 25 68 82
59 129 -11 65 -35 129 -55 147 -23 20 -93 27 -159 16z"/>
</g>
</svg>
