<?xml version="1.0" standalone="no"?>
<!DOCTYPE svg PUBLIC "-//W3C//DTD SVG 20010904//EN"
 "http://www.w3.org/TR/2001/REC-SVG-20010904/DTD/svg10.dtd">
<svg version="1.0" xmlns="http://www.w3.org/2000/svg"
 width="603.000000pt" height="816.000000pt" viewBox="0 0 603.000000 816.000000"
 preserveAspectRatio="xMidYMid meet">
<metadata>
Created by potrace 1.16, written by Peter Selinger 2001-2019
</metadata>
<g transform="translate(0.000000,816.000000) scale(0.100000,-0.100000)"
fill="#000000" stroke="none">
<path fill="#000000" stroke="none" d="M1586 8054 c-20 -19 -20 -38 -2 -53 8
-7 21 -32 29 -56 l15 -43 -61 28 c-90 40 -158 53 -246 48 -98 -6 -157 -33
-232 -107 -30 -31 -77 -94 -105 -140 -62 -107 -150 -202 -217 -235 -134 -68
-291 1 -364 160 -13 30 -29 54 -35 54 -5 0 -8 -6 -5 -12 37 -99 278 -747 302
-815 51 -141 113 -217 214 -259 55 -23 149 -18 208 12 68 33 165 138 228 245
95 162 190 231 328 237 90 5 145 -7 239 -50 77 -35 55 7 192 -366 73 -200 74
-203 53 -212 -59 -23 -160 -72 -226 -109 -40 -22 -76 -41 -80 -41 -4 0 -52 73
-106 163 -54 89 -104 170 -111 180 -11 17 -19 13 -110 -48 -117 -79 -206 -150
-329 -261 -133 -120 -352 -374 -340 -395 3 -4 78 -60 168 -125 89 -65 164
-119 165 -120 2 -1 -24 -44 -58 -96 -89 -135 -199 -363 -253 -525 -26 -77 -47
-147 -47 -156 0 -9 -4 -18 -9 -21 -7 -5 -312 64 -402 90 -18 5 -35 -63 -65
-251 -24 -152 -29 -511 -11 -669 9 -70 17 -129 19 -131 2 -1 97 12 213 31 115
18 210 32 210 31 0 -1 11 -54 23 -117 41 -205 154 -503 251 -661 l30 -48 -72
-44 c-40 -25 -121 -75 -182 -112 -60 -37 -111 -68 -113 -70 -5 -5 148 -219
223 -310 138 -167 470 -475 496 -459 4 2 60 76 123 164 64 87 120 161 125 164
5 3 49 -21 98 -54 182 -120 418 -228 615 -281 49 -13 88 -28 88 -34 -1 -5 -22
-99 -49 -208 -26 -109 -45 -199 -42 -201 11 -7 214 -45 306 -58 120 -17 533
-17 650 0 49 7 91 14 92 16 1 1 -13 96 -31 211 -29 185 -31 210 -17 213 308
64 535 143 735 257 43 25 80 44 81 43 1 -2 50 -83 109 -180 59 -98 112 -178
117 -178 12 0 158 100 259 178 171 132 533 520 504 540 -80 54 -334 246 -332
251 2 3 28 44 59 91 113 170 227 417 280 605 12 44 26 84 30 89 4 4 98 -13
208 -40 110 -26 203 -45 206 -42 10 9 45 208 60 338 19 157 19 429 0 584 -7
65 -16 120 -18 122 -3 3 -91 -9 -196 -26 -105 -16 -199 -30 -209 -30 -14 0
-22 21 -40 113 -36 175 -106 373 -197 553 l-80 161 177 107 c98 60 178 112
178 117 0 30 -187 281 -312 419 -115 127 -369 351 -397 350 -3 0 -62 -77 -130
-171 -120 -165 -124 -169 -145 -155 -11 9 -51 35 -88 58 -37 24 -68 48 -67 53
0 6 109 205 242 443 l242 433 75 4 c217 9 380 158 397 363 5 67 -11 172 -26
172 -4 0 -43 -65 -87 -145 l-79 -145 -100 0 c-55 0 -122 3 -150 6 l-50 6 -81
113 -82 113 60 109 c33 59 71 128 85 152 l25 44 -28 -7 c-109 -26 -216 -116
-267 -224 -29 -61 -32 -76 -32 -162 0 -83 4 -103 28 -155 16 -33 37 -70 48
-82 12 -11 19 -28 17 -36 -6 -29 -483 -877 -493 -877 -5 0 -43 13 -82 30 -40
16 -118 43 -174 59 -56 17 -104 33 -107 35 -2 3 17 90 42 194 25 104 46 196
46 205 0 9 -8 18 -17 21 -50 14 -242 46 -347 57 -179 18 -657 2 -682 -23 -1
-2 10 -89 27 -193 16 -105 30 -198 32 -209 2 -16 -13 -22 -113 -42 -63 -13
-162 -38 -218 -57 -103 -33 -104 -33 -112 -13 -131 353 -540 1480 -540 1489 0
35 -47 48 -74 21z"/>
<path fill="#ffffff" stroke="none" d="M3188 6149 c512 -56 970 -328 1268
-755 71 -101 181 -322 221 -444 142 -427 114 -902 -76 -1305 -487 -1033 -1796
-1344 -2696 -641 -107 84 -264 250 -348 366 -80 113 -194 338 -236 467 -98
299 -114 634 -45 942 83 369 295 721 579 959 374 315 857 464 1333 411z"/>
<path fill="#000000" stroke="none" d="M2815 6064 c-268 -41 -458 -104 -653
-215 -90 -52 -225 -155 -284 -216 l-37 -38 15 -50 c8 -28 26 -102 40 -165 14
-63 27 -123 30 -132 4 -15 18 -7 77 43 262 221 520 329 859 360 428 39 908
-138 1218 -450 221 -223 360 -478 426 -781 29 -129 26 -436 -5 -580 -43 -203
-111 -369 -216 -532 -52 -79 -52 -81 -14 -38 114 128 268 403 329 587 64 194
74 265 74 518 0 202 -2 243 -22 335 -147 675 -664 1185 -1347 1330 -74 16
-146 22 -280 25 -99 2 -193 1 -210 -1z"/>
<path fill="#000000" stroke="none" d="M3627 5005 c-36 -45 -34 -59 2 -16 l28
34 52 -48 c50 -47 51 -49 34 -68 -23 -25 -287 -259 -513 -454 -231 -198 -242
-212 -214 -252 33 -47 48 -35 350 281 159 167 316 331 348 366 57 60 60 62 79
45 22 -20 107 -129 107 -137 0 -3 -13 -12 -30 -21 -16 -9 -30 -20 -30 -26 0
-6 13 -1 29 10 16 12 33 21 38 21 21 0 143 -268 143 -315 0 -8 -15 -17 -35
-21 -19 -3 -35 -10 -35 -14 0 -5 16 -3 35 3 19 6 38 8 41 5 13 -14 33 -171 34
-261 l0 -99 -42 7 c-31 4 -39 3 -28 -4 8 -6 27 -11 42 -11 27 0 27 -1 21 -47
-8 -64 -47 -219 -66 -266 l-16 -38 -37 16 c-20 8 -39 13 -42 11 -2 -3 12 -12
32 -20 20 -8 36 -21 36 -29 0 -29 -169 -287 -188 -287 -3 0 -21 12 -41 26
l-36 27 37 -39 38 -39 32 39 c128 153 216 342 254 544 24 130 15 353 -20 487
-35 134 -126 317 -211 423 l-67 84 43 51 42 52 -50 -48 c-44 -43 -51 -46 -63
-32 -7 9 -34 33 -60 55 l-46 39 -27 -34z"/>
<path fill="#000000" stroke="none" d="M205 1151 c-3 -6 10 -20 29 -33 l34
-23 -109 -310 c-60 -171 -109 -313 -109 -317 0 -5 47 -8 105 -8 128 0 130 1
174 131 l31 93 -27 28 -27 28 196 0 c145 0 198 3 205 13 10 12 43 104 43 119
0 4 -72 8 -160 8 l-160 0 6 25 c5 20 0 30 -20 46 -14 11 -26 25 -26 30 0 5
113 10 262 11 l263 3 22 55 c12 30 25 67 28 83 l7 27 -380 0 c-229 0 -383 -4
-387 -9z"/>
<path fill="#000000" stroke="none" d="M1000 1151 c0 -5 15 -19 34 -31 l34
-21 -38 -112 c-21 -62 -70 -204 -109 -316 -39 -111 -71 -205 -71 -207 0 -11
208 -3 223 9 14 10 246 650 247 680 0 4 -72 7 -160 7 -91 0 -160 -4 -160 -9z"/>
<path fill="#000000" stroke="none" d="M1390 1150 c0 -5 16 -20 37 -34 29 -20
48 -50 101 -161 35 -76 60 -141 56 -145 -5 -4 -92 -81 -194 -170 -102 -89
-186 -166 -188 -171 -2 -5 55 -9 132 -9 l136 0 105 96 c58 53 107 95 109 93 2
-2 21 -46 41 -96 l37 -93 105 0 c115 0 143 9 143 45 0 13 -29 88 -64 165 l-65
141 157 137 c87 75 177 154 201 175 l45 37 -149 0 -148 0 -118 -117 -118 -116
6 50 c4 36 0 65 -12 99 -32 86 -28 84 -202 84 -91 0 -153 -4 -153 -10z"/>
<path fill="#000000" stroke="none" d="M2770 1151 c0 -5 14 -19 30 -31 17 -12
30 -27 30 -33 0 -7 -47 -147 -105 -311 -58 -165 -105 -303 -105 -308 0 -11
197 -10 219 2 12 6 42 76 86 205 l68 196 67 -128 c37 -70 85 -162 106 -203
l39 -75 96 -3 c81 -2 99 0 116 15 13 12 60 135 132 343 61 179 111 328 111
333 0 4 -51 7 -114 7 l-115 0 -19 -52 c-45 -124 -91 -277 -99 -328 l-9 -55
-106 218 -106 217 -161 0 c-93 0 -161 -4 -161 -9z"/>
<path fill="#000000" stroke="none" d="M4146 1153 c-4 -4 7 -19 24 -33 l31
-25 -96 -293 c-57 -174 -94 -301 -90 -312 4 -12 19 -22 38 -25 18 -4 172 -5
342 -3 l310 3 47 27 c25 15 56 43 68 63 18 30 120 315 120 337 0 12 -463 5
-466 -7 -2 -5 23 -38 55 -72 51 -55 63 -63 95 -63 41 0 41 -2 10 -77 l-13 -33
-165 0 c-92 0 -166 2 -166 5 0 2 21 65 46 140 l47 136 -27 28 c-14 15 -26 30
-26 34 0 4 141 7 314 7 253 0 316 3 325 14 6 7 22 46 36 85 l24 71 -438 0
c-241 0 -441 -3 -445 -7z"/>
<path fill="#000000" stroke="none" d="M5300 1151 c-43 -13 -84 -38 -113 -69
-29 -31 -63 -113 -141 -350 -53 -159 -55 -196 -9 -232 47 -37 94 -42 357 -38
246 3 253 4 300 28 79 41 98 74 181 313 41 120 75 231 75 246 0 16 -10 41 -22
56 -40 51 -64 55 -345 54 -142 0 -269 -4 -283 -8z"/>
<path fill="#ffffff" stroke="none" d="M5694 982 c3 -5 -21 -83 -53 -173 l-58
-164 -168 -3 c-132 -2 -166 0 -163 10 3 7 25 68 48 136 l43 123 -31 32 c-18
18 -32 36 -32 40 0 10 408 9 414 -1z"/>
<path fill="#000000" stroke="none" d="M101 296 c-6 -8 -14 -59 -18 -113 -8
-134 -9 -133 183 -133 151 0 154 1 154 51 0 18 -8 19 -105 19 l-105 0 0 60 0
60 105 0 105 0 0 35 0 35 -154 0 c-119 0 -156 -3 -165 -14z"/>
<path fill="#000000" stroke="none" d="M476 288 c-12 -17 -16 -49 -16 -130 l0
-108 158 0 c118 0 163 3 177 14 16 11 19 31 23 130 l5 116 -166 0 c-160 0
-166 -1 -181 -22z"/>
<path fill="#ffffff" stroke="none" d="M690 180 l0 -60 -50 0 -50 0 0 60 0 60
50 0 50 0 0 -60z"/>
<path fill="#000000" stroke="none" d="M867 188 c-3 -68 -3 -126 -1 -130 3 -5
74 -8 159 -8 l153 0 6 25 c4 14 4 30 1 35 -4 6 -49 10 -101 10 l-94 0 6 95 7
95 -65 0 -65 0 -6 -122z"/>
<path fill="#000000" stroke="none" d="M1220 248 c0 -35 -3 -93 -7 -130 l-6
-68 160 0 161 0 4 30 c3 17 2 32 0 35 -3 3 -48 5 -99 5 l-94 0 7 95 7 95 -67
0 -66 0 0 -62z"/>
<path fill="#000000" stroke="none" d="M1570 263 c0 -27 -3 -85 -7 -130 l-6
-83 187 0 186 0 0 35 0 35 -120 0 c-113 0 -120 1 -120 20 0 19 7 20 99 20 91
0 100 2 106 20 11 35 -3 40 -106 40 -59 0 -99 4 -99 10 0 6 48 10 125 10 l125
0 0 35 0 35 -185 0 -185 0 0 -47z"/>
<path fill="#000000" stroke="none" d="M2007 298 c-20 -16 -27 -112 -8 -131 7
-7 54 -14 118 -17 73 -3 108 -9 111 -17 3 -10 -26 -13 -122 -13 l-126 0 0 -35
0 -35 164 0 c193 0 204 4 208 82 3 73 -6 78 -133 78 -102 0 -109 1 -109 20 0
19 7 20 119 20 124 0 131 3 131 46 0 19 -327 21 -353 2z"/>
<path fill="#000000" stroke="none" d="M2407 228 c-4 -46 -7 -104 -7 -130 l0
-48 55 0 c36 0 57 5 60 13 2 6 5 65 7 130 l3 117 -56 0 -56 0 -6 -82z"/>
<path fill="#000000" stroke="none" d="M2586 288 c-12 -17 -16 -49 -16 -130
l0 -108 158 0 c121 0 163 3 178 14 16 13 19 29 22 130 l4 116 -166 0 c-159 0
-165 -1 -180 -22z"/>
<path fill="#ffffff" stroke="none" d="M2800 180 l0 -60 -50 0 -50 0 0 60 0
60 50 0 50 0 0 -60z"/>
<path fill="#000000" stroke="none" d="M2978 210 c-1 -55 -2 -112 -2 -127 -1
-27 1 -28 62 -31 l62 -3 0 63 0 62 63 -62 c62 -61 63 -62 118 -62 l56 0 7 92
c3 50 6 108 6 130 l0 38 -65 0 -65 0 0 -62 0 -61 -56 61 -56 62 -64 0 -64 0
-2 -100z"/>
<path fill="#000000" stroke="none" d="M3567 292 c-13 -15 -17 -39 -17 -115 0
-128 -2 -127 187 -127 l143 0 0 35 0 35 -102 0 -103 0 3 60 4 59 101 3 102 3
3 33 3 32 -154 0 c-136 0 -156 -2 -170 -18z"/>
<path fill="#000000" stroke="none" d="M3928 188 c-2 -68 -2 -126 0 -130 2 -5
84 -8 183 -8 l179 0 0 35 0 35 -120 0 c-113 0 -120 1 -120 20 0 19 7 20 106
20 l105 0 -3 28 -3 27 -97 3 c-141 4 -123 22 22 22 l120 0 0 35 0 35 -184 0
-184 0 -4 -122z"/>
<path fill="#000000" stroke="none" d="M4348 200 c-1 -60 -2 -118 -2 -127 -1
-15 9 -18 62 -21 l62 -3 0 63 0 62 63 -62 c62 -61 63 -62 118 -62 l56 0 6 83
c4 45 7 103 7 130 l0 47 -65 0 -65 0 0 -62 0 -61 -56 61 -56 62 -64 0 -64 0
-2 -110z"/>
<path fill="#000000" stroke="none" d="M4744 288 c3 -13 6 -29 6 -35 0 -9 19
-13 60 -13 l60 0 0 -95 0 -95 60 0 60 0 0 94 0 95 48 3 c45 3 47 4 50 36 l3
32 -177 0 -176 0 6 -22z"/>
<path fill="#000000" stroke="none" d="M5130 180 l0 -130 179 0 179 0 6 25 c4
14 4 30 1 35 -4 6 -60 10 -126 10 -112 0 -119 1 -119 20 0 19 7 20 105 20
l105 0 0 30 0 30 -100 0 c-60 0 -100 4 -100 10 0 6 47 10 120 10 l120 0 0 35
0 35 -185 0 -185 0 0 -130z"/>
<path fill="#000000" stroke="none" d="M5550 180 l0 -130 60 0 60 0 0 50 c0
47 1 50 26 50 17 0 46 -17 84 -50 55 -48 60 -50 116 -50 l58 0 -49 50 c-30 31
-43 50 -34 50 29 0 49 34 49 82 0 75 -9 78 -203 78 l-167 0 0 -130z"/>
<path fill="#ffffff" stroke="none" d="M5800 225 c0 -12 -14 -15 -65 -15 -51
0 -65 3 -65 15 0 12 14 15 65 15 51 0 65 -3 65 -15z"/>
</g>
</svg>
