<?xml version="1.0" standalone="no"?>
<!DOCTYPE svg PUBLIC "-//W3C//DTD SVG 20010904//EN"
 "http://www.w3.org/TR/2001/REC-SVG-20010904/DTD/svg10.dtd">
<svg version="1.0" xmlns="http://www.w3.org/2000/svg"
 width="1035.000000pt" height="1128.000000pt" viewBox="0 0 1035.000000 1128.000000"
 preserveAspectRatio="xMidYMid meet">
<metadata>
Created by potrace 1.16, written by Peter Selinger 2001-2019
</metadata>
<g transform="translate(0.000000,1128.000000) scale(0.100000,-0.100000)"
fill="#000000" stroke="none">
<path fill="#000000" stroke="none" d="M4684 11267 c354 -225 439 -292 490
-387 26 -48 28 -59 24 -129 -8 -135 -61 -222 -232 -383 -63 -59 -146 -150
-185 -202 -75 -101 -74 -100 -205 -132 -68 -16 -216 -108 -301 -185 -105 -97
-241 -293 -261 -375 -10 -43 -32 -74 -52 -74 -10 0 -33 11 -52 25 -19 14 -72
37 -119 52 -83 27 -93 28 -306 28 -142 0 -245 -5 -290 -13 -38 -8 -110 -18
-158 -22 -84 -8 -127 -24 -110 -41 4 -4 67 -33 138 -64 155 -68 209 -98 253
-139 77 -71 91 -160 48 -298 -42 -134 -56 -150 -197 -222 -68 -35 -144 -75
-169 -89 -25 -15 -62 -35 -82 -46 -20 -12 -56 -33 -80 -49 -24 -16 -70 -46
-103 -68 -391 -253 -810 -641 -1099 -1019 -229 -300 -403 -590 -542 -905 -30
-69 -64 -143 -74 -165 -10 -22 -21 -51 -25 -65 -4 -14 -13 -38 -20 -55 -16
-36 -63 -179 -98 -295 -55 -186 -66 -227 -72 -270 -4 -25 -13 -67 -20 -93 -8
-26 -19 -85 -25 -130 -7 -45 -16 -88 -22 -94 -8 -10 -65 -13 -222 -13 -152 0
-215 -3 -224 -12 -16 -16 -16 -142 0 -155 16 -13 670 -23 1453 -24 505 0 571
2 581 16 10 13 30 130 49 290 9 74 57 269 95 390 41 131 52 161 71 197 10 20
19 42 19 49 0 14 104 225 149 304 16 28 36 64 45 80 8 17 29 48 45 70 17 22
38 54 47 70 9 17 31 48 49 70 17 22 37 50 44 63 23 44 62 15 76 -58 3 -19 15
-54 26 -77 10 -24 27 -62 38 -85 67 -151 132 -273 205 -384 11 -16 31 -47 45
-69 111 -174 384 -454 572 -587 151 -108 233 -158 346 -212 54 -26 107 -52
117 -58 10 -5 42 -18 70 -28 28 -10 69 -24 91 -33 78 -29 171 -56 225 -66 30
-5 67 -14 82 -20 83 -31 518 -46 719 -23 131 14 294 52 459 105 40 13 107 38
220 82 36 14 132 63 230 117 48 27 98 59 184 118 199 137 445 387 567 575 14
22 38 60 54 85 15 25 36 57 47 72 10 15 18 33 18 40 0 7 11 30 25 50 14 20 25
42 25 48 0 6 11 32 25 58 14 26 25 53 25 60 0 7 9 32 20 54 11 23 20 47 20 52
0 28 54 176 64 175 10 0 110 -141 146 -207 9 -15 24 -40 34 -55 22 -33 46 -75
75 -132 12 -22 25 -47 30 -55 6 -8 24 -46 42 -85 17 -38 39 -86 50 -106 10
-20 19 -43 19 -51 0 -7 8 -29 19 -48 10 -19 22 -51 25 -70 4 -19 16 -57 26
-85 48 -130 109 -424 117 -561 9 -152 -53 -137 569 -136 887 3 1506 13 1537
25 26 11 27 15 27 77 0 66 0 66 -33 78 -22 8 -108 12 -255 12 -260 0 -229 -19
-262 160 -24 130 -62 291 -92 395 -54 182 -145 438 -183 520 -8 17 -30 66 -49
110 -36 82 -120 250 -171 340 -16 28 -34 59 -39 70 -6 11 -20 34 -30 50 -11
17 -29 46 -41 65 -294 475 -715 930 -1162 1256 -233 170 -400 273 -661 405
l-162 83 -183 171 c-224 211 -318 311 -390 418 -127 188 -190 342 -191 467 -1
168 89 295 334 473 147 106 151 110 153 132 2 15 -3 19 -18 18 -46 -6 -229
-23 -345 -33 -147 -12 -295 -47 -382 -90 -58 -29 -63 -30 -75 -14 -7 10 -13
33 -13 52 0 87 -72 323 -128 422 -93 161 -239 294 -422 382 -153 74 -180 78
-503 77 -222 0 -278 -3 -263 -12z"/>
<path fill="#ffffff" stroke="none" d="M5075 11234 c39 -8 93 -19 120 -24 88
-18 244 -84 341 -145 109 -70 230 -206 289 -325 48 -100 74 -205 92 -371 16
-159 19 -169 38 -169 12 0 37 12 56 26 87 64 237 118 379 134 52 6 112 13 133
17 35 5 37 4 37 -21 0 -19 -10 -32 -38 -50 -64 -40 -169 -162 -208 -242 -32
-64 -37 -85 -42 -167 -7 -133 17 -227 97 -380 92 -175 195 -302 412 -507 301
-286 445 -439 453 -482 1 -7 12 -29 24 -48 51 -81 134 -265 158 -350 71 -252
93 -406 93 -660 1 -230 -19 -415 -66 -605 -8 -33 -20 -85 -27 -115 -18 -73
-63 -205 -87 -256 -10 -22 -19 -45 -19 -50 0 -21 -102 -210 -169 -314 -101
-157 -288 -363 -436 -481 -327 -260 -719 -426 -1145 -485 -295 -41 -701 -8
-935 76 -27 10 -61 21 -75 25 -24 6 -55 18 -180 72 -126 54 -288 148 -399 232
-40 31 -83 63 -95 71 -79 54 -262 240 -364 368 -128 161 -240 343 -310 502
-18 41 -38 84 -44 94 -14 27 -56 145 -98 281 -51 162 -90 437 -90 629 0 114
24 338 40 382 6 16 18 56 25 89 16 70 61 203 74 219 5 6 12 22 16 36 10 34 62
142 103 215 19 33 35 67 37 76 2 10 23 52 48 95 132 236 175 384 147 516 -12
54 -20 68 -74 123 -36 36 -85 73 -118 89 -102 50 -74 63 148 72 311 11 488
-39 550 -158 19 -37 51 -37 65 -1 5 15 18 57 29 94 25 91 91 225 149 301 121
160 323 296 464 314 70 9 85 20 142 106 29 42 112 136 200 223 166 165 212
230 251 351 29 93 30 128 4 201 -24 69 -59 121 -125 186 -46 45 -196 152 -237
169 -19 8 -23 20 -11 31 11 12 105 7 178 -9z"/>
<path fill="#ffffff" stroke="none" d="M3110 8450 c0 -5 -4 -10 -9 -10 -6 0
-9 -8 -9 -17 1 -10 -17 -56 -39 -103 -56 -119 -77 -172 -105 -270 -40 -135
-60 -220 -69 -290 -10 -83 -10 -402 0 -500 7 -65 6 -79 -11 -107 -10 -17 -22
-33 -26 -35 -30 -13 -283 -352 -338 -453 -9 -16 -22 -37 -30 -45 -7 -9 -31
-49 -52 -90 -21 -41 -43 -84 -50 -95 -6 -11 -17 -33 -25 -50 -7 -16 -18 -39
-24 -50 -45 -90 -113 -255 -113 -278 0 -6 -7 -25 -16 -42 -18 -33 -45 -126
-74 -253 -11 -46 -22 -87 -26 -93 -3 -5 -15 -72 -25 -147 -14 -99 -24 -141
-36 -149 -26 -20 -1056 -19 -1072 1 -11 13 4 116 27 176 5 14 12 51 16 82 4
32 16 82 27 113 10 30 19 61 19 70 0 16 38 141 70 230 10 28 25 70 33 95 40
118 57 162 72 182 8 13 15 29 15 37 0 8 11 37 24 65 58 119 143 289 168 333
15 26 34 62 43 78 27 50 189 303 218 340 4 6 33 44 65 86 133 175 121 161 269
324 50 56 149 157 220 225 70 68 127 127 125 132 -1 5 2 7 7 4 5 -3 20 3 32
14 13 11 20 19 15 20 -5 0 -3 6 4 14 6 8 17 13 23 10 7 -2 17 6 22 18 6 13 17
22 26 20 9 -1 24 8 35 20 19 22 19 23 -1 8 -18 -14 -19 -14 -7 2 8 9 19 15 26
12 7 -3 21 6 32 18 15 18 15 20 2 9 -10 -7 -18 -11 -18 -8 0 11 111 88 120 82
5 -3 12 0 16 6 5 8 2 10 -7 5 -8 -4 -3 2 11 13 14 11 30 19 37 16 7 -2 15 1
19 7 5 7 2 8 -7 3 -12 -8 -12 -6 0 8 16 20 36 23 25 5 -4 -8 -3 -10 2 -5 5 5
9 14 9 20 0 7 8 11 18 11 9 -1 14 3 11 8 -3 5 2 8 12 6 11 -2 18 2 17 9 -3 16
34 36 49 27 7 -4 8 -3 4 4 -9 15 54 53 76 46 9 -2 19 0 23 5 4 7 -1 8 -12 4
-25 -9 -11 4 44 42 50 34 73 42 73 25z"/>
<path fill="#ffffff" stroke="none" d="M7476 8398 c10 -12 13 -18 7 -14 -7 4
-13 5 -13 2 0 -3 10 -10 21 -17 15 -8 19 -8 15 0 -14 22 6 10 34 -21 16 -17
39 -32 52 -33 13 -1 22 -7 21 -13 -3 -14 34 -35 47 -27 6 4 13 -1 16 -9 3 -9
11 -13 17 -9 5 3 7 1 4 -4 -9 -14 40 -46 55 -37 6 4 8 3 4 -4 -3 -6 8 -21 26
-33 41 -29 38 -27 123 -94 39 -31 83 -66 98 -78 16 -12 38 -31 50 -42 12 -11
40 -35 62 -53 111 -93 338 -327 465 -482 126 -152 172 -214 254 -336 37 -55
50 -76 109 -171 13 -21 32 -51 43 -68 10 -16 25 -43 34 -60 9 -16 22 -41 30
-55 52 -96 110 -214 110 -225 0 -5 9 -21 20 -35 11 -14 20 -32 20 -40 0 -8 11
-36 25 -62 14 -26 25 -53 25 -60 0 -7 12 -35 25 -63 14 -27 25 -57 25 -65 0
-8 6 -26 13 -40 21 -39 114 -343 137 -445 6 -27 18 -81 26 -120 8 -38 22 -100
30 -137 9 -37 13 -72 9 -78 -10 -16 -1070 -14 -1082 3 -6 6 -13 41 -16 77 -3
36 -15 101 -27 144 -11 44 -20 89 -20 100 0 47 -134 458 -174 531 -9 17 -16
33 -16 38 0 11 -106 225 -140 282 -17 28 -35 61 -42 75 -7 14 -32 53 -55 88
-24 35 -43 65 -43 67 0 9 -166 224 -219 284 -31 35 -61 75 -67 90 -8 18 -9 69
-4 166 8 136 -2 454 -14 474 -4 5 -13 57 -21 116 -8 58 -21 121 -29 139 -8 18
-17 53 -21 77 -4 24 -16 61 -26 81 -11 21 -19 43 -19 50 0 7 -14 39 -31 71
-19 36 -28 65 -24 77 8 26 27 25 51 -2z"/>
<path fill="#000000" stroke="none" d="M5260 11094 c0 -3 17 -27 38 -53 83
-101 87 -112 87 -256 0 -112 -3 -138 -23 -190 -13 -33 -29 -69 -35 -80 -6 -11
-19 -35 -28 -53 -28 -54 -105 -142 -189 -217 -43 -38 -99 -95 -125 -125 -57
-67 -146 -202 -165 -250 -7 -19 -18 -41 -23 -48 -9 -11 -31 -81 -57 -182 -5
-19 -10 -87 -10 -151 0 -119 16 -191 70 -304 62 -131 78 -226 51 -297 -11 -29
-104 -78 -147 -78 -35 0 -99 42 -132 86 -12 16 -26 34 -30 39 -45 54 -81 193
-82 306 0 154 61 356 158 521 19 31 31 61 27 67 -35 58 -272 -120 -378 -283
-123 -189 -154 -374 -102 -611 9 -40 11 -71 6 -73 -6 -2 -5 -15 1 -33 14 -42
2 -96 -27 -115 -19 -12 -31 -13 -61 -5 -39 11 -104 66 -104 88 0 7 -5 13 -10
13 -19 0 -31 52 -39 179 -7 116 -11 131 -40 183 -55 97 -155 150 -289 152 -89
1 -98 -10 -49 -56 40 -38 57 -82 57 -149 0 -59 -22 -166 -50 -239 -33 -87
-121 -264 -137 -273 -7 -4 -20 -22 -28 -40 -8 -18 -28 -54 -45 -82 -16 -27
-38 -68 -49 -90 -11 -22 -25 -47 -30 -55 -11 -18 -51 -103 -81 -175 -33 -79
-66 -181 -97 -300 -27 -106 -28 -118 -27 -360 0 -242 1 -255 32 -399 32 -150
45 -195 90 -321 39 -112 107 -272 133 -315 5 -8 18 -33 30 -55 201 -373 538
-715 899 -914 41 -22 85 -45 98 -51 13 -5 46 -20 75 -33 191 -86 408 -147 599
-167 125 -13 361 -13 486 0 290 31 680 166 915 316 20 13 56 36 80 51 136 88
342 279 467 433 75 93 181 260 215 340 9 19 19 42 24 51 12 22 56 133 81 204
36 102 68 234 97 390 26 140 27 168 28 430 0 265 -2 287 -27 410 -15 72 -34
150 -42 174 -9 24 -16 50 -16 58 0 8 -11 39 -25 69 -14 30 -25 58 -25 62 0 12
-68 139 -106 199 -57 90 -119 159 -243 273 -229 211 -449 435 -518 530 -214
293 -289 539 -233 759 18 73 60 164 81 176 5 4 9 16 9 27 0 18 -4 20 -35 15
-80 -13 -227 -128 -291 -227 -44 -69 -80 -166 -98 -269 -16 -87 -16 -99 -1
-175 9 -44 25 -101 36 -125 39 -89 51 -159 38 -215 -15 -65 -30 -94 -66 -128
-99 -94 -264 -43 -337 105 -21 44 -26 68 -26 129 0 96 26 169 112 309 176 288
237 491 209 705 -15 117 -42 203 -112 349 -84 176 -225 331 -366 404 -41 20
-73 27 -73 15z"/>
<path fill="#ffffff" stroke="none" d="M5560 10435 c9 -10 13 -51 13 -123 0
-164 -20 -217 -183 -512 -128 -232 -142 -271 -148 -411 -2 -64 0 -138 6 -165
11 -48 52 -145 92 -213 31 -55 111 -130 167 -157 28 -14 59 -34 68 -45 16 -17
16 -19 2 -25 -24 -9 -152 23 -211 53 -62 32 -84 48 -164 125 -104 101 -161
250 -162 424 0 184 39 279 195 474 148 186 225 325 251 457 25 128 43 156 74
118z"/>
<path fill="#ffffff" stroke="none" d="M6267 8666 c55 -41 124 -102 154 -136
53 -61 107 -117 182 -188 21 -20 55 -61 74 -92 20 -30 44 -67 54 -82 27 -38
97 -192 126 -273 24 -67 33 -100 70 -260 20 -87 24 -450 5 -535 -6 -30 -20
-99 -31 -152 -11 -54 -27 -112 -34 -130 -8 -18 -17 -51 -21 -73 -4 -22 -22
-71 -41 -110 -18 -38 -37 -81 -41 -95 -21 -75 -150 -310 -175 -318 -12 -5 -12
41 1 54 12 12 50 195 50 243 0 108 -42 145 -81 70 -27 -54 -167 -194 -244
-245 -203 -135 -523 -244 -803 -274 -53 -6 -133 -15 -177 -20 -259 -32 -691
15 -947 101 -223 75 -416 197 -525 332 -28 36 -63 36 -63 2 0 -84 64 -278 107
-327 9 -10 13 -25 9 -35 -6 -14 -14 -10 -49 29 -53 58 -103 127 -126 172 -10
19 -37 58 -60 87 -22 28 -41 56 -41 60 0 5 -18 46 -41 92 -65 131 -130 310
-144 392 -3 22 -14 72 -23 110 -13 54 -17 116 -17 270 0 243 23 378 106 630
11 33 26 80 33 105 21 65 55 160 70 195 8 17 17 41 21 55 3 14 15 48 25 75 34
92 60 199 60 247 0 50 7 78 21 78 9 0 63 -81 96 -145 28 -55 50 -129 58 -195
3 -30 11 -79 16 -108 l10 -52 -50 -67 c-58 -77 -124 -207 -142 -276 -6 -26 -9
-76 -7 -110 17 -202 245 -317 688 -348 247 -17 1306 -18 1520 -1 354 28 558
115 657 281 26 43 28 53 27 156 0 99 -3 117 -30 180 -115 270 -261 434 -488
550 -33 16 -61 35 -63 41 -4 13 96 114 113 114 6 0 56 -33 111 -74z"/>
<path fill="#ffffff" stroke="none" d="M6310 5900 c0 -4 -15 -17 -32 -29 -18
-11 -51 -33 -72 -48 -80 -57 -148 -94 -286 -156 -34 -15 -165 -58 -280 -91
-206 -60 -619 -58 -854 3 -170 45 -361 122 -353 143 5 17 51 11 105 -12 24
-11 60 -22 80 -26 20 -4 71 -15 112 -25 42 -11 152 -25 247 -31 306 -21 582 7
878 90 117 33 320 123 404 179 31 21 51 23 51 3z"/>
<path fill="#000000" stroke="none" d="M6551 7495 c-11 -14 -23 -40 -26 -58
-14 -62 -37 -71 -86 -35 l-30 22 -42 -21 c-57 -30 -127 -50 -217 -64 -55 -8
-93 -22 -142 -50 -83 -49 -116 -51 -124 -9 l-6 30 -167 -5 c-243 -8 -249 -9
-356 -60 -77 -36 -100 -43 -111 -34 -13 10 -12 14 1 29 14 16 12 50 -4 50 -3
0 -114 3 -246 5 l-241 5 -93 -46 c-105 -51 -126 -52 -108 -5 8 23 8 34 0 42
-7 7 -70 15 -149 20 -75 5 -162 13 -192 19 -81 15 -118 12 -172 -11 -27 -12
-57 -19 -65 -15 -14 5 -14 8 1 30 20 32 14 40 -48 72 -66 34 -101 27 -155 -29
-45 -46 -63 -90 -63 -149 0 -76 58 -142 135 -154 78 -11 229 40 340 115 17 12
37 21 45 21 9 0 40 -25 70 -56 30 -30 75 -68 100 -82 41 -24 54 -27 145 -27
88 0 107 3 159 28 72 33 141 88 161 128 9 16 22 29 30 29 8 0 40 -25 71 -56
35 -35 80 -67 122 -87 59 -28 77 -31 157 -31 80 0 98 3 156 31 37 17 85 49
107 72 46 48 65 50 116 16 79 -54 155 -78 246 -78 101 -1 160 21 258 95 67 51
91 58 113 32 7 -9 40 -29 73 -46 134 -68 261 -27 325 105 32 67 29 143 -9 195
-35 49 -51 52 -79 17z"/>
<path fill="#000000" stroke="none" d="M6169 7091 c-145 -114 -374 -133 -525
-45 -52 31 -73 30 -116 -3 -67 -53 -222 -109 -280 -100 -143 21 -225 49 -288
99 -39 31 -71 36 -90 12 -8 -8 -43 -32 -79 -53 -76 -45 -234 -83 -286 -70
-132 34 -223 78 -245 119 -17 31 -48 30 -114 -5 -34 -18 -89 -41 -121 -51 -71
-21 -89 -35 -81 -61 13 -40 43 -43 329 -37 258 6 275 5 336 -15 35 -12 69 -21
75 -21 6 0 33 -18 60 -40 26 -22 56 -40 66 -40 9 0 48 12 86 26 228 86 342
124 374 124 30 0 118 -28 168 -53 95 -48 155 -125 233 -296 104 -229 147 -212
194 74 7 46 47 129 79 164 70 76 206 129 359 138 105 6 130 15 140 54 6 24
-12 34 -77 43 -27 3 -69 17 -94 31 -53 30 -72 31 -103 6z"/>
<path fill="#000000" stroke="none" d="M6464 6899 c-25 -25 -80 -38 -155 -39
-108 0 -287 -64 -304 -109 -3 -7 0 -20 7 -28 10 -12 47 -14 221 -11 l208 3 43
46 c31 32 46 57 51 88 11 66 -28 94 -71 50z"/>
<path fill="#000000" stroke="none" d="M3872 6828 c-28 -28 -3 -108 47 -151
38 -32 88 -47 157 -47 38 0 67 -8 110 -31 74 -38 107 -69 204 -195 148 -191
187 -191 393 4 90 84 132 115 193 145 44 21 87 42 96 47 35 19 246 68 321 75
87 8 100 19 72 61 -27 42 -113 74 -199 74 -87 0 -136 -14 -379 -112 -134 -54
-180 -69 -189 -60 -9 9 -7 16 6 31 23 26 15 65 -19 87 -60 39 -118 45 -425 42
-293 -3 -296 -3 -324 20 -32 25 -47 27 -64 10z"/>
<path fill="#000000" stroke="none" d="M5970 6585 c-5 -6 -14 -32 -20 -59 -23
-102 -95 -209 -151 -221 -66 -15 -152 63 -209 189 -39 87 -33 85 -177 65 -177
-24 -339 -77 -443 -145 -69 -45 -158 -129 -148 -140 4 -3 52 -8 108 -10 111
-5 149 -16 130 -39 -6 -8 -26 -17 -43 -20 -18 -4 -49 -12 -70 -18 -65 -18 -16
-31 143 -35 365 -11 743 62 1020 195 106 51 162 85 203 122 37 34 34 44 -10
37 -100 -16 -143 -18 -158 -6 -21 17 -10 28 40 41 24 6 52 21 64 32 l20 22
-145 0 c-89 0 -149 -4 -154 -10z"/>
<path fill="#000000" stroke="none" d="M3985 6521 c-13 -23 119 -127 249 -195
38 -20 75 -36 83 -36 28 0 11 40 -41 93 -73 74 -129 110 -202 130 -70 20 -81
20 -89 8z"/>
<path fill="#000000" stroke="none" d="M2635 8144 l-30 -26 33 22 c17 12 32
23 32 26 0 7 -4 5 -35 -22z"/>
<path fill="#000000" stroke="none" d="M3072 5718 c-7 -7 -12 -20 -12 -30 0
-11 -11 -30 -25 -44 -21 -21 -31 -24 -60 -18 -21 4 -41 2 -49 -5 -22 -19 -7
-61 31 -84 30 -17 34 -24 28 -46 -17 -67 -17 -98 1 -105 9 -4 26 0 38 9 72 52
65 50 94 26 40 -32 69 -44 86 -38 20 8 21 60 1 77 -24 20 -19 59 9 70 30 11
59 52 54 77 -3 15 -13 18 -57 18 -57 1 -81 18 -81 60 0 23 -17 45 -35 45 -6 0
-16 -5 -23 -12z"/>
<path fill="#000000" stroke="none" d="M7362 5714 c-12 -8 -22 -20 -22 -26 0
-5 -9 -23 -20 -39 -19 -26 -25 -28 -65 -22 -35 4 -46 2 -51 -10 -8 -22 17 -70
43 -82 29 -13 34 -27 22 -67 -16 -58 -12 -78 17 -78 14 0 39 11 56 25 36 31
40 31 75 1 16 -14 41 -28 56 -31 36 -9 47 18 24 57 -26 45 -22 75 12 92 30 16
58 67 46 86 -5 8 -22 10 -52 5 -52 -8 -69 3 -79 48 -6 32 -21 57 -33 57 -4 0
-17 -7 -29 -16z"/>
<path fill="#000000" stroke="none" d="M790 4981 c-25 -4 -51 -10 -57 -14 -17
-11 -19 -957 -3 -988 9 -15 22 -19 65 -19 37 0 55 -4 55 -12 0 -9 20 -13 66
-13 101 1 105 9 103 203 0 85 3 158 8 163 5 5 219 8 504 7 l494 -3 5 -167 c4
-131 8 -171 20 -182 11 -11 45 -15 139 -17 118 -2 125 -1 143 21 17 21 18 52
18 510 0 459 -1 488 -18 503 -15 14 -41 17 -143 17 -68 0 -131 -5 -139 -10
-12 -7 -16 -44 -20 -187 l-5 -178 -480 -3 c-264 -1 -490 0 -502 3 -23 5 -23 7
-23 174 0 206 2 202 -108 200 -42 -1 -97 -5 -122 -8z"/>
<path fill="#000000" stroke="none" d="M3203 4943 c-22 -27 -43 -55 -46 -63
-4 -8 -23 -35 -42 -60 -40 -51 -75 -103 -75 -110 0 -3 5 -12 10 -20 7 -12 38
-15 161 -17 127 -1 154 -5 170 -19 45 -41 30 -44 -184 -44 -148 0 -207 -3
-219 -12 -16 -13 -76 -93 -138 -184 -71 -104 -136 -197 -155 -224 -11 -16 -40
-57 -64 -92 -24 -34 -50 -67 -58 -71 -16 -10 -18 -73 -2 -83 7 -4 67 -7 134
-6 95 0 129 4 147 16 21 14 69 69 122 141 38 51 122 154 155 188 l35 37 229 0
c185 0 234 -3 257 -15 17 -9 30 -20 30 -25 0 -5 21 -35 48 -67 26 -32 78 -99
116 -150 38 -51 79 -99 91 -107 24 -16 260 -26 283 -12 17 10 15 71 -3 86 -8
7 -34 40 -57 74 -23 33 -56 81 -72 104 -17 24 -35 51 -41 61 -5 9 -22 32 -36
51 -30 40 -97 136 -207 298 -42 63 -86 126 -97 142 -11 15 -38 54 -60 86 -21
33 -54 78 -73 102 l-34 42 -143 0 -143 0 -39 -47z"/>
<path fill="#000000" stroke="none" d="M4438 4968 c-10 -18 -12 -111 -8 -428
l5 -405 33 -47 c41 -60 103 -101 188 -128 64 -19 89 -20 725 -20 641 0 659 1
669 19 5 11 10 80 10 154 0 113 -3 137 -17 148 -13 11 -128 15 -617 19 l-601
5 -35 25 c-19 14 -38 30 -42 35 -4 6 -8 144 -8 308 0 186 -4 306 -10 318 -10
17 -22 19 -145 19 -129 0 -135 -1 -147 -22z"/>
<path fill="#000000" stroke="none" d="M6945 4973 c-17 -17 -92 -115 -110
-144 -25 -41 -50 -75 -67 -92 -22 -22 -23 -31 -2 -52 14 -14 38 -16 159 -14
121 2 147 0 169 -14 27 -18 35 -47 14 -47 -7 -1 -101 -1 -208 0 -141 0 -199
-4 -210 -13 -9 -6 -35 -41 -60 -77 -42 -63 -84 -122 -125 -180 -11 -15 -51
-73 -88 -129 -38 -55 -75 -105 -83 -112 -8 -6 -14 -17 -14 -23 0 -7 -11 -23
-24 -36 -29 -26 -43 -77 -27 -93 7 -7 58 -10 143 -8 l133 2 36 35 c20 19 49
53 65 75 51 71 184 233 206 252 18 15 46 17 255 17 l235 0 32 -33 c17 -18 54
-63 81 -100 28 -38 74 -98 103 -134 28 -36 52 -69 52 -72 0 -4 13 -15 30 -24
23 -14 55 -18 153 -19 68 -1 129 2 135 6 17 10 15 61 -2 75 -8 7 -43 54 -77
104 -136 199 -160 233 -189 272 -16 22 -34 49 -40 60 -6 11 -24 38 -40 60 -17
22 -64 90 -105 150 -40 61 -95 139 -120 175 -25 36 -55 80 -67 98 -11 18 -28
37 -38 42 -10 6 -79 10 -154 10 -112 0 -137 -3 -151 -17z"/>
<path fill="#000000" stroke="none" d="M8156 4977 c-16 -12 -17 -41 -17 -397
1 -416 4 -442 54 -505 35 -44 105 -92 164 -113 42 -14 123 -17 661 -22 486 -4
612 -2 612 8 0 8 17 12 54 12 78 0 82 8 78 154 -2 67 -8 127 -14 134 -6 6 -28
12 -49 12 -22 0 -39 5 -39 10 0 7 -191 10 -552 10 l-553 0 -47 30 -48 30 0
309 c0 268 -2 312 -16 325 -20 21 -260 23 -288 3z"/>
<path fill="#000000" stroke="none" d="M7334 3816 c-17 -13 -19 -31 -22 -198
-4 -239 -14 -225 170 -239 176 -14 178 -13 178 81 0 50 4 71 15 77 21 12 250
-4 328 -23 87 -21 117 -53 117 -124 0 -73 -12 -96 -58 -107 -42 -11 -270 -4
-561 17 -138 10 -155 10 -170 -5 -14 -14 -16 -50 -14 -313 3 -266 5 -298 20
-309 11 -8 52 -13 114 -13 53 0 116 -3 141 -6 35 -5 48 -2 63 12 16 17 17 32
12 184 -7 177 -4 190 39 190 31 0 60 -40 74 -103 6 -28 20 -72 30 -97 10 -25
23 -71 30 -102 7 -37 21 -68 39 -87 31 -33 71 -40 261 -44 101 -2 105 -1 108
20 2 12 -11 52 -29 90 -17 37 -35 79 -40 93 -4 14 -23 63 -43 109 -19 46 -33
87 -31 91 2 4 32 10 66 14 67 7 88 17 151 74 53 47 86 101 115 182 28 80 29
129 3 210 -11 34 -20 67 -20 73 0 17 -66 111 -101 142 -19 17 -59 45 -90 62
-74 42 -162 51 -560 57 -260 5 -319 3 -335 -8z"/>
<path fill="#000000" stroke="none" d="M2891 3808 c-10 -3 -21 -14 -25 -24 -4
-9 -6 -188 -6 -396 1 -424 3 -415 -68 -445 -20 -8 -95 -21 -167 -28 -198 -20
-205 -12 -205 209 0 111 -3 146 -14 155 -19 16 -289 3 -314 -15 -15 -11 -17
-34 -17 -216 l0 -203 34 -58 c40 -70 95 -116 178 -151 53 -22 78 -26 158 -26
53 0 128 6 168 14 40 8 112 20 161 26 180 23 349 137 411 277 24 53 24 55 26
454 1 326 -1 404 -12 414 -15 15 -275 26 -308 13z"/>
<path fill="#000000" stroke="none" d="M3454 3810 c-12 -5 -25 -14 -29 -21
-13 -21 -7 -339 6 -356 11 -12 38 -14 157 -11 137 3 145 4 163 27 10 13 19 34
19 47 0 13 9 28 19 34 11 5 86 10 172 10 136 0 155 -2 185 -21 47 -29 58 -52
44 -94 -19 -57 -50 -62 -412 -74 -190 -6 -325 -14 -338 -21 -19 -10 -20 -19
-20 -300 0 -249 2 -291 16 -304 12 -13 41 -16 150 -16 131 0 136 1 160 25 25
25 25 27 23 181 -3 171 -2 174 57 174 45 0 78 -37 214 -245 22 -33 51 -73 64
-90 l24 -30 174 0 173 0 3 27 c2 20 -20 61 -90 164 -51 76 -101 146 -110 156
-29 30 -21 46 40 77 79 40 155 111 192 178 26 49 30 67 30 131 0 97 -30 162
-108 233 -78 71 -152 106 -253 119 -100 12 -695 12 -725 0z"/>
<path fill="#000000" stroke="none" d="M5095 3809 c-163 -21 -313 -151 -349
-301 -12 -51 9 -58 174 -58 l148 0 41 48 41 47 171 3 c192 4 220 -2 246 -52 9
-17 21 -34 27 -38 6 -4 79 -8 163 -8 142 0 153 1 163 20 25 47 -21 155 -96
225 -70 65 -155 103 -259 115 -107 12 -371 11 -470 -1z"/>
<path fill="#000000" stroke="none" d="M6145 3804 c-14 -14 -16 -39 -13 -180
2 -117 7 -167 16 -176 9 -9 53 -13 158 -13 169 0 174 2 174 92 0 35 4 53 13
54 38 3 303 -4 427 -11 194 -11 190 -14 190 125 0 93 -2 105 -19 115 -13 6
-180 10 -475 10 -408 0 -456 -2 -471 -16z"/>
<path fill="#000000" stroke="none" d="M805 3803 c-105 -5 -101 8 -95 -290 3
-138 8 -254 12 -258 3 -4 39 -2 80 4 40 6 108 12 150 14 42 2 81 6 85 11 4 4
10 33 13 64 l5 57 85 7 c47 4 132 14 190 21 69 10 114 11 130 5 33 -12 69 -57
70 -87 0 -29 -38 -98 -59 -107 -19 -7 -184 -30 -326 -44 -55 -6 -113 -15 -130
-20 -16 -5 -86 -16 -154 -24 -70 -9 -131 -21 -138 -29 -17 -17 -20 -1064 -3
-1081 7 -7 18 -7 38 1 15 6 106 43 202 83 96 39 193 80 216 91 22 10 45 19 51
19 6 0 24 7 40 15 63 32 146 65 153 60 9 -5 145 58 211 98 90 55 111 77 194
211 24 40 65 173 65 215 0 50 -38 170 -66 206 -30 40 -30 71 -1 115 30 44 67
165 67 217 0 49 -33 152 -66 208 -35 61 -130 146 -206 186 l-63 33 -340 1
c-187 1 -371 0 -410 -2z"/>
<path fill="#ffffff" stroke="none" d="M1509 2824 c25 -32 26 -50 7 -96 -20
-48 -71 -84 -152 -107 -157 -45 -202 -60 -233 -76 -18 -9 -44 -15 -59 -13
l-26 3 1 93 c1 51 5 101 8 112 6 20 70 45 145 56 25 4 53 11 63 16 28 14 137
36 184 37 34 1 46 -4 62 -25z"/>
<path fill="#000000" stroke="none" d="M2080 3791 c-6 -12 -10 -98 -10 -210 0
-165 2 -192 17 -207 15 -15 35 -16 161 -12 105 4 147 9 158 19 10 11 14 57 17
199 2 102 0 195 -4 208 -8 22 -12 22 -168 22 -148 0 -161 -1 -171 -19z"/>
<path fill="#000000" stroke="none" d="M8760 3801 c-47 -9 -103 -49 -138 -97
-47 -65 -90 -305 -66 -368 8 -22 64 -35 162 -38 78 -3 85 -1 103 21 13 15 19
39 19 71 0 30 6 52 15 60 19 15 142 8 327 -21 70 -10 152 -19 182 -19 47 0 61
-4 88 -28 23 -21 31 -38 31 -61 0 -17 4 -27 8 -20 4 8 9 4 14 -10 3 -11 16
-23 28 -26 63 -13 258 -34 271 -29 24 9 29 39 21 127 -13 146 -79 291 -161
354 -21 15 -47 38 -60 51 -12 13 -37 27 -55 32 -38 11 -734 12 -789 1z"/>
<path fill="#000000" stroke="none" d="M4749 3354 c-10 -13 -13 -53 -11 -173
4 -195 15 -238 82 -313 56 -63 123 -104 225 -138 65 -22 87 -23 315 -24 237
-1 247 0 310 24 79 30 136 67 183 119 73 81 72 76 75 287 3 129 0 199 -7 213
-12 21 -17 21 -341 21 -384 0 -350 13 -350 -129 0 -121 0 -121 185 -121 96 0
145 -4 153 -12 20 -20 15 -85 -8 -108 -23 -23 -14 -22 -215 -20 -164 1 -219
11 -235 40 -5 10 -10 83 -10 162 0 198 10 188 -184 188 -130 0 -156 -3 -167
-16z"/>
<path fill="#000000" stroke="none" d="M6147 3339 c-15 -20 -17 -58 -17 -294
0 -148 3 -280 6 -291 3 -12 15 -26 27 -32 35 -17 913 -38 932 -22 12 10 15 38
15 131 0 159 5 154 -175 162 -76 4 -207 7 -290 7 -173 0 -185 5 -169 63 11 38
-13 36 292 23 164 -6 215 -6 227 4 20 16 22 212 3 228 -8 6 -133 15 -298 21
-157 6 -342 14 -411 17 -124 7 -126 7 -142 -17z"/>
<path fill="#000000" stroke="none" d="M8572 3218 c-29 -29 3 -124 62 -186 42
-44 117 -85 177 -97 19 -3 63 -14 99 -25 78 -22 175 -45 290 -69 47 -9 91 -20
97 -24 6 -4 14 -3 17 1 9 14 119 -18 145 -41 36 -33 43 -63 35 -150 -9 -104
-24 -122 -99 -114 -53 5 -113 26 -220 77 -33 16 -112 45 -175 65 -148 46 -189
70 -204 115 -14 44 -69 73 -173 90 -86 15 -103 7 -103 -49 0 -104 44 -232 104
-300 49 -54 212 -141 266 -141 11 0 53 -11 95 -25 41 -13 82 -22 90 -19 14 6
71 -9 260 -68 51 -16 96 -22 165 -23 88 0 98 2 137 28 53 36 85 84 114 172 20
61 23 90 23 220 0 139 -1 154 -25 209 -49 110 -148 197 -260 226 -24 6 -49 18
-56 27 -8 11 -41 18 -105 25 -51 5 -121 15 -155 23 -34 8 -124 19 -200 25 -76
6 -184 18 -239 26 -123 17 -147 17 -162 2z"/>
<path fill="#000000" stroke="none" d="M3450 2539 c-124 -5 -272 -13 -330 -18
-227 -22 -588 -75 -725 -108 -38 -9 -99 -22 -135 -29 -79 -16 -169 -38 -275
-68 -44 -13 -98 -28 -120 -34 -60 -16 -265 -81 -327 -104 -15 -6 -25 -14 -23
-18 3 -5 -5 -12 -17 -15 -35 -10 -179 -64 -215 -81 -17 -8 -34 -14 -38 -14 -6
0 -89 -35 -195 -82 -243 -108 -614 -298 -752 -386 l-58 -37 0 -96 c0 -95 0
-97 25 -103 25 -6 43 1 110 44 155 99 561 305 785 399 41 18 84 37 94 42 10 6
42 19 70 29 28 9 87 32 130 50 57 24 84 30 95 23 9 -5 56 -59 104 -119 256
-317 532 -581 867 -830 119 -89 388 -264 405 -264 5 0 16 -6 24 -14 36 -33
396 -206 591 -286 296 -120 748 -236 1053 -271 73 -8 111 -17 114 -26 8 -19
993 -20 993 0 0 10 32 17 113 26 61 7 144 19 182 27 39 8 97 19 130 25 58 9
119 24 310 76 120 33 381 121 427 144 21 11 43 19 50 19 7 0 29 8 48 19 19 10
46 22 60 26 27 8 307 147 376 186 23 13 72 41 109 62 172 97 450 294 630 446
213 181 511 492 658 688 55 74 66 83 94 83 18 0 47 -7 65 -15 18 -8 76 -31
128 -50 52 -20 109 -42 125 -49 17 -8 64 -28 105 -46 247 -106 621 -297 800
-408 42 -26 67 -28 73 -5 3 10 4 55 3 100 -2 64 -6 87 -21 103 -10 11 -68 47
-129 80 -61 34 -118 65 -126 70 -24 15 -348 175 -415 205 -33 15 -71 33 -85
40 -14 8 -44 20 -65 28 -22 8 -74 28 -115 45 -161 65 -232 92 -246 92 -8 0
-17 6 -20 14 -6 15 -73 46 -100 46 -8 0 -34 9 -57 19 -23 11 -60 23 -82 27
-22 4 -59 15 -83 26 -24 10 -51 18 -60 18 -9 0 -53 11 -97 24 -114 34 -196 55
-305 76 -52 10 -106 22 -120 28 -14 5 -54 12 -90 16 -36 4 -92 14 -125 22 -33
8 -107 19 -165 25 -58 5 -143 16 -190 24 -200 34 -429 38 -2130 40 -927 2
-1786 -1 -1910 -6z"/>
<path fill="#ffffff" stroke="none" d="M7445 2270 c66 -6 138 -15 160 -20 22
-6 85 -15 140 -21 55 -5 133 -19 174 -30 41 -10 86 -19 101 -19 14 0 50 -7 80
-15 30 -8 89 -22 130 -30 41 -8 91 -21 110 -29 19 -7 57 -17 83 -20 27 -4 69
-16 94 -27 24 -10 57 -19 72 -19 29 0 51 -16 51 -36 0 -12 -58 -84 -178 -224
-71 -82 -304 -314 -402 -401 -95 -83 -292 -236 -390 -302 -30 -20 -77 -52
-105 -72 -27 -19 -54 -35 -58 -35 -5 0 -23 -10 -40 -23 -46 -32 -67 -45 -112
-68 -22 -12 -62 -33 -90 -49 -107 -59 -382 -190 -402 -190 -4 0 -30 -12 -58
-25 -27 -14 -57 -25 -65 -25 -8 0 -28 -7 -44 -15 -15 -8 -51 -21 -80 -29 -28
-8 -71 -22 -96 -30 -119 -40 -207 -66 -228 -66 -12 0 -47 -9 -77 -19 -31 -11
-81 -23 -113 -27 -31 -3 -88 -14 -127 -24 -38 -10 -106 -21 -150 -24 -44 -4
-125 -15 -180 -24 -144 -24 -732 -24 -885 0 -58 10 -136 20 -175 23 -38 4
-108 15 -155 25 -47 10 -105 21 -130 25 -25 3 -74 14 -110 24 -36 10 -94 26
-130 35 -146 37 -227 64 -400 129 -139 53 -172 66 -183 75 -7 5 -31 14 -53 20
-23 7 -47 19 -54 27 -7 8 -18 15 -24 15 -13 0 -197 92 -276 139 -84 49 -92 54
-132 78 -82 50 -144 89 -193 123 -12 8 -35 24 -51 35 -70 46 -339 263 -405
325 -188 178 -275 269 -408 425 -47 55 -91 106 -98 113 -7 7 -13 18 -13 23 0
13 63 39 109 46 20 3 49 12 64 20 16 8 59 21 95 28 37 8 92 21 122 29 88 24
191 48 250 58 30 5 93 18 140 29 47 10 126 23 175 29 50 5 124 16 166 24 42 8
134 18 205 22 l130 7 60 -49 c33 -27 73 -58 89 -70 104 -72 159 -110 173 -119
10 -5 31 -19 47 -30 17 -12 41 -26 55 -33 14 -7 48 -26 75 -42 28 -16 61 -34
75 -39 14 -6 32 -16 40 -21 8 -6 31 -17 50 -26 19 -8 53 -23 75 -34 187 -86
519 -188 685 -210 41 -6 111 -18 155 -27 101 -21 673 -24 770 -4 33 7 112 21
175 31 131 22 212 41 320 76 41 13 82 24 90 24 8 0 27 6 41 14 15 7 51 22 80
31 30 10 63 24 74 31 11 6 34 15 52 19 17 3 37 13 44 21 6 8 17 14 23 14 26 0
267 129 386 207 106 69 127 85 216 156 47 38 95 72 107 77 23 9 55 8 262 -10z"/>
<path fill="#ffffff" stroke="none" d="M6280 2210 c10 -23 19 -30 41 -30 37 0
48 -20 21 -38 -16 -11 -22 -25 -22 -53 0 -38 -13 -58 -25 -38 -4 6 -27 9 -54
7 -45 -3 -46 -2 -49 27 -2 17 -13 40 -24 52 -24 25 -17 43 17 43 15 0 33 11
47 30 12 17 25 30 29 30 3 0 12 -13 19 -30z"/>
<path fill="#ffffff" stroke="none" d="M4178 2200 c7 -11 20 -20 30 -20 9 0
24 -5 32 -10 12 -8 11 -12 -7 -32 -12 -13 -23 -34 -25 -48 -3 -23 -7 -25 -58
-25 -55 0 -55 0 -58 33 -2 19 -11 38 -23 45 -26 16 -24 24 11 30 16 4 35 16
42 27 16 26 40 26 56 0z"/>
<path fill="#ffffff" stroke="none" d="M5227 2004 c3 -8 16 -20 29 -25 30 -11
31 -42 4 -86 -17 -29 -25 -33 -64 -33 -44 0 -46 1 -66 47 l-21 47 38 33 c42
35 70 42 80 17z"/>
</g>
</svg>
