<?xml version="1.0" standalone="no"?>
<!DOCTYPE svg PUBLIC "-//W3C//DTD SVG 20010904//EN"
 "http://www.w3.org/TR/2001/REC-SVG-20010904/DTD/svg10.dtd">
<svg version="1.0" xmlns="http://www.w3.org/2000/svg"
 width="500.000000pt" height="314.000000pt" viewBox="0 0 500.000000 314.000000"
 preserveAspectRatio="xMidYMid meet">
<metadata>
Created by potrace 1.16, written by Peter Selinger 2001-2019
</metadata>
<g transform="translate(0.000000,314.000000) scale(0.100000,-0.100000)"
fill="#000000" stroke="none">
<path fill="#000000" stroke="none" d="M3582 3084 c-361 -57 -807 -261 -1277
-582 -133 -90 -379 -274 -511 -382 l-62 -50 -68 97 c-236 332 -552 528 -889
550 -296 19 -587 -132 -701 -362 -50 -101 -64 -164 -64 -289 0 -153 25 -241
129 -451 80 -163 87 -174 170 -256 74 -73 103 -94 192 -138 142 -70 231 -92
404 -98 219 -8 423 28 700 124 72 24 137 47 146 49 8 3 74 -25 145 -63 439
-231 826 -375 1164 -432 295 -50 540 -49 792 4 351 73 674 260 969 562 98 99
115 134 148 300 41 203 37 369 -13 566 -100 394 -433 732 -821 834 -87 22
-124 26 -280 29 -125 2 -209 -1 -273 -12z"/>
<path fill="#ffffff" stroke="none" d="M952 2172 c127 -45 272 -161 384 -308
l59 -76 -30 -24 c-16 -13 -72 -47 -124 -76 -281 -155 -544 -191 -689 -95 -140
94 -138 293 7 525 25 41 47 53 136 76 45 11 201 -2 257 -22z"/>
<path fill="#ffffff" stroke="none" d="M3646 2072 c79 -58 143 -147 170 -238
44 -151 -33 -306 -192 -391 -247 -131 -620 -98 -1066 94 -108 46 -130 53 -148
43 -12 -6 -24 -9 -27 -6 -3 2 10 11 28 19 19 8 135 64 259 125 259 126 445
210 615 277 127 51 279 103 306 104 9 1 34 -12 55 -27z"/>
<path fill="#000000" stroke="none" d="M1880 521 c-5 -11 -10 -51 -10 -90 0
-69 1 -71 24 -71 23 0 25 4 28 50 l3 49 57 -50 c80 -70 92 -66 96 39 3 81 3
82 -22 82 -23 0 -25 -4 -28 -47 l-3 -48 -58 53 c-31 28 -62 52 -67 52 -5 0
-14 -9 -20 -19z"/>
<path fill="#000000" stroke="none" d="M2433 533 c-9 -3 -13 -31 -13 -89 0
-77 2 -84 20 -84 17 0 20 7 20 39 0 22 4 43 10 46 5 3 32 -15 59 -40 72 -67
85 -61 89 43 3 82 3 82 -23 82 -23 0 -25 -3 -25 -46 l0 -46 -52 44 c-63 53
-69 57 -85 51z"/>
<path fill="#000000" stroke="none" d="M1790 445 c0 -84 0 -85 25 -85 25 0 25
1 25 85 0 84 0 85 -25 85 -25 0 -25 -1 -25 -85z"/>
<path fill="#000000" stroke="none" d="M2110 445 l0 -85 29 0 c26 0 30 4 33
33 3 31 5 32 49 35 31 2 53 10 64 23 18 19 17 19 -48 19 -38 0 -67 4 -67 10 0
6 24 10 53 10 49 0 77 12 77 32 0 4 -43 8 -95 8 l-95 0 0 -85z"/>
<path fill="#000000" stroke="none" d="M2330 445 c0 -84 0 -85 25 -85 25 0 25
1 25 85 0 84 0 85 -25 85 -25 0 -25 -1 -25 -85z"/>
<path fill="#000000" stroke="none" d="M2660 445 c0 -84 0 -85 25 -85 25 0 25
1 25 85 0 84 0 85 -25 85 -25 0 -25 -1 -25 -85z"/>
<path fill="#000000" stroke="none" d="M2745 510 c-18 -20 -17 -20 23 -20 l42
0 0 -65 c0 -62 1 -65 25 -65 23 0 24 4 27 63 3 62 3 62 34 65 18 2 40 12 50
23 17 19 16 19 -83 19 -87 0 -102 -3 -118 -20z"/>
<path fill="#000000" stroke="none" d="M2980 522 c0 -4 20 -28 45 -52 35 -35
45 -51 45 -77 0 -30 3 -33 30 -33 26 0 30 3 30 29 0 21 14 45 51 85 l51 56
-35 0 c-28 0 -41 -7 -64 -35 l-29 -35 -34 35 c-23 24 -43 35 -62 35 -15 0 -28
-4 -28 -8z"/>
<path fill="#000000" stroke="none" d="M507 196 l-17 -25 76 -3 c60 -2 79 -7
88 -20 20 -32 -4 -53 -60 -53 -46 0 -49 2 -52 28 -3 21 -9 27 -28 27 -22 0
-24 -3 -24 -55 l0 -55 58 0 c112 0 162 30 162 95 0 52 -38 79 -119 83 -63 4
-68 2 -84 -22z"/>
<path fill="#000000" stroke="none" d="M742 133 l3 -88 79 -3 c63 -2 82 1 97
14 31 28 22 34 -51 34 -40 0 -70 4 -70 10 0 6 24 10 53 10 41 0 55 4 65 20 12
19 10 20 -53 20 -37 0 -65 4 -65 10 0 6 24 10 53 10 40 0 58 5 70 18 10 10 17
22 17 25 0 4 -45 7 -100 7 l-101 0 3 -87z"/>
<path fill="#000000" stroke="none" d="M987 202 c-10 -10 -17 -22 -17 -25 0
-4 39 -7 86 -7 76 0 85 -2 82 -17 -3 -15 -17 -18 -91 -21 l-88 -3 3 -42 c3
-37 6 -42 28 -42 18 0 26 6 28 23 3 20 9 22 65 22 79 0 107 17 107 65 0 46
-36 65 -123 65 -49 0 -68 -4 -80 -18z"/>
<path fill="#000000" stroke="none" d="M1284 198 c-37 -43 -104 -137 -104
-148 0 -5 11 -10 25 -10 19 0 35 14 69 60 l44 61 20 -33 21 -33 -36 -5 c-22
-3 -41 -13 -51 -27 l-14 -23 101 0 c79 0 101 3 95 13 -4 6 -32 47 -61 90 -58
82 -77 92 -109 55z"/>
<path fill="#000000" stroke="none" d="M1497 196 l-17 -26 91 0 c81 0 90 -2
87 -17 -3 -15 -17 -18 -91 -21 l-87 -3 0 -44 c0 -41 2 -45 25 -45 20 0 25 5
25 25 0 23 4 25 43 25 33 0 49 -6 67 -25 14 -15 35 -25 52 -25 33 0 35 6 7 36
l-21 22 21 21 c26 26 26 42 2 72 -17 21 -29 24 -103 27 -82 4 -85 3 -101 -22z"/>
<path fill="#000000" stroke="none" d="M1757 202 c-24 -27 -21 -32 18 -32 l34
0 3 -62 c3 -60 4 -63 28 -63 24 0 25 3 28 63 3 61 4 62 31 62 25 0 61 26 61
43 0 4 -42 7 -93 7 -78 0 -97 -3 -110 -18z"/>
<path fill="#000000" stroke="none" d="M1987 213 c-9 -14 -47 -145 -47 -159 0
-20 38 -17 49 4 5 9 12 34 16 55 l7 37 32 -52 c42 -71 58 -72 98 -6 l33 53 14
-52 c12 -45 17 -53 37 -53 30 0 30 21 1 110 -30 89 -53 92 -97 16 -17 -31 -33
-56 -35 -56 -2 0 -17 25 -34 55 -21 37 -38 55 -50 55 -11 0 -22 -3 -24 -7z"/>
<path fill="#000000" stroke="none" d="M2280 130 l0 -90 84 0 c78 0 85 2 100
25 l16 25 -75 0 c-43 0 -75 4 -75 10 0 6 24 10 53 10 41 0 58 5 72 20 18 20
17 20 -53 20 -41 0 -72 4 -72 10 0 6 26 10 59 10 52 0 61 3 75 25 l16 25 -100
0 -100 0 0 -90z"/>
<path fill="#000000" stroke="none" d="M2504 207 c-3 -8 -4 -47 -2 -88 3 -68
5 -74 25 -77 20 -3 22 2 25 50 l3 53 58 -55 c77 -72 91 -65 95 49 3 80 3 81
-22 81 -23 0 -25 -4 -28 -50 l-3 -50 -55 50 c-55 49 -86 61 -96 37z"/>
<path fill="#000000" stroke="none" d="M2747 202 c-25 -27 -21 -32 23 -32 l40
0 0 -65 c0 -63 1 -65 25 -65 24 0 25 2 25 65 l0 65 33 0 c22 1 37 8 50 25 l18
25 -99 0 c-83 0 -102 -3 -115 -18z"/>
<path fill="#000000" stroke="none" d="M3100 207 c-18 -9 -25 -21 -25 -42 0
-39 32 -55 113 -55 34 0 62 -4 62 -10 0 -6 -31 -10 -73 -10 -59 0 -77 -4 -90
-18 -10 -10 -17 -22 -17 -26 0 -14 196 -2 214 13 23 19 21 68 -3 81 -11 5 -51
10 -90 10 -41 0 -71 4 -71 10 0 6 31 10 73 10 65 1 74 3 90 25 l18 25 -88 0
c-51 0 -99 -6 -113 -13z"/>
<path fill="#000000" stroke="none" d="M3315 198 c-15 -23 -15 -23 25 -26 l40
-3 0 -65 c0 -62 1 -64 25 -64 24 0 25 2 25 65 l0 65 34 0 c25 0 38 6 50 25
l16 25 -99 0 c-92 0 -101 -2 -116 -22z"/>
<path fill="#000000" stroke="none" d="M3565 208 c-33 -17 -45 -40 -45 -80 0
-67 58 -98 158 -84 59 8 92 38 92 83 0 47 -14 69 -51 82 -41 14 -128 14 -154
-1z"/>
<path fill="#ffffff" stroke="none" d="M3708 158 c15 -13 16 -40 0 -56 -7 -7
-38 -12 -70 -12 -53 0 -58 2 -64 25 -8 34 0 53 28 58 31 6 90 -2 106 -15z"/>
<path fill="#000000" stroke="none" d="M3817 196 l-17 -26 91 0 c81 0 90 -2
87 -17 -3 -15 -17 -18 -91 -21 l-87 -3 0 -44 c0 -41 2 -45 24 -45 18 0 25 6
28 23 2 18 10 23 43 25 33 2 45 -2 65 -23 14 -15 34 -25 52 -25 33 0 35 6 7
36 l-21 22 21 21 c26 26 26 42 2 72 -17 21 -29 24 -103 27 -82 4 -85 3 -101
-22z"/>
<path fill="#000000" stroke="none" d="M4070 130 l0 -90 84 0 c77 0 86 2 101
23 l15 22 -70 3 c-78 3 -97 22 -22 22 36 0 54 5 67 20 18 20 17 20 -48 20 -81
0 -90 18 -11 22 46 2 60 7 72 26 l14 22 -101 0 -101 0 0 -90z"/>
<path fill="#000000" stroke="none" d="M4312 204 c-31 -21 -26 -64 8 -81 14
-7 53 -13 88 -13 34 0 62 -4 62 -10 0 -6 -33 -10 -80 -10 -68 0 -81 -3 -90
-19 -5 -11 -10 -23 -10 -27 0 -3 45 -4 101 -2 85 3 103 7 115 23 18 25 18 50
-2 69 -11 12 -36 16 -90 16 -43 0 -74 4 -74 10 0 6 29 10 68 10 54 0 72 4 85
18 10 10 17 22 17 25 0 4 -39 7 -88 7 -64 0 -94 -4 -110 -16z"/>
</g>
</svg>
