<?xml version="1.0" standalone="no"?>
<!DOCTYPE svg PUBLIC "-//W3C//DTD SVG 20010904//EN"
 "http://www.w3.org/TR/2001/REC-SVG-20010904/DTD/svg10.dtd">
<svg version="1.0" xmlns="http://www.w3.org/2000/svg"
 width="243.000000pt" height="263.000000pt" viewBox="0 0 243.000000 263.000000"
 preserveAspectRatio="xMidYMid meet">
<metadata>
Created by potrace 1.16, written by Peter Selinger 2001-2019
</metadata>
<g transform="translate(0.000000,263.000000) scale(0.100000,-0.100000)"
fill="#000000" stroke="none">
<path fill="#000000" stroke="none" d="M834 2565 c-13 -34 3 -45 69 -45 68 0
95 15 83 45 -8 22 -144 22 -152 0z"/>
<path fill="#000000" stroke="none" d="M771 2524 c-19 -25 -21 -40 -21 -194
l0 -168 -99 -4 c-88 -3 -104 -7 -147 -34 -27 -16 -62 -49 -79 -73 l-30 -43 -3
-429 -3 -429 66 46 c81 57 184 101 346 149 67 20 142 48 166 62 57 33 111 97
124 147 12 44 6 153 -9 168 -5 5 -26 -9 -54 -38 -42 -43 -47 -45 -69 -34 -23
13 -23 13 -7 -12 15 -23 15 -26 -6 -53 -18 -22 -27 -26 -47 -20 -23 7 -24 7
-6 -12 17 -20 17 -23 0 -82 -10 -33 -21 -61 -25 -61 -4 0 -12 17 -17 38 -28
99 2 186 83 240 35 23 43 32 28 32 -12 0 -26 8 -31 18 -9 15 -10 14 -11 -8 0
-21 -8 -29 -36 -39 -32 -11 -37 -11 -49 6 -13 17 -14 16 -15 -9 0 -19 -12 -35
-47 -61 -27 -20 -49 -32 -51 -26 -8 21 48 118 83 145 35 26 45 29 119 29 45 0
95 -4 111 -8 25 -6 23 -3 -18 24 -40 26 -48 37 -44 56 5 26 0 29 -22 9 -14
-11 -21 -11 -49 0 -28 13 -32 17 -26 42 l7 27 -19 -23 c-19 -23 -23 -23 -89
-15 l-70 10 55 26 c94 46 181 32 246 -39 l33 -37 -5 34 c-16 100 57 197 170
225 l28 7 -38 -52 c-31 -41 -44 -51 -67 -51 -29 0 -29 0 -9 -17 20 -17 20 -21
7 -50 -10 -23 -21 -33 -37 -33 -22 -1 -22 -1 -4 -15 18 -14 18 -35 0 -110 -3
-11 3 -7 12 10 32 57 77 106 115 125 46 24 125 26 176 5 20 -8 38 -14 40 -12
10 11 -21 115 -42 143 -59 77 -122 104 -242 104 l-73 0 0 160 c0 168 -9 210
-46 224 -26 10 -30 -2 -11 -33 14 -24 17 -57 17 -190 l0 -161 -125 0 -125 0 0
159 c0 139 2 161 19 182 17 23 18 49 1 49 -5 0 -18 -12 -29 -26z"/>
<path fill="#000000" stroke="none" d="M1856 1907 c-15 -11 -7 -21 78 -92 52
-44 95 -83 95 -87 1 -5 -584 -298 -595 -298 -2 0 -5 55 -6 122 l-3 123 -35 16
c-24 12 -37 26 -41 45 -7 28 -7 29 -14 6 -6 -18 -13 -22 -29 -18 -11 3 -29 6
-38 6 -11 0 -18 8 -18 19 0 27 -17 35 -23 11 -4 -17 -14 -20 -66 -20 -34 0
-61 -2 -61 -4 0 -2 9 -23 19 -47 60 -139 17 -262 -127 -361 -24 -16 -89 -49
-145 -72 -56 -24 -129 -57 -162 -73 -65 -34 -185 -118 -185 -131 0 -16 79 -52
114 -52 23 0 62 13 103 35 37 19 81 35 99 35 18 0 63 -16 100 -35 87 -46 130
-46 197 -3 69 44 144 46 205 5 77 -51 69 -53 400 112 166 83 302 155 302 161
0 15 -33 80 -41 80 -3 0 -125 -58 -270 -130 -145 -71 -267 -130 -271 -130 -5
0 -8 41 -8 91 l0 90 323 159 322 159 6 -57 c4 -31 7 -92 8 -136 l1 -78 23 14
c21 14 37 76 87 325 0 1 35 20 78 43 84 43 139 91 127 110 -10 17 -60 5 -160
-37 l-86 -35 -138 71 c-76 39 -141 71 -143 71 -2 0 -12 -6 -22 -13z"/>
<path fill="#000000" stroke="none" d="M1287 1888 c4 -23 0 -29 -28 -41 -30
-13 -36 -12 -53 2 -17 15 -18 15 -15 -6 3 -13 -4 -28 -15 -36 -17 -12 -11 -12
40 0 74 18 128 7 179 -38 l35 -31 0 72 0 73 -56 -7 c-50 -6 -57 -4 -74 16
l-18 23 5 -27z"/>
<path fill="#000000" stroke="none" d="M1583 1807 l-143 -72 0 -57 0 -57 103
49 c57 26 135 64 175 84 l72 36 -22 45 c-12 25 -27 45 -32 44 -6 0 -75 -32
-153 -72z"/>
<path fill="#000000" stroke="none" d="M712 994 c-78 -42 -113 -43 -188 -4
-51 28 -59 29 -73 16 -8 -9 -13 -17 -10 -18 32 -22 159 -78 176 -78 12 0 52
16 89 36 60 32 75 36 124 32 40 -3 67 -12 99 -34 61 -40 121 -40 182 0 64 43
132 47 200 12 28 -15 57 -25 65 -22 20 8 17 36 -3 36 -9 0 -38 14 -65 31 -41
27 -56 31 -96 27 -29 -3 -64 -15 -90 -33 -68 -45 -122 -45 -205 -1 -85 46
-122 46 -205 0z"/>
<path fill="#000000" stroke="none" d="M430 941 c0 -12 54 -57 94 -79 27 -15
72 -17 363 -20 341 -3 385 0 432 37 l23 18 -38 24 c-56 35 -118 33 -175 -6
-38 -26 -53 -30 -110 -30 -55 0 -72 5 -107 27 -67 45 -106 46 -184 4 -90 -48
-139 -49 -224 -1 -67 37 -74 40 -74 26z"/>
<path fill="#000000" stroke="none" d="M1213 807 c-68 -11 -80 -28 -45 -60 41
-37 112 -6 112 48 0 14 -1 24 -2 23 -2 0 -31 -6 -65 -11z"/>
<path fill="#000000" stroke="none" d="M530 808 c0 -3 5 -19 11 -37 18 -51 92
-57 118 -9 9 15 13 29 11 31 -7 7 -140 20 -140 15z"/>
<path fill="#000000" stroke="none" d="M37 483 c-4 -3 -7 -37 -7 -75 0 -54 3
-68 15 -68 12 0 15 15 15 75 0 69 -6 86 -23 68z"/>
<path fill="#000000" stroke="none" d="M107 483 c-4 -3 -7 -37 -7 -75 0 -53 3
-68 14 -68 11 0 16 14 18 48 l3 47 34 -47 c50 -70 63 -64 59 25 -3 81 -21 98
-26 24 l-3 -47 -40 50 c-42 53 -42 53 -52 43z"/>
<path fill="#000000" stroke="none" d="M270 416 c0 -44 4 -76 10 -76 6 0 10
14 10 30 0 27 3 30 30 30 17 0 30 5 30 10 0 6 -13 10 -30 10 -23 0 -30 5 -30
19 0 15 8 21 33 23 46 4 39 22 -10 26 l-43 3 0 -75z"/>
<path fill="#000000" stroke="none" d="M396 483 c-3 -3 -6 -37 -6 -75 0 -54 3
-68 15 -68 12 0 15 14 15 69 0 65 -8 90 -24 74z"/>
<path fill="#000000" stroke="none" d="M460 415 c0 -43 4 -75 10 -75 6 0 10
21 10 48 l1 47 42 -48 c23 -26 45 -47 50 -47 4 0 7 34 7 75 0 85 -17 103 -22
23 l-3 -52 -35 47 c-53 70 -60 68 -60 -18z"/>
<path fill="#000000" stroke="none" d="M627 483 c-4 -3 -7 -37 -7 -75 0 -54 3
-68 15 -68 12 0 15 15 15 75 0 69 -6 86 -23 68z"/>
<path fill="#000000" stroke="none" d="M680 475 c0 -8 9 -15 20 -15 18 0 20
-7 20 -60 0 -47 3 -60 15 -60 12 0 15 13 15 59 0 52 3 60 20 63 41 6 19 23
-35 26 -44 2 -55 0 -55 -13z"/>
<path fill="#000000" stroke="none" d="M810 483 c0 -5 12 -26 25 -48 14 -22
25 -52 25 -67 0 -18 5 -28 15 -28 10 0 15 10 15 33 0 17 9 46 20 62 11 17 20
35 20 42 0 22 -26 3 -42 -29 l-14 -31 -22 36 c-19 33 -43 49 -42 30z"/>
<path fill="#000000" stroke="none" d="M1010 475 c0 -8 9 -15 20 -15 18 0 20
-7 20 -60 0 -47 3 -60 15 -60 12 0 15 13 15 60 0 53 2 60 20 60 11 0 20 7 20
15 0 12 -13 15 -55 15 -42 0 -55 -3 -55 -15z"/>
<path fill="#000000" stroke="none" d="M1157 484 c-4 -4 -7 -38 -7 -76 0 -54
3 -68 15 -68 10 0 15 10 15 30 0 17 4 30 8 30 4 0 16 -13 25 -30 10 -16 25
-30 33 -30 13 0 12 5 -3 30 -13 23 -15 32 -5 42 13 13 16 54 4 62 -15 9 -78
17 -85 10z"/>
<path fill="#ffffff" stroke="none" d="M1220 440 c0 -13 -7 -20 -20 -20 -13 0
-20 7 -20 20 0 13 7 20 20 20 13 0 20 -7 20 -20z"/>
<path fill="#000000" stroke="none" d="M1305 419 c-27 -70 -26 -104 2 -61 9
12 26 22 38 22 12 0 29 -10 38 -22 8 -13 18 -20 22 -16 10 10 -46 148 -60 148
-7 0 -24 -32 -40 -71z"/>
<path fill="#ffffff" stroke="none" d="M1360 408 c0 -10 -7 -18 -15 -18 -16 0
-19 17 -9 45 5 13 8 14 15 3 5 -7 9 -21 9 -30z"/>
<path fill="#000000" stroke="none" d="M1430 480 c0 -25 54 -140 65 -140 15 0
72 136 61 147 -10 10 -21 -7 -42 -61 l-18 -50 -14 35 c-8 19 -18 44 -23 57 -8
22 -29 31 -29 12z"/>
<path fill="#000000" stroke="none" d="M1590 415 l0 -75 45 0 c25 0 45 5 45
10 0 6 -13 10 -30 10 -23 0 -30 4 -30 20 0 13 7 20 19 20 11 0 23 5 26 10 4 6
-5 10 -19 10 -19 0 -26 5 -26 20 0 16 7 20 30 20 20 0 30 5 30 15 0 11 -12 15
-45 15 l-45 0 0 -75z"/>
<path fill="#000000" stroke="none" d="M1717 483 c-4 -3 -7 -37 -7 -75 l0 -68
45 0 c25 0 45 5 45 10 0 6 -13 10 -30 10 l-30 0 0 65 c0 60 -6 75 -23 58z"/>
<path fill="#000000" stroke="none" d="M273 123 c13 -3 17 -15 17 -49 0 -24 5
-44 10 -44 6 0 10 20 10 44 0 34 4 46 18 49 9 3 -3 5 -28 5 -25 0 -37 -2 -27
-5z"/>
<path fill="#000000" stroke="none" d="M371 78 c1 -29 4 -43 6 -30 5 27 19 28
35 2 7 -11 17 -20 22 -20 4 0 1 11 -8 25 -10 15 -12 25 -6 25 6 0 10 10 8 23
-2 16 -11 23 -30 25 -28 3 -28 3 -27 -50z"/>
<path fill="#ffffff" stroke="none" d="M418 103 c-5 -26 -38 -29 -38 -4 0 15
6 21 21 21 14 0 19 -5 17 -17z"/>
<path fill="#000000" stroke="none" d="M490 105 c-6 -14 -14 -36 -20 -50 -6
-16 -6 -25 0 -25 6 0 10 7 10 15 0 21 47 19 59 -2 16 -27 13 -4 -5 44 -19 49
-30 54 -44 18z"/>
<path fill="#ffffff" stroke="none" d="M520 84 c0 -8 -6 -14 -14 -14 -9 0 -12
7 -9 20 6 22 23 18 23 -6z"/>
<path fill="#000000" stroke="none" d="M592 80 c11 -27 24 -50 27 -50 4 0 13
17 20 37 8 21 16 44 19 52 3 9 1 12 -6 8 -6 -4 -13 -21 -17 -37 -9 -40 -21
-38 -35 5 -6 19 -15 35 -20 35 -5 0 0 -22 12 -50z"/>
<path fill="#000000" stroke="none" d="M690 80 l0 -50 38 1 c30 2 32 3 10 6
-32 5 -39 39 -10 46 16 4 16 5 0 6 -29 2 -21 29 10 34 22 3 20 4 -10 6 l-38 1
0 -50z"/>
<path fill="#000000" stroke="none" d="M792 83 l-2 -53 33 1 c29 1 30 2 7 8
-21 6 -26 15 -31 51 l-6 45 -1 -52z"/>
<path fill="#000000" stroke="none" d="M937 84 c-9 -26 -15 -49 -12 -52 2 -3
7 3 11 12 8 21 43 21 60 -1 10 -12 9 -2 -3 31 -10 27 -23 51 -28 53 -6 2 -18
-18 -28 -43z"/>
<path fill="#ffffff" stroke="none" d="M980 78 c0 -5 -7 -8 -15 -8 -15 0 -20
21 -8 33 7 7 23 -11 23 -25z"/>
<path fill="#000000" stroke="none" d="M1044 105 c-15 -23 -15 -27 0 -51 22
-33 69 -31 74 4 3 16 -1 22 -15 21 -10 0 -13 -3 -5 -6 21 -8 14 -35 -9 -31
-53 8 -48 73 5 73 14 -1 26 3 26 7 0 4 -13 8 -30 8 -20 0 -35 -8 -46 -25z"/>
<path fill="#000000" stroke="none" d="M1160 80 l0 -50 33 1 c30 2 30 2 5 6
-35 5 -39 40 -5 46 l22 4 -22 2 c-33 2 -29 29 5 34 25 4 25 4 -5 6 l-33 1 0
-50z"/>
<path fill="#000000" stroke="none" d="M1262 80 c1 -51 1 -52 7 -16 l6 40 25
-37 c14 -20 28 -37 33 -37 4 0 6 24 6 53 -2 50 -2 51 -8 12 l-6 -39 -32 39
-32 40 1 -55z"/>
<path fill="#000000" stroke="none" d="M1380 111 c-14 -27 -13 -47 6 -65 17
-18 64 -22 64 -5 0 5 -5 7 -10 4 -6 -3 -19 -3 -31 0 -16 5 -19 14 -17 38 3 28
7 32 31 32 15 -1 27 3 27 7 0 17 -59 8 -70 -11z"/>
<path fill="#000000" stroke="none" d="M1495 103 c8 -18 15 -41 15 -53 0 -11
5 -20 10 -20 6 0 10 11 10 25 0 14 7 37 16 50 10 15 12 25 5 25 -6 0 -11 -3
-11 -7 0 -5 -4 -15 -9 -22 -8 -12 -13 -11 -31 10 l-21 24 16 -32z"/>
</g>
</svg>
