<?xml version="1.0" standalone="no"?>
<!DOCTYPE svg PUBLIC "-//W3C//DTD SVG 20010904//EN"
 "http://www.w3.org/TR/2001/REC-SVG-20010904/DTD/svg10.dtd">
<svg version="1.0" xmlns="http://www.w3.org/2000/svg"
 width="338.000000pt" height="338.000000pt" viewBox="0 0 338.000000 338.000000"
 preserveAspectRatio="xMidYMid meet">
<metadata>
Created by potrace 1.16, written by Peter Selinger 2001-2019
</metadata>
<g transform="translate(0.000000,338.000000) scale(0.100000,-0.100000)"
fill="#000000" stroke="none">
<path fill="#000000" stroke="none" d="M1470 3360 c-223 -18 -563 -132 -755
-253 -112 -71 -271 -195 -325 -253 -81 -87 -186 -217 -237 -294 -43 -65 -123
-221 -123 -239 0 -3 27 42 59 100 83 153 161 259 276 378 219 226 467 375 768
462 286 83 620 90 900 18 573 -146 1033 -573 1221 -1133 98 -294 114 -644 41
-949 -119 -504 -463 -932 -929 -1158 -44 -22 -71 -39 -60 -39 40 1 280 140
398 232 100 78 143 121 261 261 131 157 146 180 222 330 l81 162 57 271 57
272 -10 173 c-9 163 -13 186 -62 363 -67 244 -146 409 -288 599 -96 130 -286
323 -367 375 -22 14 -58 37 -80 52 -201 135 -544 251 -800 270 -133 10 -167
10 -305 0z"/>
<path fill="#000000" stroke="none" d="M1419 3115 c-327 -45 -619 -188 -853
-420 -93 -92 -164 -175 -149 -175 4 0 22 19 38 41 17 23 65 74 107 115 216
206 473 342 771 406 84 18 134 22 287 22 205 0 304 -16 482 -75 498 -167 874
-593 993 -1124 22 -95 31 -386 16 -496 -86 -646 -574 -1157 -1226 -1286 -136
-26 -416 -24 -551 5 -320 69 -601 224 -817 452 -38 39 -70 70 -72 68 -6 -5
127 -144 195 -203 297 -260 713 -393 1113 -356 369 34 676 178 937 440 141
141 231 267 305 424 95 205 134 364 142 592 8 215 -6 321 -69 525 -126 409
-457 771 -859 940 -249 103 -529 141 -790 105z"/>
<path fill="#000000" stroke="none" d="M2220 3055 c14 -8 30 -14 35 -14 6 0
-1 6 -15 14 -14 8 -29 14 -35 14 -5 0 1 -6 15 -14z"/>
<path fill="#000000" stroke="none" d="M990 3050 c-8 -5 -10 -10 -5 -10 6 0
17 5 25 10 8 5 11 10 5 10 -5 0 -17 -5 -25 -10z"/>
<path fill="#000000" stroke="none" d="M2271 3036 c2 -2 15 -9 29 -15 24 -11
24 -11 6 3 -16 13 -49 24 -35 12z"/>
<path fill="#000000" stroke="none" d="M1483 3013 c-12 -2 -25 -13 -28 -23 -7
-23 18 -75 41 -84 12 -5 14 -13 10 -32 -5 -18 -2 -32 9 -44 15 -17 11 -18 -70
-25 l-85 -7 22 -31 c28 -41 37 -47 70 -47 67 0 96 -40 63 -84 -19 -26 -19 -56
1 -84 18 -26 15 -66 -7 -120 -12 -29 -12 -37 4 -63 25 -45 21 -71 -18 -115
-19 -21 -35 -46 -35 -54 0 -10 -22 -22 -62 -34 -70 -22 -104 -52 -110 -98 -7
-45 9 -119 33 -151 l21 -29 -33 -34 c-42 -43 -32 -68 27 -71 l39 -2 -32 11
c-40 13 -40 20 -8 63 29 37 65 132 65 170 0 14 4 25 10 25 17 0 23 -49 12 -93
-14 -52 -2 -67 60 -78 l43 -6 -55 -2 c-33 0 -65 -8 -79 -17 l-22 -16 21 -23
c16 -17 18 -24 8 -28 -26 -9 209 -20 310 -14 106 6 132 16 132 47 0 14 11 20
50 25 128 18 179 81 206 257 19 124 15 302 -6 335 -8 13 -21 25 -28 28 -21 8
-74 -21 -112 -60 -19 -19 -39 -35 -46 -35 -6 0 -31 -22 -55 -50 -24 -27 -49
-50 -55 -50 -6 0 -25 -21 -42 -47 -53 -81 -68 -97 -85 -90 -14 5 -15 10 -3 37
7 17 26 39 43 50 51 31 93 107 93 169 0 15 4 31 9 37 23 23 5 344 -19 344 -11
0 -33 -147 -31 -215 0 -33 4 -90 7 -126 7 -80 -16 -143 -64 -177 -40 -29 -45
-28 -81 13 -36 42 -38 53 -11 105 l20 40 -20 40 c-25 49 -25 64 1 106 l21 34
-21 40 c-33 63 -25 80 36 80 37 0 88 27 103 54 7 13 22 29 34 34 16 8 -3 11
-81 11 -94 1 -121 9 -92 27 6 3 8 16 5 28 -4 17 3 31 24 51 34 33 42 88 14 99
-17 7 -135 6 -171 -1z"/>
<path fill="#ffffff" stroke="none" d="M1480 2973 c0 -21 -3 -24 -9 -14 -5 8
-7 20 -4 28 8 21 13 15 13 -14z"/>
<path fill="#ffffff" stroke="none" d="M1429 2759 c11 -19 11 -21 -4 -15 -9 3
-19 6 -21 6 -2 0 -4 7 -4 15 0 21 13 19 29 -6z"/>
<path fill="#ffffff" stroke="none" d="M1542 2595 c-2 -19 -8 -32 -13 -29 -10
6 -12 48 -2 57 14 15 19 6 15 -28z"/>
<path fill="#ffffff" stroke="none" d="M1801 2568 c5 -78 1 -132 -8 -135 -7
-3 -11 24 -10 77 0 44 4 80 8 80 5 0 10 -10 10 -22z"/>
<path fill="#ffffff" stroke="none" d="M1540 2413 c0 -27 -3 -34 -11 -26 -7 7
-9 23 -5 37 9 37 16 32 16 -11z"/>
<path fill="#ffffff" stroke="none" d="M2066 2414 c15 -22 16 -45 11 -180 -7
-181 -25 -260 -71 -309 -36 -38 -96 -57 -164 -53 -42 3 -48 6 -68 42 -12 22
-25 60 -29 85 -4 25 -15 62 -26 83 l-19 37 48 34 c26 19 57 40 70 46 12 6 22
17 22 22 0 6 25 36 55 65 30 30 55 58 55 62 0 12 79 92 90 92 5 0 17 -12 26
-26z"/>
<path fill="#ffffff" stroke="none" d="M1925 2351 c3 -6 -19 -35 -49 -65 -31
-31 -58 -51 -62 -45 -3 6 15 31 40 56 25 25 46 49 46 54 0 12 17 12 25 0z"/>
<path fill="#ffffff" stroke="none" d="M1532 2248 c-15 -15 -16 -32 -2 -23 6
4 10 -5 10 -19 0 -29 -16 -35 -23 -8 -4 13 -5 11 -6 -5 -1 -30 -31 -31 -31 -1
0 23 36 68 54 68 6 0 5 -5 -2 -12z"/>
<path fill="#ffffff" stroke="none" d="M1470 2147 c0 -8 -11 -19 -25 -25 -28
-13 -39 -36 -63 -131 -10 -36 -22 -66 -28 -68 -18 -6 -39 57 -39 114 0 63 28
98 89 112 59 13 66 13 66 -2z"/>
<path fill="#ffffff" stroke="none" d="M1480 2101 c-19 -10 -41 -16 -48 -13
-20 7 25 31 58 31 23 0 23 -1 -10 -18z"/>
<path fill="#000000" stroke="none" d="M890 3000 c-9 -6 -10 -10 -3 -10 6 0
15 5 18 10 8 12 4 12 -15 0z"/>
<path fill="#000000" stroke="none" d="M2365 2986 c120 -72 156 -96 220 -147
297 -236 491 -559 567 -942 17 -89 22 -147 22 -282 -1 -228 -29 -377 -114
-586 -211 -523 -691 -891 -1254 -960 -133 -16 -372 -6 -499 21 -530 112 -957
477 -1142 975 -101 271 -126 585 -69 862 31 156 114 370 199 513 l26 45 -26
-30 c-36 -42 -150 -274 -179 -367 -59 -185 -71 -267 -71 -498 1 -184 4 -229
23 -313 46 -206 121 -383 237 -557 236 -355 583 -591 1000 -680 126 -27 382
-38 509 -21 717 96 1275 647 1377 1361 16 109 16 321 0 430 -23 160 -83 355
-152 492 -138 275 -373 523 -640 673 -69 39 -96 47 -34 11z"/>
<path fill="#000000" stroke="none" d="M689 2873 c-13 -16 -12 -17 4 -4 9 7
17 15 17 17 0 8 -8 3 -21 -13z"/>
<path fill="#000000" stroke="none" d="M349 2433 c-99 -146 -179 -338 -221
-530 -29 -134 -32 -445 -4 -573 28 -135 72 -268 120 -368 49 -100 137 -242
163 -264 9 -7 0 10 -19 38 -115 163 -212 407 -249 625 -18 105 -20 149 -16
289 10 291 77 515 229 768 31 50 54 92 52 92 -2 0 -27 -34 -55 -77z"/>
<path fill="#000000" stroke="none" d="M2754 2482 c-4 -22 -19 -43 -42 -60
-74 -57 -85 -73 -78 -122 9 -77 43 -187 51 -168 9 23 9 50 0 124 l-7 60 51 49
c43 41 51 54 51 84 0 20 -5 43 -10 51 -7 12 -11 8 -16 -18z"/>
<path fill="#000000" stroke="none" d="M2725 2325 c-24 -23 -31 -57 -19 -89 8
-22 24 -20 24 2 0 11 9 27 21 38 37 33 79 -16 79 -94 0 -37 -6 -49 -44 -90
-24 -26 -47 -58 -51 -70 -9 -29 2 -92 16 -92 6 0 7 5 4 11 -16 26 7 78 59 131
63 66 83 124 66 190 -23 84 -102 117 -155 63z"/>
<path fill="#000000" stroke="none" d="M12 2285 c-7 -14 -12 -31 -12 -38 1 -7
7 3 16 22 17 39 13 54 -4 16z"/>
<path fill="#000000" stroke="none" d="M2760 2213 c0 -20 -12 -48 -36 -78 -58
-76 -70 -133 -36 -175 18 -22 18 -22 18 27 0 42 7 60 42 112 45 67 51 96 27
127 -14 18 -14 17 -15 -13z"/>
<path fill="#000000" stroke="none" d="M2654 1888 c-3 -5 2 -18 11 -28 11 -13
13 -20 5 -25 -8 -5 -5 -14 10 -30 15 -16 18 -25 10 -30 -18 -11 8 -25 49 -25
28 0 33 3 28 19 -3 12 3 27 14 37 14 12 16 21 8 30 -7 8 -7 14 1 19 5 3 10 15
10 26 0 18 -6 20 -70 18 -39 -1 -73 -6 -76 -11z"/>
<path fill="#000000" stroke="none" d="M1608 1732 l-98 -3 0 -89 0 -90 100 0
101 0 -97 -120 c-54 -66 -101 -117 -104 -113 -4 5 -18 40 -30 78 -13 39 -44
130 -69 202 l-46 133 -86 0 -86 0 -31 -87 c-17 -49 -53 -153 -81 -233 l-50
-145 0 233 -1 232 -72 -2 -73 -2 67 -3 68 -4 2 -252 3 -252 27 75 c15 41 48
136 73 210 26 74 54 154 62 178 l16 42 76 0 76 0 17 -47 c90 -264 134 -383
141 -380 4 1 54 61 111 132 l104 130 -101 5 -102 5 -3 78 -3 77 226 0 225 0 0
-68 0 -67 -109 -135 -109 -135 108 -3 c93 -2 109 -5 113 -20 5 -22 2 -29 72
178 31 91 63 184 72 208 l16 42 78 0 78 0 10 -32 c17 -61 139 -410 145 -415 3
-3 26 12 51 32 l46 38 20 -22 c23 -25 38 -26 65 -7 17 13 19 30 22 210 l3 196
80 0 79 0 0 -197 c0 -114 -5 -215 -11 -238 -15 -52 -82 -119 -134 -134 -54
-15 -84 -14 -136 4 -28 10 -45 12 -47 5 -2 -6 -39 -10 -91 -10 l-87 0 -14 50
-14 50 -66 0 -66 0 -15 -47 -15 -48 -370 -3 -370 -2 -15 47 -15 48 -65 3 -66
3 -15 -48 -15 -48 -169 -5 c-93 -3 -144 -7 -114 -8 30 -1 103 -5 162 -9 123
-7 130 -4 148 62 l13 45 57 0 57 0 13 -45 c7 -25 16 -47 19 -49 3 -2 170 -7
371 -11 406 -8 376 -13 400 63 l13 42 57 0 57 0 12 -42 c7 -24 18 -49 23 -55
13 -16 179 -18 194 -3 8 8 19 8 38 0 84 -32 201 12 251 94 l30 49 3 224 3 224
-93 -3 -93 -3 -3 -196 c-2 -162 -5 -199 -18 -210 -12 -10 -20 -8 -45 10 -33
24 -25 26 -96 -25 -28 -20 -23 -30 -109 224 l-68 202 -87 0 -87 0 -31 -92
c-17 -51 -49 -142 -70 -203 l-38 -110 -107 -3 -107 -3 105 130 106 129 0 76 0
75 -137 3 c-76 2 -182 2 -235 0z"/>
<path fill="#000000" stroke="none" d="M400 1435 l0 -295 93 2 92 2 -87 3 -88
4 0 284 0 284 58 4 57 3 -62 2 -63 2 0 -295z"/>
<path fill="#000000" stroke="none" d="M1234 1690 c-12 -5 -26 -27 -36 -56 -9
-27 -48 -140 -87 -252 -53 -153 -67 -204 -57 -208 8 -3 35 -4 61 -2 48 3 48 3
65 53 l17 50 83 0 84 0 15 -47 15 -48 58 0 c32 0 58 1 58 3 0 10 -161 480
-170 497 -11 21 -65 27 -106 10z"/>
<path fill="#ffffff" stroke="none" d="M1305 1460 c10 -30 20 -61 23 -67 3 -9
-10 -13 -47 -13 -28 0 -51 3 -51 7 0 21 45 142 51 136 3 -5 15 -33 24 -63z"/>
<path fill="#000000" stroke="none" d="M1270 1425 c0 -8 5 -15 10 -15 6 0 10
7 10 15 0 8 -4 15 -10 15 -5 0 -10 -7 -10 -15z"/>
<path fill="#000000" stroke="none" d="M1550 1647 l0 -56 119 -3 118 -3 -123
-154 c-121 -149 -124 -154 -124 -202 l0 -49 205 0 205 0 0 50 0 49 -129 3
-129 3 124 152 c122 150 124 153 124 203 l0 50 -97 0 c-54 0 -142 3 -195 7
l-98 6 0 -56z"/>
<path fill="#000000" stroke="none" d="M440 1435 l0 -255 50 0 50 0 1 83 c1
45 4 115 8 155 l6 74 63 -111 c61 -106 65 -111 96 -111 32 0 36 5 97 111 l64
112 5 -158 5 -159 53 -4 52 -3 0 260 0 261 -55 0 -55 0 -82 -141 c-56 -94 -86
-136 -91 -127 -4 7 -42 70 -83 141 l-74 127 -55 0 -55 0 0 -255z"/>
<path fill="#000000" stroke="none" d="M2141 1668 c-25 -66 -161 -471 -161
-479 0 -5 26 -9 58 -9 l57 0 15 48 16 47 84 0 84 0 15 -47 15 -48 58 0 c32 0
58 2 58 5 0 5 -136 406 -160 473 -12 31 -13 32 -71 32 -53 0 -60 -3 -68 -22z"/>
<path fill="#ffffff" stroke="none" d="M2235 1460 c10 -30 20 -61 23 -67 3 -9
-10 -13 -48 -13 -37 0 -51 4 -48 13 3 6 13 40 23 75 11 34 22 59 26 55 3 -5
15 -33 24 -63z"/>
<path fill="#000000" stroke="none" d="M2196 1425 c-3 -9 0 -15 9 -15 8 0 15
7 15 15 0 8 -4 15 -9 15 -5 0 -11 -7 -15 -15z"/>
<path fill="#000000" stroke="none" d="M2670 1507 c0 -212 -5 -227 -70 -227
-21 0 -42 5 -45 10 -10 16 -28 11 -64 -20 -34 -29 -35 -30 -15 -51 60 -68 189
-64 256 7 43 47 48 73 48 275 l0 189 -55 0 -55 0 0 -183z"/>
<path fill="#000000" stroke="none" d="M836 1363 c-6 -14 -5 -15 5 -6 7 7 10
15 7 18 -3 3 -9 -2 -12 -12z"/>
<path fill="#000000" stroke="none" d="M430 1025 c0 -50 3 -65 14 -65 8 0 16
10 18 23 2 14 11 23 26 25 18 3 22 -1 22 -22 0 -16 6 -26 15 -26 12 0 15 14
15 65 0 51 -3 65 -15 65 -9 0 -15 -9 -15 -25 0 -20 -5 -25 -25 -25 -20 0 -25
5 -25 25 0 16 -6 25 -15 25 -12 0 -15 -14 -15 -65z"/>
<path fill="#000000" stroke="none" d="M650 1070 c-11 -11 -20 -31 -20 -45 0
-31 41 -75 70 -75 29 0 70 44 70 75 0 34 -33 65 -70 65 -17 0 -39 -9 -50 -20z"/>
<path fill="#ffffff" stroke="none" d="M733 1038 c8 -12 7 -21 -2 -32 -19 -23
-58 -20 -66 4 -14 43 44 67 68 28z"/>
<path fill="#000000" stroke="none" d="M870 1063 c-25 -32 -20 -69 12 -95 27
-23 49 -23 82 3 19 15 26 30 26 53 0 66 -79 91 -120 39z"/>
<path fill="#ffffff" stroke="none" d="M956 1036 c8 -32 -2 -46 -31 -46 -29 0
-47 27 -34 52 15 28 57 23 65 -6z"/>
<path fill="#000000" stroke="none" d="M1080 1025 c0 -51 3 -65 15 -65 8 0 15
9 15 20 0 11 4 20 10 20 5 0 14 -9 20 -20 10 -19 40 -28 40 -12 0 4 -9 20 -19
36 -20 29 -19 30 0 55 24 29 8 42 -20 17 -22 -20 -31 -20 -31 -1 0 8 -7 15
-15 15 -12 0 -15 -14 -15 -65z"/>
<path fill="#000000" stroke="none" d="M1283 1025 c-21 -63 -21 -65 -2 -65 10
0 19 5 19 10 0 14 26 13 50 -2 30 -19 32 -7 9 60 -28 84 -48 83 -76 -3z"/>
<path fill="#ffffff" stroke="none" d="M1324 1025 c3 -8 1 -15 -4 -15 -6 0
-10 7 -10 15 0 8 2 15 4 15 2 0 6 -7 10 -15z"/>
<path fill="#000000" stroke="none" d="M1470 1026 c0 -52 3 -66 15 -66 9 0 15
9 15 25 0 18 5 25 20 25 15 0 20 -7 20 -25 0 -16 6 -25 15 -25 12 0 15 14 15
65 0 51 -3 65 -15 65 -9 0 -15 -10 -15 -26 0 -21 -4 -25 -22 -22 -15 2 -23 10
-23 22 0 11 -6 21 -12 23 -10 4 -13 -13 -13 -61z"/>
<path fill="#000000" stroke="none" d="M1807 1083 c-4 -3 -7 -17 -7 -30 0 -13
-6 -32 -12 -43 -10 -16 -10 -22 2 -34 16 -16 30 -19 75 -17 26 1 30 5 32 31 2
21 -2 30 -12 30 -8 0 -15 -5 -15 -11 0 -5 -4 -7 -10 -4 -6 4 -4 16 6 31 13 19
14 27 4 39 -13 15 -51 20 -63 8z"/>
<path fill="#ffffff" stroke="none" d="M1850 1060 c0 -5 -7 -10 -15 -10 -8 0
-15 5 -15 10 0 6 7 10 15 10 8 0 15 -4 15 -10z"/>
<path fill="#ffffff" stroke="none" d="M1835 990 c3 -5 2 -10 -4 -10 -5 0 -13
5 -16 10 -3 6 -2 10 4 10 5 0 13 -4 16 -10z"/>
<path fill="#000000" stroke="none" d="M2121 1064 c-24 -31 -25 -35 -10 -68
16 -33 60 -52 89 -36 30 16 19 36 -18 32 -22 -2 -33 2 -40 15 -16 30 4 55 41
51 23 -2 32 1 32 12 0 10 -12 16 -36 18 -30 3 -41 -2 -58 -24z"/>
<path fill="#000000" stroke="none" d="M2350 1088 c0 -2 -9 -28 -20 -58 -24
-66 -24 -70 -5 -70 8 0 15 5 15 10 0 6 11 10 25 10 14 0 25 -4 25 -10 0 -5 7
-10 15 -10 20 0 19 15 -4 75 -10 28 -26 51 -35 53 -9 2 -16 2 -16 0z"/>
<path fill="#ffffff" stroke="none" d="M2374 1025 c3 -8 1 -15 -4 -15 -6 0
-10 7 -10 15 0 8 2 15 4 15 2 0 6 -7 10 -15z"/>
<path fill="#000000" stroke="none" d="M2510 1025 c0 -51 3 -65 15 -65 9 0 15
9 15 25 0 21 5 25 31 25 38 0 35 24 -4 28 -37 4 -34 22 3 22 20 0 30 5 30 15
0 11 -12 15 -45 15 l-45 0 0 -65z"/>
<path fill="#000000" stroke="none" d="M2690 1025 l0 -65 40 0 c29 0 40 4 40
15 0 9 -9 15 -25 15 -14 0 -25 5 -25 10 0 6 11 10 25 10 16 0 25 6 25 15 0 9
-9 15 -25 15 -14 0 -25 5 -25 10 0 6 11 10 25 10 16 0 25 6 25 15 0 11 -11 15
-40 15 l-40 0 0 -65z"/>
<path fill="#000000" stroke="none" d="M840 810 c0 -6 27 -10 60 -10 33 0 60
4 60 10 0 6 -27 10 -60 10 -33 0 -60 -4 -60 -10z"/>
<path fill="#000000" stroke="none" d="M1040 810 c0 -6 80 -10 219 -10 136 0
222 4 226 10 4 7 -72 10 -219 10 -144 0 -226 -4 -226 -10z"/>
<path fill="#000000" stroke="none" d="M1740 810 c0 -6 82 -10 225 -10 143 0
225 4 225 10 0 6 -82 10 -225 10 -143 0 -225 -4 -225 -10z"/>
<path fill="#000000" stroke="none" d="M2265 810 c3 -5 33 -10 66 -10 33 0 59
4 59 10 0 6 -29 10 -66 10 -41 0 -63 -4 -59 -10z"/>
<path fill="#000000" stroke="none" d="M1265 750 c28 -12 212 -12 220 0 4 6
-37 10 -117 9 -78 0 -116 -4 -103 -9z"/>
<path fill="#000000" stroke="none" d="M1745 750 c4 -6 53 -10 115 -10 62 0
111 4 115 10 4 6 -37 10 -115 10 -78 0 -119 -4 -115 -10z"/>
<path fill="#000000" stroke="none" d="M515 710 c-4 -7 107 -10 324 -10 214 0
331 4 331 10 0 6 -115 10 -324 10 -206 0 -327 -4 -331 -10z"/>
<path fill="#000000" stroke="none" d="M2075 710 c-4 -7 107 -10 325 -10 218
0 329 3 325 10 -4 6 -123 10 -325 10 -202 0 -321 -4 -325 -10z"/>
<path fill="#000000" stroke="none" d="M515 680 c4 -6 125 -10 331 -10 209 0
324 4 324 10 0 6 -117 10 -331 10 -217 0 -328 -3 -324 -10z"/>
<path fill="#000000" stroke="none" d="M2070 680 c0 -6 117 -10 330 -10 213 0
330 4 330 10 0 6 -117 10 -330 10 -213 0 -330 -4 -330 -10z"/>
<path fill="#000000" stroke="none" d="M1240 430 l0 -70 40 0 c29 0 40 4 40
15 0 9 -9 15 -25 15 -16 0 -25 6 -25 15 0 9 10 15 26 15 31 0 28 23 -4 28 -30
5 -28 22 3 22 16 0 25 6 25 15 0 11 -11 15 -40 15 l-40 0 0 -70z"/>
<path fill="#000000" stroke="none" d="M1350 485 c-18 -21 -8 -48 23 -63 37
-18 35 -35 -3 -27 -23 5 -30 3 -30 -9 0 -19 48 -32 69 -19 9 6 17 21 19 35 2
21 -3 29 -27 39 -36 16 -41 34 -7 25 28 -7 40 2 25 21 -15 17 -53 17 -69 -2z"/>
<path fill="#000000" stroke="none" d="M1440 485 c0 -8 9 -15 20 -15 18 0 20
-7 20 -56 0 -73 24 -70 28 4 2 37 7 52 18 52 7 0 14 7 14 15 0 11 -12 15 -50
15 -38 0 -50 -4 -50 -15z"/>
<path fill="#000000" stroke="none" d="M1612 488 c-21 -21 -13 -30 18 -23 22
5 30 3 30 -7 0 -8 -13 -27 -30 -43 -43 -41 -39 -55 15 -55 33 0 45 4 45 15 0
9 -9 15 -22 15 l-21 0 21 23 c27 29 28 63 3 77 -26 13 -44 13 -59 -2z"/>
<path fill="#000000" stroke="none" d="M1728 488 c-37 -31 -25 -113 18 -124
36 -9 64 20 64 66 0 57 -44 88 -82 58z"/>
<path fill="#ffffff" stroke="none" d="M1775 430 c0 -39 -19 -50 -35 -21 -8
15 -8 27 0 42 16 29 35 18 35 -21z"/>
<path fill="#000000" stroke="none" d="M1832 488 c-20 -20 -13 -30 17 -23 44
9 47 -12 7 -49 -49 -45 -47 -58 11 -54 51 3 75 28 27 28 l-28 0 22 20 c38 35
24 90 -23 90 -12 0 -26 -5 -33 -12z"/>
<path fill="#000000" stroke="none" d="M1940 485 c-11 -13 -8 -15 19 -15 17 0
31 -4 31 -10 0 -5 -7 -10 -15 -10 -8 0 -15 -7 -15 -15 0 -8 7 -15 15 -15 8 0
15 -7 15 -16 0 -12 -7 -14 -30 -9 -31 7 -39 -2 -18 -23 16 -16 53 -15 66 1 13
16 12 97 -1 115 -13 17 -52 15 -67 -3z"/>
</g>
</svg>
