<?xml version="1.0" standalone="no"?>
<!DOCTYPE svg PUBLIC "-//W3C//DTD SVG 20010904//EN"
 "http://www.w3.org/TR/2001/REC-SVG-20010904/DTD/svg10.dtd">
<svg version="1.0" xmlns="http://www.w3.org/2000/svg"
 width="251.000000pt" height="244.000000pt" viewBox="0 0 251.000000 244.000000"
 preserveAspectRatio="xMidYMid meet">
<metadata>
Created by potrace 1.16, written by Peter Selinger 2001-2019
</metadata>
<g transform="translate(0.000000,244.000000) scale(0.100000,-0.100000)"
fill="#000000" stroke="none">
<path fill="#000000" stroke="none" d="M273 2183 c-128 -131 -232 -243 -233
-249 0 -19 28 -36 47 -30 10 3 114 102 231 219 l212 213 272 -274 c227 -227
277 -272 298 -270 59 7 38 34 -261 334 -190 190 -301 294 -314 294 -13 0 -99
-81 -252 -237z"/>
<path fill="#000000" stroke="none" d="M2070 2385 c-24 -28 5 -45 79 -45 l66
0 -192 -192 -192 -192 -114 112 c-63 62 -120 112 -128 112 -8 0 -166 -152
-351 -337 l-338 -338 -148 148 c-91 91 -155 147 -167 147 -30 0 -568 -541
-563 -566 9 -51 42 -26 303 236 l259 260 151 -150 c83 -82 156 -150 162 -150
6 0 162 151 347 335 184 184 338 335 343 335 4 0 58 -50 119 -111 87 -86 116
-110 131 -105 10 3 108 96 217 206 109 110 199 200 201 200 2 0 5 -30 7 -67 3
-61 5 -68 25 -71 30 -4 35 18 31 143 l-3 100 -116 3 c-94 2 -118 0 -129 -13z"/>
<path fill="#000000" stroke="none" d="M2169 1794 c-25 -30 1 -48 75 -54 l67
-5 -115 -115 -115 -114 -84 82 c-47 45 -89 82 -93 82 -10 0 -41 -29 -212 -194
l-103 -100 -148 148 c-119 118 -154 147 -172 144 -53 -7 -34 -37 137 -209 93
-93 176 -169 185 -169 9 0 83 66 164 146 l147 146 82 -81 c45 -44 88 -81 95
-81 8 0 74 59 148 132 l133 132 0 -60 c0 -33 5 -65 12 -72 17 -17 45 -15 52 4
11 30 7 229 -6 242 -8 8 -50 12 -124 12 -90 0 -114 -3 -125 -16z"/>
<path fill="#000000" stroke="none" d="M1684 866 c-47 -21 -74 -62 -74 -113 0
-55 22 -98 60 -118 86 -45 183 14 183 111 0 91 -90 155 -169 120z"/>
<path fill="#ffffff" stroke="none" d="M1783 820 c54 -42 41 -134 -23 -160
-90 -37 -161 98 -83 160 33 26 73 26 106 0z"/>
<path fill="#000000" stroke="none" d="M320 745 c0 -103 3 -125 15 -125 11 0
15 20 17 97 l3 98 70 -97 c97 -135 105 -133 105 27 0 104 -2 125 -15 125 -12
0 -15 -17 -15 -90 0 -49 -3 -90 -7 -90 -5 1 -37 41 -71 90 -42 60 -70 90 -83
90 -18 0 -19 -9 -19 -125z"/>
<path fill="#000000" stroke="none" d="M610 745 l0 -125 75 0 c59 0 75 3 75
15 0 10 -15 15 -57 17 l-58 3 -3 43 -3 42 55 0 c43 0 56 3 56 15 0 12 -13 15
-55 15 l-55 0 0 35 0 35 60 0 c47 0 60 3 60 15 0 12 -15 15 -75 15 l-75 0 0
-125z"/>
<path fill="#000000" stroke="none" d="M820 861 c0 -4 4 -21 10 -37 5 -16 21
-68 35 -116 20 -68 30 -88 44 -88 14 0 23 18 41 78 12 42 25 80 29 84 4 4 17
-31 30 -78 20 -73 26 -85 44 -82 16 2 26 25 53 113 39 129 40 135 15 135 -15
0 -23 -16 -41 -90 -12 -49 -24 -90 -26 -90 -2 0 -15 41 -30 90 -35 118 -50
119 -83 7 -13 -45 -27 -85 -31 -90 -3 -4 -17 33 -29 83 -19 73 -27 90 -42 90
-11 0 -19 -4 -19 -9z"/>
<path fill="#000000" stroke="none" d="M1330 745 c0 -103 3 -125 15 -125 10 0
15 15 17 58 l3 57 68 3 67 3 0 -61 c0 -53 2 -60 20 -60 19 0 20 7 20 125 0
118 -1 125 -20 125 -17 0 -20 -7 -20 -50 l0 -50 -70 0 -70 0 0 50 c0 38 -4 50
-15 50 -13 0 -15 -21 -15 -125z"/>
<path fill="#000000" stroke="none" d="M1920 745 c0 -104 2 -125 15 -125 12 0
15 13 15 55 l0 55 48 0 c56 0 92 28 92 73 0 47 -31 67 -105 67 l-65 0 0 -125z"/>
<path fill="#ffffff" stroke="none" d="M2051 818 c10 -18 8 -24 -11 -40 -15
-12 -35 -18 -54 -16 -28 3 -31 7 -34 41 l-3 37 45 0 c36 0 48 -4 57 -22z"/>
<path fill="#000000" stroke="none" d="M2160 745 l0 -125 75 0 c59 0 75 3 75
15 0 10 -15 15 -57 17 l-58 3 -3 43 -3 42 55 0 c43 0 56 3 56 15 0 12 -13 15
-55 15 l-55 0 0 35 0 35 60 0 c47 0 60 3 60 15 0 12 -15 15 -75 15 l-75 0 0
-125z"/>
<path fill="#000000" stroke="none" d="M137 363 c-4 -3 -7 -10 -7 -15 0 -12
2359 -5 2363 7 2 11 -2345 20 -2356 8z"/>
<path fill="#000000" stroke="none" d="M353 118 c9 -8 18 -32 20 -58 l4 -45 1
52 c2 40 6 53 20 56 9 3 -1 5 -22 6 -34 1 -37 -1 -23 -11z"/>
<path fill="#000000" stroke="none" d="M470 75 c0 -30 5 -55 10 -55 6 0 10 11
10 25 0 31 7 31 32 0 11 -14 24 -25 30 -25 6 0 3 9 -8 21 -14 16 -16 24 -7 38
16 26 -2 51 -37 51 -30 0 -30 -1 -30 -55z"/>
<path fill="#ffffff" stroke="none" d="M525 100 c0 -8 -8 -16 -17 -18 -13 -2
-18 3 -18 18 0 15 5 20 18 18 9 -2 17 -10 17 -18z"/>
<path fill="#000000" stroke="none" d="M630 84 c-23 -53 -26 -78 -6 -51 16 21
66 23 66 2 0 -8 5 -15 10 -15 6 0 10 3 10 6 0 15 -43 104 -51 104 -4 0 -17
-21 -29 -46z"/>
<path fill="#ffffff" stroke="none" d="M670 85 c0 -8 -7 -15 -15 -15 -9 0 -12
6 -9 15 4 8 10 15 15 15 5 0 9 -7 9 -15z"/>
<path fill="#000000" stroke="none" d="M770 75 c0 -54 1 -55 29 -55 34 0 54
20 54 55 0 35 -20 55 -54 55 -28 0 -29 -1 -29 -55z"/>
<path fill="#ffffff" stroke="none" d="M825 107 c27 -21 13 -67 -20 -67 -22 0
-25 5 -25 33 0 48 12 57 45 34z"/>
<path fill="#000000" stroke="none" d="M925 75 c0 -30 5 -55 10 -55 6 0 10 25
10 55 0 30 -4 55 -10 55 -5 0 -10 -25 -10 -55z"/>
<path fill="#000000" stroke="none" d="M1022 73 l1 -58 6 45 6 45 29 -42 c16
-24 33 -43 37 -43 5 0 8 26 7 58 l-1 57 -6 -45 -6 -45 -30 42 c-16 24 -33 43
-37 43 -5 0 -7 -26 -6 -57z"/>
<path fill="#000000" stroke="none" d="M1186 114 c-36 -35 -7 -98 43 -92 20 2
27 9 29 31 3 20 -1 27 -14 27 -14 0 -14 -2 -3 -16 10 -13 10 -17 -2 -25 -18
-11 -29 -7 -46 17 -19 30 8 67 44 58 18 -5 24 -3 19 5 -10 16 -52 14 -70 -5z"/>
<path fill="#000000" stroke="none" d="M1410 75 c0 -54 0 -55 30 -55 17 0 30
5 30 10 0 6 -11 10 -25 10 -16 0 -25 6 -25 15 0 9 10 15 26 15 14 0 23 4 19
10 -3 6 -15 10 -26 10 -28 0 -19 23 12 31 21 6 21 7 -8 8 l-33 1 0 -55z"/>
<path fill="#000000" stroke="none" d="M1554 103 c13 -25 12 -30 -6 -55 -11
-16 -15 -28 -9 -28 6 0 16 10 22 22 l12 22 19 -24 c24 -30 35 -19 13 14 -16
24 -16 28 -1 51 9 14 12 25 7 25 -6 0 -15 -8 -20 -17 -10 -17 -12 -17 -25 0
-20 26 -28 20 -12 -10z"/>
<path fill="#000000" stroke="none" d="M1680 75 c0 -30 5 -55 10 -55 6 0 10
11 10 25 0 20 5 25 24 25 28 0 42 26 25 46 -6 8 -24 14 -40 14 -28 0 -29 -1
-29 -55z"/>
<path fill="#ffffff" stroke="none" d="M1735 100 c0 -8 -8 -16 -17 -18 -13 -2
-18 3 -18 18 0 15 5 20 18 18 9 -2 17 -10 17 -18z"/>
<path fill="#000000" stroke="none" d="M1810 75 l0 -55 35 0 c19 0 35 5 35 10
0 6 -11 10 -25 10 -16 0 -25 6 -25 15 0 9 10 15 26 15 14 0 23 4 19 10 -3 6
-15 10 -26 10 -30 0 -23 28 9 33 22 3 20 4 -10 6 l-38 1 0 -55z"/>
<path fill="#000000" stroke="none" d="M1940 75 c0 -30 5 -55 10 -55 6 0 10
11 10 25 0 14 4 25 9 25 5 0 16 -11 25 -25 9 -14 21 -25 27 -25 5 0 3 10 -5
22 -11 15 -12 26 -5 40 14 26 -5 48 -42 48 -28 0 -29 -1 -29 -55z"/>
<path fill="#ffffff" stroke="none" d="M1995 100 c0 -8 -8 -16 -17 -18 -13 -2
-18 3 -18 18 0 15 5 20 18 18 9 -2 17 -10 17 -18z"/>
<path fill="#000000" stroke="none" d="M2093 123 c13 -3 17 -16 19 -56 l1 -52
4 45 c2 26 11 50 20 58 14 10 11 12 -23 11 -21 -1 -31 -3 -21 -6z"/>
<path fill="#000000" stroke="none" d="M2217 123 c-16 -16 -5 -41 23 -53 17
-7 30 -16 30 -20 0 -12 -28 -20 -47 -13 -14 5 -15 3 -7 -6 18 -20 59 -9 62 16
2 16 -5 26 -28 38 -32 17 -31 40 1 32 11 -3 19 -1 19 4 0 10 -43 12 -53 2z"/>
</g>
</svg>
