<?xml version="1.0" standalone="no"?>
<!DOCTYPE svg PUBLIC "-//W3C//DTD SVG 20010904//EN"
 "http://www.w3.org/TR/2001/REC-SVG-20010904/DTD/svg10.dtd">
<svg version="1.0" xmlns="http://www.w3.org/2000/svg"
 width="384.000000pt" height="219.000000pt" viewBox="0 0 384.000000 219.000000"
 preserveAspectRatio="xMidYMid meet">
<metadata>
Created by potrace 1.16, written by Peter Selinger 2001-2019
</metadata>
<g transform="translate(0.000000,219.000000) scale(0.100000,-0.100000)"
fill="#000000" stroke="none">
<path fill="#000000" stroke="none" d="M289 2001 l-24 -19 -3 -688 c-2 -378
-1 -699 3 -711 8 -34 41 -63 70 -63 14 0 25 -3 25 -7 0 -3 -20 -39 -45 -79
-45 -71 -53 -94 -36 -94 5 0 74 40 153 90 l143 90 391 0 c381 0 392 1 418 21
l26 20 0 710 c0 696 0 709 -20 729 -19 19 -33 20 -549 20 -506 0 -530 -1 -552
-19z"/>
<path fill="#ffffff" stroke="none" d="M1372 1983 c17 -15 18 -49 18 -660 l0
-643 -39 0 c-38 0 -73 16 -150 67 -25 17 -48 23 -87 23 -36 0 -64 7 -86 20
-18 10 -65 27 -104 36 -57 14 -74 22 -78 38 -3 12 -6 76 -6 144 l0 122 28 0
c15 0 43 8 62 18 38 19 47 41 49 128 1 39 11 70 47 140 128 246 133 262 115
332 -22 79 -106 149 -206 170 -111 24 -170 25 -211 4 -58 -30 -74 -51 -177
-237 -52 -93 -104 -186 -115 -205 -38 -60 -25 -136 30 -186 24 -23 105 -66
148 -79 14 -4 39 -18 55 -30 17 -12 44 -27 60 -32 l30 -10 7 -134 c7 -147 2
-169 -40 -169 -81 0 -172 -62 -172 -116 0 -51 26 -90 76 -115 43 -21 62 -24
164 -23 125 0 207 18 253 55 22 17 27 29 27 65 l0 44 49 0 c39 0 59 -7 97 -33
78 -54 114 -70 145 -63 28 5 29 4 29 -30 0 -19 -5 -44 -10 -55 -10 -18 -26
-19 -408 -19 l-397 0 -119 -75 c-66 -41 -122 -73 -124 -71 -2 3 13 30 33 61
20 32 34 64 31 71 -3 9 -20 14 -44 14 -21 0 -43 5 -50 12 -9 9 -12 180 -12
709 0 621 2 699 16 713 14 14 76 16 531 16 467 0 518 -2 535 -17z"/>
<path fill="#ffffff" stroke="none" d="M764 1895 c-8 -19 7 -19 32 0 25 19 40
19 24 0 -19 -23 -5 -30 22 -11 29 21 60 22 32 2 -13 -11 -16 -18 -8 -26 7 -7
16 -5 29 10 10 11 27 20 37 20 30 0 84 -26 128 -61 44 -36 72 -104 63 -153
l-6 -27 -33 32 c-27 27 -36 30 -47 20 -10 -10 -5 -18 26 -43 20 -16 37 -36 37
-44 0 -20 -14 -17 -36 7 -25 28 -52 41 -66 33 -7 -5 6 -22 37 -49 59 -51 55
-82 -5 -35 -21 16 -43 30 -48 30 -26 0 -19 -21 19 -57 24 -24 40 -47 38 -57
-3 -14 -12 -9 -46 23 -73 70 -113 51 -113 -52 0 -37 -5 -59 -15 -67 -14 -11
-14 -15 2 -32 17 -19 17 -19 -10 -13 -35 9 -35 -7 -1 -34 21 -16 25 -27 22
-58 -3 -36 -5 -38 -48 -45 -50 -9 -122 3 -213 34 -74 25 -149 67 -141 79 10
16 12 129 3 129 -14 0 -31 -52 -27 -82 4 -22 2 -25 -9 -17 -16 14 -17 69 -1
104 9 19 17 25 32 22 84 -19 86 -20 86 -5 0 8 -18 21 -40 28 -22 7 -40 17 -40
22 0 11 11 10 61 -7 33 -12 44 -13 50 -3 10 16 2 28 -19 28 -9 1 -28 7 -42 15
-32 18 -7 18 43 1 34 -12 38 -12 47 4 8 14 3 19 -31 30 -39 13 -56 26 -46 36
3 3 22 -2 42 -11 21 -8 40 -13 42 -11 12 11 -11 47 -33 52 -13 3 -24 12 -24
20 0 11 9 13 39 8 48 -8 62 9 21 26 -17 7 -30 16 -30 20 0 16 14 18 53 4 23
-8 47 -12 54 -10 24 10 13 25 -27 37 -48 15 -54 35 -7 24 53 -11 62 -11 62 5
0 8 -14 20 -32 25 -48 16 -53 29 -8 20 60 -11 67 -11 72 2 3 7 -13 16 -37 23
-38 10 -40 13 -24 25 10 7 24 11 30 8 7 -2 15 0 19 6 9 16 15 13 9 -4z"/>
<path fill="#ffffff" stroke="none" d="M955 1353 c-1 -107 -5 -177 -11 -183
-17 -17 -78 -23 -131 -14 l-48 8 54 7 c88 12 89 15 82 251 -3 97 1 111 32 106
22 -3 22 -6 22 -175z"/>
<path fill="#ffffff" stroke="none" d="M1010 1455 c14 -16 10 -18 -14 -9 -9 3
-16 10 -16 15 0 14 16 11 30 -6z"/>
<path fill="#ffffff" stroke="none" d="M820 1000 c0 -77 -4 -140 -9 -140 -21
0 -27 33 -30 153 -3 123 -2 127 18 127 20 0 21 -5 21 -140z"/>
<path fill="#ffffff" stroke="none" d="M765 780 c5 -31 12 -41 31 -46 33 -8
54 12 54 52 0 39 8 41 85 20 80 -21 115 -43 115 -71 0 -40 -81 -75 -204 -88
-151 -15 -253 13 -269 73 -11 44 71 98 150 100 29 0 32 -3 38 -40z"/>
<path fill="#ffffff" stroke="none" d="M820 754 c0 -2 -7 -4 -15 -4 -8 0 -15
4 -15 10 0 5 7 7 15 4 8 -4 15 -8 15 -10z"/>
<path fill="#ffffff" stroke="none" d="M1032 659 c-26 -21 -74 -35 -161 -50
-125 -20 -228 -4 -276 43 -20 20 -19 20 20 0 22 -11 65 -23 96 -27 78 -10 234
11 289 38 52 26 66 24 32 -4z"/>
<path fill="#000000" stroke="none" d="M797 1833 c-14 -13 -6 -21 41 -38 26
-9 64 -28 84 -41 40 -26 58 -30 58 -14 0 16 -65 62 -116 81 -55 21 -58 22 -67
12z"/>
<path fill="#000000" stroke="none" d="M764 1779 c-7 -12 12 -29 32 -29 18 0
102 -39 109 -50 9 -14 35 -12 35 3 -1 17 -39 43 -99 67 -60 23 -67 24 -77 9z"/>
<path fill="#000000" stroke="none" d="M737 1733 c-15 -14 -5 -23 46 -38 30
-8 69 -27 87 -40 19 -14 40 -25 47 -25 46 0 -37 70 -110 93 -61 19 -61 19 -70
10z"/>
<path fill="#000000" stroke="none" d="M720 1661 c0 -14 12 -22 48 -31 26 -7
63 -26 83 -42 41 -31 49 -34 49 -15 -1 26 -52 69 -107 88 -69 24 -73 24 -73 0z"/>
<path fill="#000000" stroke="none" d="M660 1645 c0 -8 5 -15 10 -15 6 0 10 7
10 15 0 8 -4 15 -10 15 -5 0 -10 -7 -10 -15z"/>
<path fill="#000000" stroke="none" d="M694 1606 c-19 -14 -19 -15 1 -21 68
-23 102 -39 128 -61 34 -29 47 -30 47 -6 0 33 -54 71 -136 96 -11 3 -29 0 -40
-8z"/>
<path fill="#000000" stroke="none" d="M654 1555 c-9 -23 4 -34 52 -46 24 -6
61 -24 80 -40 36 -29 54 -30 54 -4 0 21 -58 60 -123 83 -48 17 -59 18 -63 7z"/>
<path fill="#000000" stroke="none" d="M615 1501 c-7 -12 -2 -15 67 -39 32
-11 70 -30 85 -42 19 -15 29 -18 37 -10 14 15 -10 34 -91 71 -66 31 -88 35
-98 20z"/>
<path fill="#000000" stroke="none" d="M585 1451 c-4 -8 90 -51 111 -51 2 0
22 -11 43 -24 36 -23 51 -24 51 -4 0 13 -70 53 -124 71 -57 19 -72 21 -81 8z"/>
<path fill="#000000" stroke="none" d="M512 1413 c-16 -29 -15 -75 2 -99 20
-27 23 -18 17 56 -5 58 -7 63 -19 43z"/>
<path fill="#000000" stroke="none" d="M557 1403 c-14 -13 -6 -79 11 -106 25
-37 34 -23 15 24 -8 22 -12 50 -9 64 6 24 -3 33 -17 18z"/>
<path fill="#000000" stroke="none" d="M606 1384 c-11 -28 23 -124 44 -124 14
0 12 23 -4 56 -9 15 -12 40 -9 56 4 21 2 28 -10 28 -8 0 -18 -7 -21 -16z"/>
<path fill="#000000" stroke="none" d="M1608 1934 c-35 -19 -48 -43 -48 -91 0
-48 25 -77 88 -104 64 -28 74 -37 61 -60 -13 -25 -44 -24 -76 1 -47 37 -97 14
-75 -35 17 -36 58 -58 111 -59 80 -1 131 42 131 111 0 44 -27 72 -96 104 -67
30 -80 50 -43 70 18 9 27 7 50 -10 33 -25 62 -27 79 -6 10 13 11 20 1 39 -28
52 -123 73 -183 40z"/>
<path fill="#000000" stroke="none" d="M1938 1933 c-19 -23 -108 -270 -108
-300 0 -25 30 -46 53 -37 8 3 19 16 25 30 10 21 18 24 67 24 39 0 55 -4 55
-13 0 -8 9 -22 19 -31 15 -14 24 -15 40 -6 35 18 33 28 -30 200 -27 74 -55
138 -62 142 -20 13 -43 9 -59 -9z"/>
<path fill="#ffffff" stroke="none" d="M1951 1857 c-10 -9 -11 -8 -5 6 3 10 9
15 12 12 3 -3 0 -11 -7 -18z"/>
<path fill="#ffffff" stroke="none" d="M1987 1765 c11 -34 11 -35 -17 -35 -28
0 -28 1 -17 35 6 19 13 35 17 35 4 0 11 -16 17 -35z"/>
<path fill="#000000" stroke="none" d="M3062 1942 c-7 -5 -37 -76 -66 -158
-55 -152 -58 -176 -20 -191 17 -6 54 24 54 44 0 9 16 13 55 13 49 0 57 -3 67
-24 13 -31 33 -39 59 -26 28 16 24 45 -28 187 -58 159 -77 183 -121 155z"/>
<path fill="#ffffff" stroke="none" d="M3090 1876 c0 -2 -7 -9 -15 -16 -13
-11 -14 -10 -9 4 5 14 24 23 24 12z"/>
<path fill="#ffffff" stroke="none" d="M3107 1765 c11 -34 11 -35 -17 -35 -28
0 -28 1 -17 35 6 19 13 35 17 35 4 0 11 -16 17 -35z"/>
<path fill="#ffffff" stroke="none" d="M3165 1690 c3 -6 -1 -7 -9 -4 -18 7
-21 14 -7 14 6 0 13 -4 16 -10z"/>
<path fill="#000000" stroke="none" d="M3242 1938 c-15 -15 -16 -44 -2 -53 6
-3 10 -17 10 -31 0 -38 25 -29 45 17 14 30 16 45 8 57 -13 21 -44 27 -61 10z"/>
<path fill="#000000" stroke="none" d="M3405 1938 c-36 -19 -55 -52 -55 -94 0
-48 29 -81 101 -112 54 -23 66 -37 49 -57 -17 -21 -43 -19 -74 6 -52 41 -108
3 -70 -47 66 -89 234 -51 234 53 0 54 -23 80 -96 114 -67 30 -80 50 -43 70 18
9 27 7 50 -10 33 -25 62 -27 79 -6 32 38 -34 95 -110 95 -25 0 -54 -6 -65 -12z"/>
<path fill="#000000" stroke="none" d="M2207 1933 c-4 -3 -7 -58 -7 -122 0
-64 -4 -121 -8 -126 -4 -6 -19 -16 -34 -22 -20 -9 -28 -20 -28 -37 0 -57 110
-42 138 19 12 27 17 250 6 279 -6 16 -54 22 -67 9z"/>
<path fill="#000000" stroke="none" d="M2362 1928 c-8 -8 -12 -58 -12 -159 0
-183 -3 -179 120 -179 67 0 92 4 104 16 39 38 12 62 -74 66 -62 3 -65 4 -68
30 -3 26 -1 27 49 30 96 6 96 70 0 76 -50 3 -52 4 -49 30 3 26 6 27 68 30 72
3 97 20 79 53 -8 17 -22 19 -107 19 -63 0 -102 -4 -110 -12z"/>
<path fill="#ffffff" stroke="none" d="M2400 1740 c0 -5 -4 -10 -10 -10 -5 0
-10 5 -10 10 0 6 5 10 10 10 6 0 10 -4 10 -10z"/>
<path fill="#ffffff" stroke="none" d="M2405 1650 c-3 -5 -12 -10 -18 -10 -7
0 -6 4 3 10 19 12 23 12 15 0z"/>
<path fill="#000000" stroke="none" d="M2640 1921 c-5 -11 -10 -80 -10 -153 0
-167 5 -178 88 -178 72 0 137 31 170 80 20 30 23 45 20 105 -6 119 -58 165
-187 165 -59 0 -72 -3 -81 -19z"/>
<path fill="#ffffff" stroke="none" d="M2808 1834 c33 -38 30 -97 -7 -135 -17
-17 -40 -29 -55 -29 l-26 0 0 101 0 102 33 -7 c17 -3 42 -17 55 -32z"/>
<path fill="#000000" stroke="none" d="M2315 1468 c-133 -30 -169 -236 -57
-330 42 -35 97 -44 150 -22 53 21 84 63 90 123 6 62 -8 73 -88 69 -51 -2 -65
-7 -77 -24 -12 -19 -12 -24 2 -38 9 -9 30 -16 47 -16 36 0 34 -18 -5 -40 -24
-13 -30 -13 -54 0 -53 30 -67 129 -25 179 30 35 63 36 106 2 31 -25 42 -29 58
-20 28 15 32 36 14 64 -30 46 -97 68 -161 53z"/>
<path fill="#000000" stroke="none" d="M3105 1465 c-51 -18 -74 -50 -75 -101
0 -49 31 -83 102 -109 52 -19 68 -43 42 -62 -24 -18 -37 -16 -68 8 -29 23 -64
22 -79 -2 -16 -26 15 -64 68 -84 39 -15 52 -16 87 -6 55 17 88 54 88 101 0 50
-27 82 -92 110 -71 30 -85 50 -47 71 18 9 27 7 50 -10 51 -38 104 -16 81 34
-21 46 -97 71 -157 50z"/>
<path fill="#000000" stroke="none" d="M1645 1462 c-33 -2 -63 -9 -67 -15 -4
-7 -8 -78 -8 -159 0 -182 -3 -178 119 -178 76 0 90 3 107 21 31 34 9 53 -72
59 -66 5 -69 6 -72 32 -3 26 -1 27 49 30 96 6 96 70 0 76 -50 3 -52 4 -49 30
3 26 5 27 70 30 53 2 70 7 78 21 22 42 -29 59 -155 53z"/>
<path fill="#ffffff" stroke="none" d="M1620 1260 c0 -5 -2 -10 -4 -10 -3 0
-8 5 -11 10 -3 6 -1 10 4 10 6 0 11 -4 11 -10z"/>
<path fill="#000000" stroke="none" d="M2571 1454 c-20 -14 -21 -24 -21 -164
0 -142 1 -150 22 -164 26 -18 151 -22 192 -6 23 8 26 15 26 59 0 41 -4 52 -21
61 -27 15 -47 6 -59 -25 -7 -19 -17 -25 -40 -25 l-30 0 0 116 c0 63 -4 123
-10 133 -14 27 -35 32 -59 15z"/>
<path fill="#000000" stroke="none" d="M2829 1451 c-26 -21 -20 -50 11 -58 18
-5 20 -14 20 -103 0 -89 -2 -98 -20 -103 -32 -8 -37 -37 -11 -59 33 -26 124
-25 151 2 16 16 18 25 10 40 -6 11 -17 20 -25 20 -12 0 -15 19 -15 100 0 81 3
100 15 100 8 0 19 9 25 20 8 15 6 24 -9 39 -26 26 -121 28 -152 2z"/>
<path fill="#ffffff" stroke="none" d="M2915 1410 c3 -6 -1 -7 -9 -4 -18 7
-21 14 -7 14 6 0 13 -4 16 -10z"/>
<path fill="#ffffff" stroke="none" d="M2925 1172 c-3 -3 -11 0 -18 7 -9 10
-8 11 6 5 10 -3 15 -9 12 -12z"/>
<path fill="#000000" stroke="none" d="M3538 1463 c-19 -5 -26 -25 -30 -88
l-3 -40 -45 0 -45 0 -5 50 c-7 62 -15 75 -45 75 -38 0 -45 -28 -45 -170 0
-132 6 -163 35 -174 30 -11 55 29 55 89 l0 55 50 0 50 0 0 -57 c0 -32 4 -63 8
-69 11 -17 35 -22 55 -12 15 8 17 26 17 168 0 142 -2 160 -17 168 -10 5 -26 7
-35 5z"/>
<path fill="#ffffff" stroke="none" d="M3557 1280 c0 -29 -1 -29 -19 -13 -19
17 -25 39 -8 28 6 -3 10 -1 10 4 0 6 4 11 8 11 5 0 9 -14 9 -30z"/>
<path fill="#000000" stroke="none" d="M1864 1448 c-4 -7 -8 -77 -9 -157 -1
-130 0 -146 18 -164 16 -16 21 -17 40 -4 19 12 23 26 27 93 l5 79 58 -87 c94
-138 122 -130 130 42 8 152 0 204 -31 208 -42 6 -52 -14 -52 -102 l0 -81 -61
93 c-54 80 -66 92 -90 92 -15 0 -31 -5 -35 -12z"/>
<path fill="#ffffff" stroke="none" d="M1935 1370 c-3 -5 -1 -10 6 -10 7 0 10
-3 6 -6 -9 -9 -28 6 -22 17 4 5 8 9 11 9 3 0 2 -4 -1 -10z"/>
<path fill="#ffffff" stroke="none" d="M2070 1210 c0 -5 -4 -10 -10 -10 -5 0
-10 5 -10 10 0 6 5 10 10 10 6 0 10 -4 10 -10z"/>
<path fill="#000000" stroke="none" d="M1633 989 c-45 -13 -73 -53 -73 -104 0
-36 5 -48 30 -68 16 -14 49 -33 74 -42 50 -19 62 -37 40 -60 -21 -20 -36 -19
-67 5 -30 24 -60 26 -77 5 -27 -32 15 -79 85 -95 104 -23 194 80 139 159 -10
13 -46 37 -81 53 -66 30 -77 49 -41 72 13 8 24 5 47 -12 37 -27 67 -28 81 -2
29 54 -76 113 -157 89z"/>
<path fill="#000000" stroke="none" d="M2546 990 c-114 -34 -154 -219 -68
-313 61 -68 191 -63 238 8 32 49 -10 92 -56 55 -47 -38 -65 -43 -96 -28 -57
27 -67 136 -18 185 30 30 55 29 93 -3 33 -28 68 -29 84 -3 16 25 -16 67 -66
90 -46 20 -67 22 -111 9z"/>
<path fill="#000000" stroke="none" d="M1867 976 c-14 -15 -17 -39 -17 -165 0
-156 4 -171 47 -171 23 0 45 35 42 64 -5 38 2 46 36 46 83 0 138 48 137 120
-1 81 -38 110 -150 117 -65 5 -81 3 -95 -11z"/>
<path fill="#ffffff" stroke="none" d="M2014 894 c32 -32 11 -64 -41 -64 -32
0 -33 1 -33 40 0 38 2 40 29 40 16 0 37 -7 45 -16z"/>
<path fill="#000000" stroke="none" d="M2232 977 c-6 -7 -34 -77 -63 -156 -56
-154 -56 -173 -6 -179 20 -3 29 3 42 27 14 28 20 31 60 31 39 0 46 -3 60 -30
20 -39 71 -43 80 -7 6 23 -83 286 -107 314 -13 17 -52 17 -66 0z"/>
<path fill="#ffffff" stroke="none" d="M2290 783 c0 -7 -12 -13 -26 -13 -20 0
-25 4 -20 16 3 9 9 28 13 42 l6 27 13 -30 c7 -16 13 -36 14 -42z"/>
<path fill="#ffffff" stroke="none" d="M2345 722 c-3 -3 -11 0 -18 7 -9 10 -8
11 6 5 10 -3 15 -9 12 -12z"/>
<path fill="#000000" stroke="none" d="M2803 980 c-22 -9 -23 -13 -23 -162 0
-84 5 -160 10 -168 7 -11 33 -16 97 -18 77 -3 92 -1 113 16 20 17 23 24 14 39
-8 14 -28 19 -80 23 -66 5 -69 6 -72 32 -3 26 -1 27 49 30 96 6 97 70 0 76
-49 3 -51 4 -51 33 l0 29 70 0 c59 0 71 3 80 20 8 15 6 24 -10 40 -17 17 -33
20 -97 19 -43 0 -88 -4 -100 -9z"/>
<path fill="#000000" stroke="none" d="M170 155 c0 -37 4 -55 13 -55 8 0 12
18 12 55 0 37 -4 55 -12 55 -9 0 -13 -18 -13 -55z"/>
<path fill="#000000" stroke="none" d="M1575 155 c0 -30 5 -55 10 -55 6 0 10
25 10 55 0 30 -4 55 -10 55 -5 0 -10 -25 -10 -55z"/>
<path fill="#000000" stroke="none" d="M1945 155 c0 -37 4 -55 13 -55 7 0 12
13 12 30 0 17 5 30 10 30 6 0 10 -13 10 -30 0 -18 5 -30 13 -30 25 0 7 60 -20
71 -16 6 -23 15 -19 24 3 8 0 15 -7 15 -8 0 -12 -18 -12 -55z"/>
<path fill="#000000" stroke="none" d="M2675 155 l0 -56 34 3 c19 2 36 9 37
16 1 7 0 8 -3 2 -2 -5 -16 -10 -29 -10 -18 0 -24 5 -24 21 0 16 5 20 20 16 12
-3 20 0 20 8 0 8 -8 11 -20 8 -16 -4 -20 0 -20 17 0 18 4 21 25 18 14 -3 25
-1 25 3 0 5 -15 9 -32 9 l-33 0 0 -55z"/>
<path fill="#000000" stroke="none" d="M2945 155 c0 -30 5 -55 10 -55 6 0 9
23 7 55 -5 71 -17 71 -17 0z"/>
<path fill="#000000" stroke="none" d="M3110 155 c0 -37 4 -55 13 -55 8 0 11
16 9 55 -5 71 -22 71 -22 0z"/>
<path fill="#000000" stroke="none" d="M3240 155 c0 -51 2 -55 24 -55 47 0 61
55 16 67 -11 3 -20 14 -20 24 0 11 -4 19 -10 19 -5 0 -10 -25 -10 -55z"/>
<path fill="#ffffff" stroke="none" d="M3288 132 c2 -15 -2 -22 -12 -22 -11 0
-16 9 -16 26 0 31 23 28 28 -4z"/>
<path fill="#000000" stroke="none" d="M224 176 c-8 -22 -1 -69 12 -73 7 -2
10 6 6 23 -2 14 0 29 6 33 6 4 5 11 -4 19 -12 11 -15 10 -20 -2z"/>
<path fill="#000000" stroke="none" d="M604 177 c-8 -22 -1 -70 11 -74 6 -2 9
14 8 38 -1 45 -9 60 -19 36z"/>
<path fill="#000000" stroke="none" d="M903 179 c-12 -12 -2 -71 12 -76 9 -3
12 74 3 83 -2 2 -9 -1 -15 -7z"/>
<path fill="#000000" stroke="none" d="M1628 179 c-9 -26 5 -79 20 -79 12 0
13 3 4 12 -14 14 -16 45 -3 50 5 2 3 8 -4 15 -9 9 -15 9 -17 2z"/>
<path fill="#000000" stroke="none" d="M315 160 c-5 -8 -2 -17 8 -25 21 -15
22 -29 2 -21 -8 3 -15 1 -15 -4 0 -14 37 -12 46 2 4 6 0 16 -8 22 -8 6 -17 18
-20 26 -4 12 -6 12 -13 0z"/>
<path fill="#000000" stroke="none" d="M420 135 c0 -19 5 -35 10 -35 6 0 10
16 10 35 0 19 -4 35 -10 35 -5 0 -10 -16 -10 -35z"/>
<path fill="#000000" stroke="none" d="M460 155 c7 -8 10 -24 7 -35 -3 -12 0
-20 7 -20 8 0 11 12 8 35 -3 23 -9 35 -19 35 -13 0 -13 -3 -3 -15z"/>
<path fill="#000000" stroke="none" d="M514 156 c-11 -28 1 -51 25 -51 33 0
51 30 30 50 -14 15 -15 13 -11 -15 3 -23 0 -30 -12 -30 -16 0 -20 10 -17 43 3
21 -7 23 -15 3z"/>
<path fill="#000000" stroke="none" d="M695 120 c0 -58 11 -53 17 8 2 24 -1
42 -7 42 -5 0 -10 -22 -10 -50z"/>
<path fill="#000000" stroke="none" d="M740 151 c0 -36 12 -51 39 -51 25 0 27
3 23 35 -2 19 -7 35 -11 35 -4 0 -6 -13 -3 -30 3 -23 0 -30 -12 -30 -11 0 -16
9 -16 30 0 17 -4 30 -10 30 -5 0 -10 -9 -10 -19z"/>
<path fill="#000000" stroke="none" d="M835 159 c-4 -5 1 -19 10 -29 15 -17
15 -19 -2 -23 -15 -4 -14 -5 4 -6 30 -1 40 19 17 36 -10 8 -18 19 -16 24 3 12
-5 11 -13 -2z"/>
<path fill="#000000" stroke="none" d="M1023 156 c4 -9 -2 -17 -14 -21 -30
-10 -23 -34 9 -33 25 1 27 4 24 34 -2 19 -9 34 -14 34 -6 0 -8 -7 -5 -14z"/>
<path fill="#ffffff" stroke="none" d="M1030 126 c0 -3 -4 -8 -10 -11 -5 -3
-10 -1 -10 4 0 6 5 11 10 11 6 0 10 -2 10 -4z"/>
<path fill="#000000" stroke="none" d="M1110 151 c0 -10 7 -22 16 -25 8 -3 12
-10 9 -16 -3 -5 -1 -10 4 -10 17 0 13 37 -5 44 -8 3 -12 10 -9 16 3 5 1 10 -4
10 -6 0 -11 -9 -11 -19z"/>
<path fill="#000000" stroke="none" d="M1175 115 c0 -39 4 -55 13 -55 9 0 11
7 7 19 -4 14 1 20 20 25 21 5 26 12 23 34 -2 22 -9 28 -33 30 l-30 3 0 -56z"/>
<path fill="#ffffff" stroke="none" d="M1222 148 c7 -19 -2 -38 -18 -38 -8 0
-14 8 -14 18 0 30 23 44 32 20z"/>
<path fill="#000000" stroke="none" d="M1265 160 c-3 -5 -1 -10 4 -10 6 0 11
5 11 10 0 6 -2 10 -4 10 -3 0 -8 -4 -11 -10z"/>
<path fill="#000000" stroke="none" d="M1296 156 c3 -9 -3 -17 -16 -21 -22 -7
-23 -26 -2 -33 7 -2 10 2 6 12 -3 9 -1 16 5 16 6 0 11 -7 11 -15 0 -8 4 -15 8
-15 4 0 6 16 4 35 -2 19 -8 35 -13 35 -5 0 -6 -6 -3 -14z"/>
<path fill="#000000" stroke="none" d="M1352 161 c-23 -14 -10 -56 18 -58 14
-2 19 0 10 4 -34 14 -38 40 -7 53 12 5 15 9 7 9 -8 0 -21 -3 -28 -8z"/>
<path fill="#000000" stroke="none" d="M1420 155 c-18 -22 -8 -50 20 -53 22
-2 23 -1 8 8 -24 15 -23 30 2 30 21 0 27 15 10 25 -5 3 -10 1 -10 -4 0 -6 -5
-11 -11 -11 -5 0 -7 5 -4 10 9 15 -1 12 -15 -5z"/>
<path fill="#000000" stroke="none" d="M1714 159 c-4 -7 0 -17 9 -24 10 -7 17
-18 17 -26 0 -10 3 -10 11 -2 9 9 6 18 -9 38 -14 18 -23 22 -28 14z"/>
<path fill="#000000" stroke="none" d="M1745 160 c3 -5 8 -10 11 -10 2 0 4 5
4 10 0 6 -5 10 -11 10 -5 0 -7 -4 -4 -10z"/>
<path fill="#000000" stroke="none" d="M1820 166 c0 -2 6 -18 14 -36 l14 -33
12 24 13 23 9 -24 c7 -20 11 -22 18 -10 13 20 13 33 0 25 -5 -3 -10 3 -10 14
0 12 -7 21 -16 21 -8 0 -13 -4 -10 -8 2 -4 0 -14 -5 -22 -7 -12 -10 -11 -15 8
-5 18 -24 33 -24 18z"/>
<path fill="#000000" stroke="none" d="M1910 159 c0 -5 5 -7 10 -4 6 3 10 8
10 11 0 2 -4 4 -10 4 -5 0 -10 -5 -10 -11z"/>
<path fill="#000000" stroke="none" d="M2040 149 c-13 -24 2 -49 29 -49 14 1
14 2 -1 11 -24 13 -23 29 2 29 11 0 20 7 20 15 0 8 -5 15 -11 15 -5 0 -7 -4
-4 -10 3 -5 -1 -10 -10 -10 -9 0 -13 5 -10 10 3 6 4 10 1 10 -3 0 -10 -9 -16
-21z"/>
<path fill="#000000" stroke="none" d="M2115 135 c0 -21 5 -35 13 -35 7 0 12
13 12 31 0 16 4 28 9 24 5 -3 12 -1 16 5 4 6 -5 10 -22 10 -25 0 -28 -3 -28
-35z"/>
<path fill="#000000" stroke="none" d="M2191 156 c-19 -23 -9 -51 19 -54 22
-2 23 -1 8 8 -24 15 -23 30 3 30 12 0 19 5 17 13 -7 18 -33 20 -47 3z"/>
<path fill="#000000" stroke="none" d="M2307 134 c17 -34 17 -36 -2 -50 -15
-11 -15 -14 -4 -14 25 0 40 44 26 74 -7 14 -18 26 -24 26 -9 0 -8 -10 4 -36z"/>
<path fill="#000000" stroke="none" d="M2384 156 c-16 -43 28 -75 56 -41 15
18 5 45 -21 53 -11 4 -12 2 -1 -9 19 -20 15 -51 -5 -47 -13 3 -17 12 -16 31 2
29 -4 35 -13 13z"/>
<path fill="#000000" stroke="none" d="M2469 138 c6 -28 12 -34 37 -36 29 -3
30 -2 26 33 -5 43 -22 47 -22 5 0 -16 -4 -30 -10 -30 -5 0 -10 14 -10 30 0 19
-5 30 -14 30 -10 0 -12 -8 -7 -32z"/>
<path fill="#000000" stroke="none" d="M2560 134 c0 -21 5 -34 13 -34 7 0 13
12 12 28 0 16 5 26 13 25 6 -2 12 1 12 6 0 5 -11 9 -25 9 -22 0 -25 -5 -25
-34z"/>
<path fill="#000000" stroke="none" d="M2770 135 c0 -22 5 -35 13 -35 9 0 12
11 9 35 -2 19 -8 35 -13 35 -5 0 -9 -16 -9 -35z"/>
<path fill="#000000" stroke="none" d="M2810 155 c7 -8 10 -24 7 -35 -3 -12 0
-20 7 -20 8 0 11 12 8 35 -3 23 -9 35 -19 35 -13 0 -13 -3 -3 -15z"/>
<path fill="#000000" stroke="none" d="M2866 159 c-10 -30 -1 -92 14 -97 12
-4 13 -2 3 9 -19 19 -16 29 8 29 15 0 19 -5 15 -16 -3 -8 -2 -12 4 -9 17 10
11 35 -8 35 -12 0 -18 9 -20 27 -2 31 -10 41 -16 22z"/>
<path fill="#000000" stroke="none" d="M2897 150 c3 -11 7 -20 8 -20 1 0 5 9
8 20 3 12 0 20 -8 20 -8 0 -11 -8 -8 -20z"/>
<path fill="#000000" stroke="none" d="M2995 135 c0 -19 5 -35 10 -35 7 0 9
15 7 35 -2 19 -7 35 -11 35 -3 0 -6 -16 -6 -35z"/>
<path fill="#000000" stroke="none" d="M3045 160 c-5 -8 -2 -17 8 -25 21 -15
22 -29 2 -21 -8 3 -15 1 -15 -4 0 -14 37 -12 46 2 4 6 0 16 -8 22 -8 6 -17 18
-20 26 -4 12 -6 12 -13 0z"/>
<path fill="#000000" stroke="none" d="M3150 155 c7 -8 10 -24 7 -35 -3 -12 0
-20 7 -20 8 0 11 12 8 35 -3 23 -9 35 -19 35 -13 0 -13 -3 -3 -15z"/>
<path fill="#000000" stroke="none" d="M3331 152 c-12 -22 4 -52 27 -52 16 1
16 1 0 11 -24 13 -23 29 2 29 11 0 20 7 20 15 0 8 -5 15 -11 15 -5 0 -7 -4 -4
-10 3 -5 -1 -10 -10 -10 -9 0 -13 5 -10 10 3 6 4 10 1 10 -3 0 -10 -8 -15 -18z"/>
<path fill="#000000" stroke="none" d="M3409 169 c-1 -2 -2 -25 -4 -51 -2 -35
1 -48 12 -53 13 -4 14 -3 3 10 -10 12 -9 16 6 22 10 4 19 2 22 -5 2 -7 8 -10
13 -6 14 8 1 24 -19 24 -12 0 -18 9 -20 27 -2 23 -10 44 -13 32z"/>
<path fill="#000000" stroke="none" d="M3437 150 c3 -11 9 -17 14 -14 14 8 10
34 -5 34 -9 0 -12 -7 -9 -20z"/>
<path fill="#000000" stroke="none" d="M3488 135 c-3 -24 0 -35 9 -35 8 0 13
13 13 35 0 19 -4 35 -9 35 -5 0 -11 -16 -13 -35z"/>
<path fill="#000000" stroke="none" d="M3540 135 c0 -19 5 -35 10 -35 6 0 10
16 10 35 0 19 -4 35 -10 35 -5 0 -10 -16 -10 -35z"/>
<path fill="#000000" stroke="none" d="M3580 155 c7 -8 10 -24 7 -35 -3 -12 0
-20 7 -20 8 0 11 12 8 35 -3 23 -9 35 -19 35 -13 0 -13 -3 -3 -15z"/>
<path fill="#000000" stroke="none" d="M3630 156 c0 -7 7 -19 15 -26 8 -7 12
-16 9 -21 -3 -5 0 -9 5 -9 17 0 13 37 -5 44 -8 3 -12 10 -9 16 3 5 1 10 -4 10
-6 0 -11 -6 -11 -14z"/>
<path fill="#000000" stroke="none" d="M1490 110 c0 -5 5 -10 11 -10 5 0 7 5
4 10 -3 6 -8 10 -11 10 -2 0 -4 -4 -4 -10z"/>
<path fill="#000000" stroke="none" d="M1710 110 c0 -5 5 -10 11 -10 5 0 7 5
4 10 -3 6 -8 10 -11 10 -2 0 -4 -4 -4 -10z"/>
</g>
</svg>
