<?xml version="1.0" standalone="no"?>
<!DOCTYPE svg PUBLIC "-//W3C//DTD SVG 20010904//EN"
 "http://www.w3.org/TR/2001/REC-SVG-20010904/DTD/svg10.dtd">
<svg version="1.0" xmlns="http://www.w3.org/2000/svg"
 width="669.000000pt" height="765.000000pt" viewBox="0 0 669.000000 765.000000"
 preserveAspectRatio="xMidYMid meet">
<metadata>
Created by potrace 1.16, written by Peter Selinger 2001-2019
</metadata>
<g transform="translate(0.000000,765.000000) scale(0.100000,-0.100000)"
fill="#000000" stroke="none">
<path fill="#000000" stroke="none" d="M2575 6769 c-357 -429 -658 -797 -668
-817 -21 -43 -18 -109 7 -147 9 -13 303 -280 654 -592 350 -312 640 -572 644
-577 4 -6 8 -18 8 -26 0 -8 -286 -349 -635 -757 -349 -408 -635 -745 -635
-750 0 -4 19 -23 42 -42 l41 -35 22 26 c559 650 1254 1467 1264 1486 20 36 18
110 -3 150 -10 19 -282 268 -654 598 -350 312 -641 575 -646 585 -5 10 -6 24
-3 31 3 7 298 364 656 793 358 429 651 782 650 785 0 7 -80 70 -88 70 -3 0
-298 -352 -656 -781z"/>
<path fill="#000000" stroke="none" d="M4040 5834 c-476 -29 -877 -53 -892
-53 -27 -1 -28 -2 -28 -61 l0 -61 73 6 c120 10 1770 105 1772 103 1 -2 -567
-639 -1262 -1417 -1014 -1136 -1263 -1419 -1263 -1441 0 -15 9 -35 21 -46 20
-18 41 -18 957 19 515 21 968 41 1006 44 l69 6 -6 54 c-3 31 -7 56 -9 57 -2 2
-410 -14 -908 -35 -498 -21 -912 -38 -921 -36 -11 1 423 494 1231 1398 686
769 1250 1405 1254 1414 12 31 6 56 -19 80 -22 23 -31 25 -117 24 -51 -1 -482
-25 -958 -55z"/>
<path fill="#000000" stroke="none" d="M285 1817 c-92 -31 -131 -63 -164 -137
-35 -76 -24 -171 26 -230 34 -41 124 -85 231 -114 160 -43 204 -71 222 -138
16 -56 -2 -111 -47 -145 -34 -26 -43 -28 -133 -28 -88 0 -100 2 -138 27 -27
19 -48 44 -64 78 l-23 50 -62 0 c-59 0 -63 -2 -63 -22 0 -75 99 -192 187 -222
150 -51 351 -16 428 76 41 49 55 90 55 165 0 145 -66 207 -295 273 -168 49
-205 76 -205 151 0 79 57 123 160 123 88 0 136 -25 169 -87 l24 -47 63 0 c75
0 78 6 40 85 -49 103 -129 147 -276 152 -60 2 -110 -2 -135 -10z"/>
<path fill="#000000" stroke="none" d="M3870 1765 l0 -55 250 0 c138 0 250 -3
250 -7 0 -5 -120 -160 -266 -346 l-265 -338 3 -47 3 -47 342 -3 c383 -3 345
-11 358 76 l7 42 -271 0 -271 0 260 333 260 332 0 58 0 57 -330 0 -330 0 0
-55z"/>
<path fill="#000000" stroke="none" d="M3190 1675 l0 -95 -60 0 -60 0 0 -50 0
-49 58 -3 57 -3 5 -240 c3 -168 9 -247 18 -262 24 -43 96 -66 180 -56 l52 6 0
48 0 48 -52 3 c-76 4 -78 11 -78 256 l0 202 70 0 70 0 0 50 0 50 -70 0 -70 0
0 95 0 95 -60 0 -60 0 0 -95z"/>
<path fill="#000000" stroke="none" d="M1137 1586 c-46 -13 -73 -30 -109 -71
-17 -20 -17 -20 -18 7 0 52 -8 58 -71 58 l-59 0 0 -330 0 -330 65 0 65 0 0
211 c0 135 4 226 12 252 25 82 106 125 179 94 64 -26 64 -26 69 -301 l5 -251
63 -3 62 -3 0 213 c0 232 7 277 49 319 57 56 156 46 196 -21 18 -32 20 -55 23
-272 l4 -238 59 0 59 0 0 243 c0 188 -3 255 -15 294 -29 98 -128 153 -238 133
-60 -12 -83 -24 -127 -66 l-35 -33 -20 29 c-40 60 -133 88 -218 66z"/>
<path fill="#000000" stroke="none" d="M2149 1590 c-52 -9 -116 -39 -141 -67
-20 -22 -48 -85 -48 -108 0 -12 13 -15 58 -15 56 0 57 1 77 38 37 68 161 83
218 26 24 -24 45 -113 32 -134 -3 -6 -52 -10 -109 -10 -122 0 -192 -18 -243
-63 -45 -39 -63 -82 -63 -146 0 -61 13 -97 48 -135 40 -42 98 -66 166 -66 79
0 133 18 172 57 l33 32 3 -37 3 -37 60 -3 60 -3 -3 248 c-2 136 -8 266 -14
288 -13 51 -72 110 -123 123 -63 16 -136 21 -186 12z"/>
<path fill="#ffffff" stroke="none" d="M2344 1178 c-8 -78 -35 -133 -74 -153
-17 -9 -55 -15 -90 -15 -55 0 -65 3 -91 29 -24 25 -29 38 -29 79 0 86 58 120
208 121 l83 1 -7 -62z"/>
<path fill="#000000" stroke="none" d="M2951 1589 c-55 -11 -117 -51 -139 -90
-10 -16 -20 -29 -24 -29 -5 0 -8 25 -8 55 l0 55 -60 0 -60 0 0 -330 0 -331 63
3 62 3 5 205 c4 174 8 211 24 243 22 44 82 83 144 93 l42 7 0 63 c0 35 -1 64
-2 63 -2 -1 -23 -5 -47 -10z"/>
<path fill="#000000" stroke="none" d="M4882 1589 c-154 -26 -252 -157 -252
-339 0 -108 31 -192 93 -255 61 -61 122 -85 212 -85 89 0 149 24 211 84 87 86
121 230 85 373 -39 160 -181 250 -349 222z"/>
<path fill="#ffffff" stroke="none" d="M5003 1476 c72 -30 109 -107 110 -226
0 -116 -36 -189 -111 -222 -84 -38 -168 -4 -214 86 -26 49 -36 171 -19 232 32
117 132 173 234 130z"/>
<path fill="#000000" stroke="none" d="M5661 1589 c-51 -10 -86 -30 -123 -73
l-27 -31 -1 48 0 47 -60 0 -60 0 0 -330 0 -331 63 3 62 3 5 225 c5 246 10 267
73 313 38 29 125 30 164 1 46 -34 52 -68 52 -317 l1 -228 63 3 62 3 0 245 c0
279 -7 312 -74 373 -33 30 -116 61 -149 56 -4 -1 -27 -5 -51 -10z"/>
<path fill="#000000" stroke="none" d="M6323 1590 c-98 -14 -167 -71 -215
-176 -19 -42 -23 -66 -23 -164 0 -106 2 -120 29 -178 50 -109 137 -162 262
-162 109 0 191 43 245 128 42 67 40 72 -36 72 -36 0 -65 -4 -65 -9 0 -23 -55
-71 -92 -81 -111 -30 -217 54 -218 173 l0 37 225 0 225 0 0 64 c0 203 -138
324 -337 296z"/>
<path fill="#ffffff" stroke="none" d="M6440 1484 c46 -19 86 -77 92 -134 l3
-35 -162 -3 c-127 -2 -163 0 -163 10 0 35 24 92 52 123 46 53 109 67 178 39z"/>
<path fill="#000000" stroke="none" d="M1910 285 l0 -215 24 0 c13 0 26 5 28
11 3 9 9 9 25 0 36 -19 107 -14 138 11 77 60 73 218 -7 268 -39 25 -98 22
-129 -6 -19 -17 -19 -15 -19 64 l0 82 -30 0 -30 0 0 -215z"/>
<path fill="#ffffff" stroke="none" d="M2090 312 c26 -21 38 -101 21 -144 -14
-37 -52 -61 -86 -52 -39 10 -59 48 -59 112 0 47 3 58 27 78 33 29 67 31 97 6z"/>
<path fill="#000000" stroke="none" d="M2250 470 c0 -25 4 -30 25 -30 21 0 25
5 25 30 0 25 -4 30 -25 30 -21 0 -25 -5 -25 -30z"/>
<path fill="#000000" stroke="none" d="M2390 285 l0 -215 30 0 30 0 0 215 0
215 -30 0 -30 0 0 -215z"/>
<path fill="#000000" stroke="none" d="M5980 470 c0 -27 3 -30 30 -30 27 0 30
3 30 30 0 27 -3 30 -30 30 -27 0 -30 -3 -30 -30z"/>
<path fill="#000000" stroke="none" d="M3080 477 c-24 -8 -41 -23 -53 -47 -19
-39 -16 -71 12 -111 l19 -26 -34 -27 c-58 -46 -62 -127 -9 -173 48 -42 149
-28 193 25 11 14 16 12 45 -16 26 -25 42 -32 72 -32 l39 0 -54 55 -54 55 51
75 52 75 -32 0 c-28 0 -37 -7 -67 -55 -19 -30 -37 -55 -41 -55 -3 0 -20 15
-38 33 l-32 34 35 35 c81 81 6 192 -104 155z"/>
<path fill="#ffffff" stroke="none" d="M3155 416 c14 -20 14 -29 4 -48 -7 -13
-19 -28 -28 -35 -36 -27 -82 62 -49 95 20 20 56 14 73 -12z"/>
<path fill="#ffffff" stroke="none" d="M3138 217 c23 -23 42 -48 42 -54 0 -17
-47 -43 -79 -43 -38 0 -61 23 -61 63 0 27 32 77 50 77 3 0 25 -19 48 -43z"/>
<path fill="#000000" stroke="none" d="M70 275 l0 -205 30 0 30 0 0 90 0 89
98 3 c92 3 97 4 100 26 3 22 1 22 -97 22 l-101 0 0 65 0 65 105 0 105 0 0 25
0 25 -135 0 -135 0 0 -205z"/>
<path fill="#000000" stroke="none" d="M1090 274 l0 -205 28 3 27 3 -2 175 -2
175 57 -175 c57 -173 58 -175 86 -175 28 0 30 3 88 170 32 93 60 170 61 172 2
1 3 -75 2 -170 l0 -172 28 -3 27 -3 0 205 0 206 -43 0 -42 0 -54 -152 c-30
-84 -57 -157 -61 -161 -4 -4 -13 14 -20 40 -7 26 -31 99 -53 161 l-39 112 -44
0 -44 0 0 -206z"/>
<path fill="#000000" stroke="none" d="M3686 472 c-9 -15 -136 -380 -136 -392
0 -6 12 -10 28 -8 23 3 30 11 47 60 l20 58 80 0 80 0 21 -58 c18 -52 23 -57
52 -60 18 -2 32 0 31 5 0 4 -33 96 -72 203 l-72 195 -37 3 c-20 2 -39 -1 -42
-6z"/>
<path fill="#ffffff" stroke="none" d="M3759 328 l30 -88 -64 0 -64 0 31 91
c17 49 31 89 33 87 2 -2 17 -42 34 -90z"/>
<path fill="#000000" stroke="none" d="M454 361 c-50 -23 -74 -68 -74 -141 0
-96 49 -150 136 -150 45 0 59 5 89 31 102 90 43 280 -87 279 -13 0 -41 -9 -64
-19z"/>
<path fill="#ffffff" stroke="none" d="M565 306 c73 -73 13 -223 -74 -186 -36
14 -51 48 -51 111 0 40 5 55 25 74 31 32 69 32 100 1z"/>
<path fill="#000000" stroke="none" d="M816 355 c-34 -23 -36 -23 -36 -5 0 16
-7 20 -30 20 l-30 0 0 -150 0 -150 30 0 30 0 0 96 c0 92 1 97 29 125 16 16 39
29 50 29 17 0 21 6 21 30 0 37 -15 38 -64 5z"/>
<path fill="#000000" stroke="none" d="M1640 361 c-74 -39 -100 -155 -53 -232
27 -44 59 -59 122 -59 83 0 131 56 131 152 0 123 -100 193 -200 139z"/>
<path fill="#ffffff" stroke="none" d="M1755 305 c21 -20 25 -34 25 -82 0 -65
-16 -97 -54 -107 -63 -16 -114 48 -101 128 12 80 80 112 130 61z"/>
<path fill="#000000" stroke="none" d="M2594 366 c-91 -40 -113 -189 -39 -263
29 -29 40 -33 85 -33 57 0 86 11 112 44 40 48 -2 65 -54 21 -16 -14 -38 -25
-48 -25 -27 0 -68 40 -76 73 l-6 27 107 0 108 0 -6 45 c-8 58 -32 94 -74 111
-40 17 -69 17 -109 0z"/>
<path fill="#ffffff" stroke="none" d="M2686 322 c13 -8 34 -46 34 -61 0 -7
-29 -11 -76 -11 -74 0 -75 1 -68 23 11 37 35 57 68 57 17 0 36 -4 42 -8z"/>
<path fill="#000000" stroke="none" d="M4023 364 c-94 -46 -105 -221 -19 -278
31 -20 107 -21 145 -2 25 13 51 52 51 76 0 21 -48 9 -64 -15 -37 -56 -107 -37
-126 35 -20 73 17 150 71 150 27 0 59 -22 59 -41 0 -5 14 -9 30 -9 18 0 30 5
30 13 0 23 -32 59 -66 73 -43 18 -71 17 -111 -2z"/>
<path fill="#000000" stroke="none" d="M4330 363 c-53 -27 -80 -75 -80 -140 0
-105 44 -153 140 -153 44 0 56 5 81 29 34 34 39 71 10 71 -11 0 -33 -14 -49
-30 -35 -35 -60 -38 -93 -11 -19 15 -24 30 -27 84 -4 60 -2 68 21 91 33 33 71
33 101 1 29 -31 77 -35 69 -6 -3 10 -17 31 -33 46 -36 35 -93 42 -140 18z"/>
<path fill="#000000" stroke="none" d="M4645 373 c-75 -18 -118 -139 -81 -227
22 -53 60 -76 123 -76 49 0 59 4 89 34 19 19 34 39 34 45 0 17 -57 13 -64 -4
-8 -21 -52 -36 -82 -29 -25 6 -54 49 -54 79 0 13 17 15 106 15 l106 0 -7 43
c-16 97 -80 142 -170 120z"/>
<path fill="#ffffff" stroke="none" d="M4732 313 c9 -10 19 -28 22 -40 7 -22
6 -23 -68 -23 -84 0 -92 7 -55 54 25 31 77 36 101 9z"/>
<path fill="#000000" stroke="none" d="M4920 362 c-38 -19 -56 -55 -47 -94 7
-27 24 -37 110 -68 46 -17 57 -26 57 -44 0 -31 -18 -46 -56 -46 -23 0 -38 8
-52 25 -12 15 -30 25 -46 25 -35 0 -34 -24 3 -61 26 -25 37 -29 86 -29 85 0
124 27 125 86 0 46 -27 72 -95 93 -62 19 -82 37 -72 65 9 24 73 21 94 -4 18
-21 63 -28 63 -9 0 24 -24 52 -55 65 -45 18 -73 18 -115 -4z"/>
<path fill="#000000" stroke="none" d="M5204 366 c-35 -15 -44 -32 -44 -82 0
-39 22 -58 96 -80 74 -22 91 -45 58 -78 -24 -24 -71 -20 -98 9 -28 30 -66 34
-66 6 0 -11 14 -31 31 -45 25 -21 41 -26 88 -26 66 0 104 22 115 66 15 59 -18
91 -126 124 -63 19 -58 70 8 70 23 0 38 -6 46 -20 8 -12 24 -20 40 -20 32 0
33 2 13 39 -24 47 -99 64 -161 37z"/>
<path fill="#000000" stroke="none" d="M5514 366 c-101 -46 -110 -231 -13
-281 42 -22 130 -16 160 11 72 64 63 208 -15 259 -35 23 -95 28 -132 11z"/>
<path fill="#ffffff" stroke="none" d="M5605 324 c39 -15 59 -113 34 -168 -14
-29 -59 -50 -89 -41 -29 9 -60 62 -60 102 0 85 50 132 115 107z"/>
<path fill="#000000" stroke="none" d="M5886 365 c-16 -9 -35 -23 -42 -33 -12
-15 -13 -14 -14 11 0 22 -4 27 -25 27 l-25 0 0 -150 0 -150 24 0 c23 0 24 3
28 94 4 106 20 140 68 151 25 5 30 11 30 36 0 33 -4 35 -44 14z"/>
<path fill="#000000" stroke="none" d="M6180 362 c-45 -22 -70 -72 -70 -140 0
-104 44 -152 140 -152 44 0 56 5 81 29 16 16 29 37 29 45 0 23 -45 20 -61 -4
-35 -50 -110 -28 -128 38 l-10 32 105 0 104 0 0 38 c0 49 -32 100 -75 118 -45
18 -72 18 -115 -4z"/>
<path fill="#ffffff" stroke="none" d="M6294 308 c33 -47 23 -58 -54 -58 -63
0 -70 2 -70 20 0 54 93 83 124 38z"/>
<path fill="#000000" stroke="none" d="M6490 373 c-36 -13 -60 -47 -60 -85 0
-43 20 -61 96 -84 56 -17 74 -30 74 -55 0 -43 -79 -52 -114 -14 -28 30 -66 34
-66 6 0 -11 14 -31 31 -45 25 -22 41 -26 91 -26 53 0 63 3 90 30 26 27 30 36
24 68 -7 45 -32 65 -107 86 -58 16 -78 38 -58 62 18 22 77 18 91 -6 13 -21 68
-29 68 -9 0 52 -96 95 -160 72z"/>
<path fill="#000000" stroke="none" d="M2250 220 l0 -150 25 0 25 0 0 150 0
150 -25 0 -25 0 0 -150z"/>
<path fill="#000000" stroke="none" d="M5980 220 l0 -150 30 0 30 0 0 150 0
150 -30 0 -30 0 0 -150z"/>
</g>
</svg>
